<svg xmlns="http://www.w3.org/2000/svg" xmlns:xlink="http://www.w3.org/1999/xlink" width="34" height="34" viewBox="0 0 34 34"><defs><path id="vp2ba" d="M64 428.69v17c0 .52-.42.94-.94.94h-2.81v6.56a2.82 2.82 0 0 1-2.81 2.81H36.69a2.82 2.82 0 0 1-2.81-2.81v-.94h-.94a.94.94 0 0 1 0-1.88h.94v-5.62h-.94a.94.94 0 0 1 0-1.88h.94v-5.75h-.94a.94.94 0 0 1 0-1.87h.94v-5.63h-.94a.94.94 0 0 1 0-1.87h.94v-.94a2.82 2.82 0 0 1 2.8-2.81h20.76a2.82 2.82 0 0 1 2.81 2.81v.94h2.81c.52 0 .94.42.94.94zm-24.5-2.81h-2.81a.94.94 0 0 0-.94.93v.94h.94a.94.94 0 0 1 0 1.88h-.94v5.62h.94a.94.94 0 0 1 0 1.88h-.94v5.75h.94a.94.94 0 0 1 0 1.87h-.94v5.63h.94a.94.94 0 0 1 0 1.87h-.94v.94c0 .51.42.94.94.94h2.81zm18.88.93a.94.94 0 0 0-.94-.94H41.38v28.25h16.06c.51 0 .94-.42.94-.93V426.8zM62.12 441h-1.87v3.75h1.88zm0-5.75h-1.87v3.88h1.88zm0-5.63h-1.87v3.75h1.88z"/><path id="vp2bb" d="M54.63 438.06v3.88c0 .52-.42.94-.94.94h-7.5a.94.94 0 0 1-.94-.94v-3.88c0-1.61.82-3.04 2.07-3.88a3.74 3.74 0 0 1 2.62-6.43 3.75 3.75 0 0 1 2.62 6.43 4.69 4.69 0 0 1 2.07 3.88zm-6.57-6.56a1.88 1.88 0 1 0 3.76 0 1.88 1.88 0 0 0-3.76 0zm4.69 6.56a2.82 2.82 0 0 0-5.63 0V441h5.63z"/><path id="vp2bc" d="M51.82 446.63h-3.75a.94.94 0 0 0 0 1.88h3.75a.94.94 0 0 0 0-1.88z"/><path id="vp2bd" d="M53.69 450.38h-7.5a.94.94 0 0 0 0 1.88h7.5a.94.94 0 0 0 0-1.88z"/></defs><g><g transform="translate(-31 -423)"><g><use fill="#fff" xlink:href="#vp2ba"/><use fill="#fff" fill-opacity="0" stroke="#17191a" stroke-miterlimit="50" stroke-width=".3" xlink:href="#vp2ba"/></g><g><use fill="#fff" xlink:href="#vp2bb"/><use fill="#fff" fill-opacity="0" stroke="#17191a" stroke-miterlimit="50" stroke-width=".3" xlink:href="#vp2bb"/></g><g><use fill="#fff" xlink:href="#vp2bc"/><use fill="#fff" fill-opacity="0" stroke="#17191a" stroke-miterlimit="50" stroke-width=".3" xlink:href="#vp2bc"/></g><g><use fill="#fff" xlink:href="#vp2bd"/><use fill="#fff" fill-opacity="0" stroke="#17191a" stroke-miterlimit="50" stroke-width=".3" xlink:href="#vp2bd"/></g></g></g></svg>