<svg xmlns="http://www.w3.org/2000/svg" xmlns:xlink="http://www.w3.org/1999/xlink" width="30" height="34" viewBox="0 0 30 34"><defs><path id="a" d="M58.99 387.23l-3 4.29-2.11-1.73a.55.55 0 0 0-.76.07.53.53 0 0 0 .08.75l2.56 2.1c.1.08.22.12.34.12l.07-.01c.15-.02.28-.1.37-.22l3.33-4.76a.52.52 0 0 0-.14-.74.53.53 0 0 0-.74.13z"/><path id="b" d="M62.46 390.07a6.95 6.95 0 0 1-10.65 5.86H33.54a.54.54 0 0 1-.54-.53v-26.67c0-.29.24-.53.54-.53h4.28v-1.07c0-.29.24-.53.54-.53h3.21v-1.07c0-.29.24-.53.54-.53h4.82c.29 0 .53.24.53.53v1.07h3.22c.29 0 .53.24.53.53v1.07h4.29c.3 0 .54.24.54.53v14.43a6.94 6.94 0 0 1 6.42 6.91zM42.64 368.2h3.75v-2.13h-3.75zm-3.75 1.6h11.25v-2.13h-2.68v1.06c0 .3-.24.54-.53.54h-4.82a.54.54 0 0 1-.54-.54v-1.06h-2.68zm-4.82 25.07h16.41l-.25-.29-.12-.14a2.88 2.88 0 0 1-.3-.39l-.1-.14-.25-.41-.1-.17a4.9 4.9 0 0 1-.29-.61 4.26 4.26 0 0 1-.23-.63l-.1-.38-.07-.28-.06-.42-.04-.25a7.96 7.96 0 0 1 0-1.39l.04-.22.06-.45.07-.26.1-.39.09-.27.13-.35.13-.27a4.98 4.98 0 0 1 .66-1.13l.22-.29.19-.23.24-.25.21-.22.26-.23.24-.19.28-.21.25-.17.3-.18.27-.15.32-.15.28-.12.34-.13.29-.09.35-.09.31-.07.36-.06.31-.04.09-.01v-13.88h-3.75v1.06c0 .3-.24.54-.53.54H38.36a.54.54 0 0 1-.54-.54v-1.06h-3.75zm27.32-4.8a5.88 5.88 0 1 0-11.74.67l.03.2c.02.16.05.31.09.46l.05.23.14.42.08.21c.06.16.14.31.21.47l.07.13c.1.18.21.36.33.53l.15.2.25.31.18.2.31.3.17.15a5.81 5.81 0 0 0 3.79 1.38 5.88 5.88 0 0 0 5.89-5.86z"/><path id="c" d="M36.54 375.07h6.96a.54.54 0 0 0 0-1.07h-6.96a.54.54 0 1 0 0 1.07z"/><path id="d" d="M43.5 390h-6.96a.54.54 0 1 0 0 1.07h6.96a.54.54 0 0 0 0-1.07z"/><path id="e" d="M36.54 378.07h15.53a.54.54 0 0 0 0-1.07H36.54a.54.54 0 1 0 0 1.07z"/><path id="f" d="M36.54 384.07h12.85a.54.54 0 0 0 0-1.07H36.54a.54.54 0 1 0 0 1.07z"/><path id="g" d="M46.71 386H36.54a.54.54 0 1 0 0 1.07h10.17a.54.54 0 0 0 0-1.07z"/><path id="h" d="M36.54 381.07h7.5a.54.54 0 0 0 0-1.07h-7.5a.54.54 0 1 0 0 1.07z"/><path id="i" d="M52.29 380h-3.75a.54.54 0 1 0 0 1.07h3.75a.54.54 0 0 0 0-1.07z"/><path id="j" d="M46.16 380.15a.5.5 0 0 0-.16.37c0 .14.05.28.16.38.1.1.24.16.38.16s.27-.06.38-.16c.09-.1.15-.24.15-.38a.58.58 0 0 0-.15-.37.56.56 0 0 0-.76 0z"/></defs><g transform="translate(-33 -364)"><use fill="#fff" xlink:href="#a"/><use fill="#fff" fill-opacity="0" stroke="#fff" stroke-miterlimit="50" stroke-width=".25" xlink:href="#a"/></g><g transform="translate(-33 -364)"><use fill="#fff" xlink:href="#b"/><use fill="#fff" fill-opacity="0" stroke="#fff" stroke-miterlimit="50" stroke-width=".25" xlink:href="#b"/></g><g transform="translate(-33 -364)"><use fill="#fff" xlink:href="#c"/><use fill="#fff" fill-opacity="0" stroke="#fff" stroke-miterlimit="50" stroke-width=".25" xlink:href="#c"/></g><g transform="translate(-33 -364)"><use fill="#fff" xlink:href="#d"/><use fill="#fff" fill-opacity="0" stroke="#fff" stroke-miterlimit="50" stroke-width=".25" xlink:href="#d"/></g><g transform="translate(-33 -364)"><use fill="#fff" xlink:href="#e"/><use fill="#fff" fill-opacity="0" stroke="#fff" stroke-miterlimit="50" stroke-width=".25" xlink:href="#e"/></g><g transform="translate(-33 -364)"><use fill="#fff" xlink:href="#f"/><use fill="#fff" fill-opacity="0" stroke="#fff" stroke-miterlimit="50" stroke-width=".25" xlink:href="#f"/></g><g transform="translate(-33 -364)"><use fill="#fff" xlink:href="#g"/><use fill="#fff" fill-opacity="0" stroke="#fff" stroke-miterlimit="50" stroke-width=".25" xlink:href="#g"/></g><g transform="translate(-33 -364)"><use fill="#fff" xlink:href="#h"/><use fill="#fff" fill-opacity="0" stroke="#fff" stroke-miterlimit="50" stroke-width=".25" xlink:href="#h"/></g><g transform="translate(-33 -364)"><use fill="#fff" xlink:href="#i"/><use fill="#fff" fill-opacity="0" stroke="#fff" stroke-miterlimit="50" stroke-width=".25" xlink:href="#i"/></g><g transform="translate(-33 -364)"><use fill="#fff" xlink:href="#j"/><use fill="#fff" fill-opacity="0" stroke="#fff" stroke-miterlimit="50" stroke-width=".25" xlink:href="#j"/></g></svg>