<?xml version="1.0" standalone="no"?>
<!DOCTYPE svg PUBLIC "-//W3C//DTD SVG 1.1//EN" "http://www.w3.org/Graphics/SVG/1.1/DTD/svg11.dtd" >
<svg>
<metadata>
Created by FontForge 20110222 at Wed Feb 11 07:13:34 2015
 By www-data
Copyright (c) 2012 by . All rights reserved.
</metadata>
<defs>
<font id="ALSSchlangesans-Bold" horiz-adv-x="519" >
  <font-face 
    font-family="ALS Schlange sans"
    font-weight="700"
    font-stretch="normal"
    units-per-em="1000"
    panose-1="2 0 8 6 4 0 0 2 0 4"
    ascent="800"
    descent="-200"
    x-height="478"
    cap-height="690"
    bbox="-183.412 -276.599 1176 890.824"
    underline-thickness="50"
    underline-position="-50"
    stemh="96"
    stemv="120"
    unicode-range="U+0020-FB02"
  />
<missing-glyph horiz-adv-x="240" 
 />
    <glyph glyph-name="ff" unicode="ff" horiz-adv-x="567" 
d="M60 -142v634c0 152 67 208 182 208c55 0 92 -14 120 -31c26 20 61 31 105 31c42 0 73 -6 95 -16c34 -15 46 -40 37 -67c-10 -29 -34 -34 -63 -25c-17 5 -36 12 -64 12c-43 0 -60 -29 -60 -78v-36h81c36 0 54 -14 54 -45c0 -30 -18 -46 -54 -46h-81v-541
c0 -32 -19 -58 -57 -58c-37 0 -56 26 -56 58v541h-126v-541c0 -32 -19 -58 -57 -58c-37 0 -56 26 -56 58zM299 490c0 42 3 75 13 105c-17 7 -42 14 -68 14c-57 0 -71 -38 -71 -90v-29h126z" />
    <glyph glyph-name="fi" unicode="fi" horiz-adv-x="472" 
d="M299 58v336h-126v-536c0 -32 -19 -58 -57 -58c-37 0 -56 26 -56 58v631c0 74 12 120 40 155c30 39 84 56 142 56s98 -12 120 -24c25 -15 31 -35 24 -59c-9 -29 -33 -32 -62 -26c-22 6 -47 13 -77 13c-50 0 -74 -31 -74 -80v-34h181c41 0 58 -28 58 -59v-373
c0 -32 -19 -58 -57 -58c-37 0 -56 26 -56 58z" />
    <glyph glyph-name="fl" unicode="fl" horiz-adv-x="472" 
d="M299 58v541c-14 5 -34 9 -54 9c-53 0 -72 -32 -72 -82v-36h33c36 0 54 -17 54 -48c0 -30 -18 -48 -54 -48h-33v-536c0 -32 -19 -58 -57 -58c-37 0 -56 26 -56 58v633c0 156 66 209 180 209c53 0 102 -10 131 -25c40 -21 41 -53 41 -90v-527c0 -32 -19 -58 -57 -58
c-37 0 -56 26 -56 58z" />
    <glyph glyph-name=".notdef" horiz-adv-x="240" 
 />
    <glyph glyph-name="l" unicode="l" horiz-adv-x="337" 
d="M60 154v478c0 31 19 58 56 58c38 0 57 -27 57 -58v-462c0 -56 16 -80 57 -80c19 0 41 7 53 12c25 10 52 4 61 -19c12 -30 -3 -55 -32 -71c-28 -16 -66 -22 -101 -22c-93 0 -151 47 -151 164z" />
    <glyph glyph-name="i" unicode="i" horiz-adv-x="233" 
d="M60 58v374c0 31 19 58 56 58c38 0 57 -27 57 -58v-374c0 -32 -19 -58 -57 -58c-37 0 -56 26 -56 58zM51 619c0 38 25 61 65 61c39 0 66 -23 66 -61c0 -40 -27 -61 -66 -61c-40 0 -65 21 -65 61z" />
    <glyph glyph-name="o" unicode="o" horiz-adv-x="549" 
d="M35 245c0 145 84 255 239 255s240 -111 240 -255c0 -145 -85 -255 -240 -255s-239 110 -239 255zM151 245c0 -91 42 -159 123 -159c83 0 124 68 124 159c0 90 -41 159 -124 159c-82 0 -123 -69 -123 -159z" />
    <glyph glyph-name="t" unicode="t" horiz-adv-x="337" 
d="M60 159v393c0 31 19 58 56 58c38 0 57 -27 57 -58v-62h85c36 0 54 -17 54 -48c0 -30 -18 -48 -54 -48h-85v-223c0 -56 15 -81 57 -81c19 0 41 7 53 12c25 10 50 5 60 -19c12 -30 -4 -54 -31 -70c-28 -16 -65 -23 -100 -23c-96 0 -152 50 -152 169z" />
    <glyph glyph-name="b" unicode="b" horiz-adv-x="544" 
d="M60 58v574c0 31 19 58 56 58c38 0 57 -27 57 -58v-208c29 47 75 76 146 76c126 0 190 -100 190 -240c0 -154 -69 -270 -225 -270c-57 0 -101 12 -126 26c-9 -10 -24 -16 -42 -16c-37 0 -56 26 -56 58zM296 404c-106 0 -123 -114 -123 -217v-78c28 -16 61 -23 99 -23
c90 0 121 76 121 176c0 85 -29 142 -97 142z" />
    <glyph glyph-name="c" unicode="c" horiz-adv-x="461" 
d="M420 36c-39 -31 -95 -46 -155 -46c-143 0 -230 92 -230 251c0 160 90 259 237 259c54 0 99 -9 129 -28c29 -18 36 -43 25 -67s-31 -32 -66 -21c-27 8 -48 15 -85 15c-77 0 -124 -60 -124 -158c0 -95 51 -150 125 -150c37 0 66 13 96 28c33 16 56 10 68 -10
c14 -23 7 -51 -20 -73z" />
    <glyph glyph-name="f" unicode="f" horiz-adv-x="332" 
d="M60 -142v636c0 69 9 117 36 151c28 35 77 55 134 55c48 0 88 -10 109 -23c25 -15 35 -35 26 -60c-10 -29 -34 -32 -64 -24c-17 5 -40 11 -66 11c-43 0 -62 -29 -62 -78v-36h85c36 0 54 -17 54 -48c0 -30 -18 -48 -54 -48h-85v-536c0 -32 -19 -58 -57 -58
c-37 0 -56 26 -56 58z" />
    <glyph glyph-name="k" unicode="k" horiz-adv-x="462" 
d="M60 58v574c0 31 18 58 55 58c38 0 56 -27 56 -58v-365l170 194c30 34 60 37 84 14c20 -20 17 -50 -8 -77l-141 -150l158 -150c25 -24 29 -58 9 -79c-27 -29 -59 -21 -87 8l-185 188v-157c0 -32 -18 -58 -56 -58c-37 0 -55 26 -55 58z" />
    <glyph glyph-name="afii10080" unicode="&#x43e;" horiz-adv-x="549" 
d="M35 245c0 145 84 255 239 255s240 -111 240 -255c0 -145 -85 -255 -240 -255s-239 110 -239 255zM151 245c0 -91 42 -159 123 -159c83 0 124 68 124 159c0 90 -41 159 -124 159c-82 0 -123 -69 -123 -159z" />
    <glyph glyph-name="afii10079" unicode="&#x43d;" horiz-adv-x="550" 
d="M377 58v145h-204v-145c0 -32 -19 -58 -57 -58c-37 0 -56 26 -56 58v374c0 31 19 58 56 58c38 0 57 -27 57 -58v-129h204v129c0 31 19 58 56 58c38 0 57 -27 57 -58v-374c0 -32 -19 -58 -57 -58c-37 0 -56 26 -56 58z" />
    <glyph glyph-name="afii10081" unicode="&#x43f;" horiz-adv-x="538" 
d="M365 58v332h-192v-332c0 -32 -19 -58 -57 -58c-37 0 -56 26 -56 58v374c0 31 20 58 56 58h305c37 0 57 -27 57 -58v-374c0 -32 -19 -58 -57 -58c-37 0 -56 26 -56 58z" />
    <glyph glyph-name="afii10068" unicode="&#x433;" horiz-adv-x="390" 
d="M116 490h224c36 0 54 -20 54 -51c0 -30 -18 -49 -54 -49h-167v-332c0 -32 -19 -58 -57 -58c-37 0 -56 26 -56 58v374c0 31 20 58 56 58z" />
    <glyph glyph-name="afii10084" unicode="&#x442;" horiz-adv-x="439" 
d="M49 490h340c36 0 54 -20 54 -51c0 -30 -18 -49 -54 -49h-111v-331c0 -34 -21 -59 -59 -59c-37 0 -59 25 -59 59v331h-111c-35 0 -53 19 -53 49c0 31 18 51 53 51z" />
    <glyph glyph-name="afii10090" unicode="&#x448;" horiz-adv-x="743" 
d="M60 59v373c0 31 18 58 55 58c38 0 56 -27 56 -58v-336h145v336c0 31 18 58 55 58c38 0 56 -27 56 -58v-336h145v336c0 31 18 58 55 58c38 0 56 -27 56 -58v-373c0 -33 -19 -59 -58 -59h-509c-36 0 -56 24 -56 59z" />
    <glyph glyph-name="afii10031" unicode="&#x41d;" horiz-adv-x="708" 
d="M513 61v238h-318v-238c0 -34 -21 -61 -60 -61c-40 0 -60 27 -60 61v567c0 34 20 62 60 62c39 0 60 -28 60 -62v-222h318v222c0 34 20 62 60 62c39 0 60 -28 60 -62v-567c0 -34 -21 -61 -60 -61c-40 0 -60 27 -60 61z" />
    <glyph glyph-name="afii10088" unicode="&#x446;" horiz-adv-x="569" 
d="M364 100v332c0 32 19 58 56 58c38 0 57 -26 57 -58v-332h19c33 0 48 -24 48 -52v-110c0 -30 -14 -54 -48 -54s-49 24 -49 54v62h-331c-36 0 -56 27 -56 58v374c0 32 19 58 56 58c38 0 57 -26 57 -58v-332h191z" />
    <glyph glyph-name="afii10091" unicode="&#x449;" horiz-adv-x="775" 
d="M116 0c-36 0 -56 24 -56 59v373c0 31 18 58 55 58c38 0 56 -27 56 -58v-336h145v336c0 31 18 58 55 58c38 0 56 -27 56 -58v-336h145v336c0 31 18 58 55 58c38 0 56 -27 56 -58v-336h19c33 0 48 -24 48 -52v-106c0 -30 -14 -54 -48 -54s-49 24 -49 54v62h-537z" />
    <glyph glyph-name="afii10020" unicode="&#x413;" horiz-adv-x="494" 
d="M75 61v567c0 34 20 62 60 62h297c35 0 57 -21 57 -54c0 -32 -22 -53 -57 -53h-237v-522c0 -34 -21 -61 -60 -61c-40 0 -60 27 -60 61z" />
    <glyph glyph-name="E" unicode="E" horiz-adv-x="561" 
d="M75 62v566c0 34 21 62 61 62h338c35 0 57 -21 57 -54c0 -32 -22 -53 -57 -53h-279v-175h223c36 0 58 -20 58 -53c0 -32 -22 -54 -58 -54h-223v-194h289c35 0 57 -21 57 -54c0 -32 -22 -53 -57 -53h-347c-40 0 -62 27 -62 62z" />
    <glyph glyph-name="F" unicode="F" horiz-adv-x="532" 
d="M75 61v567c0 34 20 62 60 62h320c35 0 57 -21 57 -54c0 -32 -22 -53 -57 -53h-260v-174h208c35 0 57 -20 57 -53c0 -32 -22 -54 -57 -54h-208v-241c0 -34 -21 -61 -60 -61c-40 0 -60 27 -60 61z" />
    <glyph glyph-name="afii10022" unicode="&#x415;" horiz-adv-x="561" 
d="M75 62v566c0 34 21 62 61 62h338c35 0 57 -21 57 -54c0 -32 -22 -53 -57 -53h-279v-175h223c36 0 58 -20 58 -53c0 -32 -22 -54 -58 -54h-223v-194h289c35 0 57 -21 57 -54c0 -32 -22 -53 -57 -53h-347c-40 0 -62 27 -62 62z" />
    <glyph glyph-name="T" unicode="T" horiz-adv-x="599" 
d="M62 690h474c36 0 58 -20 58 -53c0 -32 -22 -54 -58 -54h-177v-522c0 -34 -20 -61 -60 -61s-60 27 -60 61v522h-177c-35 0 -57 22 -57 54c0 33 22 53 57 53z" />
    <glyph glyph-name="afii10036" unicode="&#x422;" horiz-adv-x="599" 
d="M62 690h474c36 0 58 -20 58 -53c0 -32 -22 -54 -58 -54h-177v-522c0 -34 -20 -61 -60 -61s-60 27 -60 61v522h-177c-35 0 -57 22 -57 54c0 33 22 53 57 53z" />
    <glyph glyph-name="afii10033" unicode="&#x41f;" horiz-adv-x="686" 
d="M75 61v567c0 34 20 62 59 62h417c40 0 60 -28 60 -62v-567c0 -34 -20 -61 -60 -61s-60 27 -60 61v522h-296v-522c0 -34 -21 -61 -60 -61c-40 0 -60 27 -60 61z" />
    <glyph glyph-name="afii10040" unicode="&#x426;" horiz-adv-x="730" 
d="M606 628v-521h35c37 0 54 -27 54 -59v-133c0 -34 -17 -61 -56 -61s-57 27 -57 61v85h-448c-38 0 -59 26 -59 61v567c0 35 20 62 59 62c40 0 61 -27 61 -62v-521h291v521c0 35 20 62 60 62c39 0 60 -27 60 -62z" />
    <glyph glyph-name="afii10043" unicode="&#x429;" horiz-adv-x="970" 
d="M846 628v-521h35c37 0 54 -27 54 -59v-133c0 -34 -17 -61 -56 -61s-57 27 -57 61v85h-688c-38 0 -59 26 -59 61v567c0 35 20 62 59 62c40 0 61 -27 61 -62v-521h205v521c0 35 20 62 60 62s60 -27 60 -62v-521h206v521c0 35 20 62 60 62c39 0 60 -27 60 -62z" />
    <glyph glyph-name="afii10042" unicode="&#x428;" horiz-adv-x="921" 
d="M846 628v-566c0 -35 -20 -62 -62 -62h-650c-38 0 -59 26 -59 61v567c0 35 20 62 59 62c40 0 61 -27 61 -62v-521h205v521c0 35 20 62 60 62s60 -27 60 -62v-521h206v521c0 35 20 62 60 62c39 0 60 -27 60 -62z" />
    <glyph glyph-name="u" unicode="u" horiz-adv-x="552" 
d="M492 432v-374c0 -31 -19 -58 -56 -58c-38 0 -57 27 -57 58v15c-30 -57 -89 -83 -148 -83c-130 0 -171 81 -171 214v228c0 32 19 58 57 58c37 0 56 -26 56 -58v-230c0 -66 21 -112 85 -112c97 0 119 101 121 213v129c0 32 19 58 57 58c37 0 56 -26 56 -58z" />
    <glyph glyph-name="d" unicode="d" horiz-adv-x="544" 
d="M484 632v-574c0 -31 -19 -58 -56 -58c-38 0 -57 27 -57 58v8c-28 -47 -75 -76 -146 -76c-126 0 -190 100 -190 240c0 154 69 270 225 270c47 0 86 -9 111 -19v151c0 32 19 58 57 58c37 0 56 -26 56 -58zM248 86c106 0 123 114 123 217v78c-28 16 -61 23 -99 23
c-90 0 -121 -76 -121 -176c0 -85 29 -142 97 -142z" />
    <glyph glyph-name="j" unicode="j" horiz-adv-x="237" 
d="M64 -23v455c0 31 20 58 57 58s56 -27 56 -58v-466c0 -112 -47 -176 -155 -176c-34 0 -77 6 -103 19c-29 14 -41 38 -32 66c9 29 32 31 57 26c22 -5 40 -10 61 -10c50 0 59 33 59 86zM55 619c0 38 25 61 65 61c39 0 66 -23 66 -61c0 -40 -27 -61 -66 -61
c-40 0 -65 21 -65 61z" />
    <glyph glyph-name="afii10065" unicode="&#x430;" horiz-adv-x="503" 
d="M335 58v18c-27 -47 -77 -86 -160 -86c-101 0 -160 58 -160 147c0 122 105 164 215 164c48 0 87 -4 105 -7v11c0 54 -15 101 -102 101c-46 0 -74 -12 -118 -25c-24 -7 -49 -1 -57 23s2 44 25 59c36 24 100 37 163 37c137 0 197 -70 197 -186v-256c0 -32 -16 -58 -54 -58
c-37 0 -54 26 -54 58zM205 78c85 0 130 67 130 130v17c-26 4 -52 5 -89 5c-71 0 -120 -24 -120 -84c0 -40 29 -68 79 -68z" />
    <glyph glyph-name="afii10083" unicode="&#x441;" horiz-adv-x="461" 
d="M420 36c-39 -31 -95 -46 -155 -46c-143 0 -230 92 -230 251c0 160 90 259 237 259c54 0 99 -9 129 -28c29 -18 36 -43 25 -67s-31 -32 -66 -21c-27 8 -48 15 -85 15c-77 0 -124 -60 -124 -158c0 -95 51 -150 125 -150c37 0 66 13 96 28c33 16 56 10 68 -10
c14 -23 7 -51 -20 -73z" />
    <glyph glyph-name="afii10076" unicode="&#x43a;" horiz-adv-x="463" 
d="M60 58v374c0 31 18 58 55 58c38 0 56 -27 56 -58v-164l170 193c30 34 60 37 84 14c20 -20 17 -50 -8 -77l-142 -151l159 -149c25 -24 29 -58 9 -79c-27 -29 -59 -21 -87 8l-185 188v-157c0 -32 -18 -58 -56 -58c-37 0 -55 26 -55 58z" />
    <glyph glyph-name="afii10072" unicode="&#x436;" horiz-adv-x="643" 
d="M273 58v160l-169 -191c-27 -30 -60 -37 -86 -8c-19 21 -13 53 12 79l145 150l-134 151c-24 28 -24 56 -4 76c23 23 54 19 81 -15l155 -192v164c0 31 12 58 49 58s49 -27 49 -58v-165l155 192c28 35 59 37 80 15c20 -20 17 -47 -7 -75l-129 -148l145 -155
c24 -25 29 -56 10 -78c-23 -26 -56 -23 -83 7l-171 193v-160c0 -32 -12 -58 -49 -58s-49 26 -49 58z" />
    <glyph glyph-name="k.alt" horiz-adv-x="476" 
d="M60 58v574c0 31 19 58 56 58c38 0 57 -27 57 -58v-192c31 40 70 60 132 60c72 0 122 -51 122 -125c0 -71 -42 -123 -91 -151l97 -132c22 -29 21 -64 -3 -80c-31 -21 -62 -11 -85 25l-102 155c-21 -4 -49 -6 -70 -6v-128c0 -32 -19 -58 -57 -58c-37 0 -56 26 -56 58z
M271 410c-52 0 -98 -39 -98 -115v-31c96 0 147 41 147 97c0 24 -14 49 -49 49z" />
    <glyph glyph-name="afii10085" unicode="&#x443;" horiz-adv-x="465" 
d="M191 0l-170 401c-14 32 -10 70 26 84c39 15 65 -5 79 -41l117 -310l103 306c13 41 38 59 74 46c36 -12 33 -48 22 -78l-156 -413c-59 -157 -104 -205 -190 -205c-22 0 -57 5 -81 18c-30 17 -43 43 -31 70s35 27 59 20c16 -5 33 -12 54 -12c47 0 70 50 94 114z" />
    <glyph glyph-name="z" unicode="z" horiz-adv-x="453" 
d="M91 490h274c62 0 72 -54 41 -93l-242 -301h213c35 0 53 -17 53 -48c0 -30 -18 -48 -53 -48h-296c-57 0 -69 53 -39 92l246 302h-197c-35 0 -53 18 -53 48c0 31 18 48 53 48z" />
    <glyph glyph-name="r" unicode="r" horiz-adv-x="367" 
d="M60 58v374c0 31 19 58 56 58c38 0 57 -28 57 -54c21 38 61 64 105 64c83 0 107 -52 91 -89c-11 -25 -34 -32 -63 -22c-15 5 -30 9 -47 9c-59 0 -86 -54 -86 -171v-169c0 -32 -19 -58 -57 -58c-37 0 -56 26 -56 58z" />
    <glyph glyph-name="e" unicode="e" horiz-adv-x="506" 
d="M402 204h-255c3 -76 53 -123 130 -123c43 0 75 13 106 26c32 13 51 5 62 -14c11 -21 5 -47 -21 -64c-43 -29 -101 -39 -158 -39c-150 0 -231 92 -231 253c0 155 89 257 233 257c131 0 205 -82 205 -199c0 -14 -2 -36 -5 -47c-9 -33 -26 -50 -66 -50zM268 409
c-71 0 -114 -45 -121 -126h221c1 10 1 16 1 25c0 57 -32 101 -101 101z" />
    <glyph glyph-name="g" unicode="g" horiz-adv-x="513" 
d="M50 331c0 100 69 169 200 169c29 0 55 -4 78 -10h138c31 0 46 -13 46 -40c0 -25 -15 -39 -46 -39h-35c12 -24 20 -51 20 -80c0 -97 -69 -167 -201 -167c-37 0 -68 5 -95 15c-17 -11 -27 -27 -27 -41c0 -28 32 -45 153 -50c123 -5 210 -33 210 -127
c0 -98 -84 -171 -251 -171c-175 0 -225 72 -225 141c0 45 26 85 72 111c-33 18 -47 51 -47 79c0 38 22 70 54 96c-29 29 -44 68 -44 114zM249 4c-30 2 -55 5 -78 9c-32 -15 -54 -38 -54 -69c0 -32 31 -67 122 -67c104 0 144 35 144 75c0 34 -36 45 -134 52zM151 331
c0 -48 36 -81 99 -81s99 33 99 81c0 49 -36 83 -99 83s-99 -34 -99 -83z" />
    <glyph glyph-name="x" unicode="x" horiz-adv-x="464" 
d="M135 458l99 -133l105 134c18 26 50 43 78 19c26 -22 15 -53 -5 -78l-115 -142l134 -163c23 -28 23 -61 -2 -82c-28 -23 -60 -15 -85 18l-119 149l-113 -149c-20 -26 -51 -45 -83 -17c-23 21 -14 54 6 78l129 156l-115 143c-22 27 -29 61 0 86s65 11 86 -19z" />
    <glyph glyph-name="afii10087" unicode="&#x445;" horiz-adv-x="464" 
d="M135 458l99 -133l105 134c18 26 50 43 78 19c26 -22 15 -53 -5 -78l-115 -142l134 -163c23 -28 23 -61 -2 -82c-28 -23 -60 -15 -85 18l-119 149l-113 -149c-20 -26 -51 -45 -83 -17c-23 21 -14 54 6 78l129 156l-115 143c-22 27 -29 61 0 86s65 11 86 -19z" />
    <glyph glyph-name="s" unicode="s" horiz-adv-x="433" 
d="M219 500c58 0 110 -14 143 -33c32 -18 38 -43 28 -66c-11 -24 -31 -29 -63 -19c-28 11 -67 27 -104 27c-46 0 -67 -17 -67 -45c0 -92 252 -52 252 -222c0 -95 -63 -152 -198 -152c-51 0 -116 12 -156 38c-27 19 -36 42 -23 69c15 31 47 24 73 12c38 -17 79 -28 116 -28
c50 0 74 17 74 51c0 95 -252 51 -252 228c0 93 72 140 177 140z" />
    <glyph glyph-name="a" unicode="a" horiz-adv-x="503" 
d="M335 58v18c-27 -47 -77 -86 -160 -86c-101 0 -160 58 -160 147c0 122 105 164 215 164c48 0 87 -4 105 -7v11c0 54 -15 101 -102 101c-46 0 -74 -12 -118 -25c-24 -7 -49 -1 -57 23s2 44 25 59c36 24 100 37 163 37c137 0 197 -70 197 -186v-256c0 -32 -16 -58 -54 -58
c-37 0 -54 26 -54 58zM205 78c85 0 130 67 130 130v17c-26 4 -52 5 -89 5c-71 0 -120 -24 -120 -84c0 -40 29 -68 79 -68z" />
    <glyph glyph-name="n" unicode="n" horiz-adv-x="552" 
d="M60 58v374c0 31 19 58 56 58c38 0 57 -27 57 -58v-15c30 57 89 83 148 83c130 0 171 -81 171 -214v-228c0 -32 -19 -58 -57 -58c-37 0 -56 26 -56 58v230c0 66 -21 112 -85 112c-97 0 -119 -101 -121 -213v-129c0 -32 -19 -58 -57 -58c-37 0 -56 26 -56 58z" />
    <glyph glyph-name="p" unicode="p" horiz-adv-x="544" 
d="M60 -142v574c0 31 19 58 56 58c38 0 57 -27 57 -58v-8c28 47 75 76 146 76c126 0 190 -100 190 -240c0 -154 -69 -270 -225 -270c-47 0 -86 9 -111 19v-151c0 -32 -19 -58 -57 -58c-37 0 -56 26 -56 58zM296 404c-106 0 -123 -114 -123 -217v-78c28 -16 63 -23 99 -23
c90 0 121 76 121 176c0 85 -29 142 -97 142z" />
    <glyph glyph-name="q" unicode="q" horiz-adv-x="544" 
d="M484 432v-574c0 -31 -19 -58 -56 -58c-38 0 -57 27 -57 58v208c-28 -47 -75 -76 -146 -76c-126 0 -190 100 -190 240c0 154 69 270 225 270c57 0 101 -12 126 -26c9 10 24 16 42 16c37 0 56 -26 56 -58zM248 86c106 0 123 114 123 217v78c-28 16 -61 23 -99 23
c-90 0 -121 -76 -121 -176c0 -85 29 -142 97 -142z" />
    <glyph glyph-name="m" unicode="m" horiz-adv-x="833" 
d="M361 58v212c0 77 -7 134 -73 134c-96 0 -116 -111 -117 -213v-133c0 -32 -18 -58 -56 -58c-37 0 -55 26 -55 58v374c0 31 18 58 55 58c38 0 56 -27 56 -58v-16c31 53 81 84 152 84c65 0 114 -34 132 -97c29 62 92 97 162 97c122 0 156 -81 156 -211v-231
c0 -32 -18 -58 -56 -58c-37 0 -55 26 -55 58v234c0 66 -12 112 -73 112c-100 0 -117 -118 -117 -222v-124c0 -32 -18 -58 -56 -58c-37 0 -55 26 -55 58z" />
    <glyph glyph-name="afii10082" unicode="&#x440;" horiz-adv-x="544" 
d="M60 -142v574c0 31 19 58 56 58c38 0 57 -27 57 -58v-8c28 47 75 76 146 76c126 0 190 -100 190 -240c0 -154 -69 -270 -225 -270c-47 0 -86 9 -111 19v-151c0 -32 -19 -58 -57 -58c-37 0 -56 26 -56 58zM296 404c-106 0 -123 -114 -123 -217v-78c28 -16 63 -23 99 -23
c90 0 121 76 121 176c0 85 -29 142 -97 142z" />
    <glyph glyph-name="v" unicode="v" horiz-adv-x="466" 
d="M442 408l-155 -372c-10 -24 -22 -46 -53 -46c-25 0 -41 15 -53 43l-157 367c-14 30 -11 71 25 85c35 14 63 -4 76 -40l110 -288l111 285c15 42 41 56 74 43c34 -13 35 -48 22 -77z" />
    <glyph glyph-name="w" unicode="w" horiz-adv-x="652" 
d="M631 410l-111 -359c-11 -35 -24 -61 -62 -61c-33 0 -48 20 -60 55l-73 226l-68 -223c-11 -36 -26 -58 -61 -58c-37 0 -49 25 -60 59l-113 342c-11 34 -16 81 26 95c41 14 64 -9 81 -66l78 -262l71 225c8 25 22 44 49 44c29 0 41 -19 50 -44l77 -227l78 277
c12 43 31 65 69 55c35 -9 41 -39 29 -78z" />
    <glyph glyph-name="space" unicode=" " horiz-adv-x="240" 
 />
    <glyph glyph-name="a.alt" horiz-adv-x="544" 
d="M484 432v-374c0 -31 -19 -58 -56 -58c-38 0 -57 27 -57 58v8c-28 -47 -75 -76 -146 -76c-126 0 -190 100 -190 240c0 154 69 270 225 270c57 0 101 -12 126 -26c9 10 24 16 42 16c37 0 56 -26 56 -58zM248 86c106 0 123 114 123 217v78c-28 16 -61 23 -99 23
c-90 0 -121 -76 -121 -176c0 -85 29 -142 97 -142z" />
    <glyph glyph-name="afii10096" unicode="&#x44e;" horiz-adv-x="730" 
d="M60 58v374c0 31 18 58 55 58c38 0 56 -27 56 -58v-136h72c15 118 87 204 224 204c155 0 228 -111 228 -255c0 -145 -73 -255 -228 -255c-139 0 -212 89 -225 210h-71v-142c0 -32 -18 -58 -56 -58c-37 0 -55 26 -55 58zM351 245c0 -91 35 -159 115 -159
c81 0 114 68 114 159c0 90 -33 159 -114 159s-115 -69 -115 -159z" />
    <glyph glyph-name="afii10089" unicode="&#x447;" horiz-adv-x="478" 
d="M305 58v124c-28 -17 -74 -31 -112 -31c-106 0 -168 43 -168 194v87c0 31 19 58 56 58c38 0 57 -27 57 -58v-70c0 -70 13 -115 75 -115c34 0 66 10 92 28v157c0 31 19 58 56 58c38 0 57 -27 57 -58v-374c0 -32 -19 -58 -57 -58c-37 0 -56 26 -56 58z" />
    <glyph glyph-name="g.alt.2" horiz-adv-x="544" 
d="M484 432v-344c0 -166 -31 -298 -225 -298c-36 0 -96 5 -134 25c-30 15 -49 39 -40 72s37 35 63 28c34 -10 69 -19 100 -19c108 0 123 56 123 170c-28 -49 -75 -76 -146 -76c-126 0 -190 100 -190 240c0 154 69 270 225 270c57 0 101 -12 126 -26c9 10 24 16 42 16
c37 0 56 -26 56 -58zM248 86c106 0 123 114 123 217v78c-28 16 -61 23 -99 23c-90 0 -121 -76 -121 -176c0 -85 29 -142 97 -142z" />
    <glyph glyph-name="afii10070" unicode="&#x435;" horiz-adv-x="506" 
d="M402 204h-255c3 -76 53 -123 130 -123c43 0 75 13 106 26c32 13 51 5 62 -14c11 -21 5 -47 -21 -64c-43 -29 -101 -39 -158 -39c-150 0 -231 92 -231 253c0 155 89 257 233 257c131 0 205 -82 205 -199c0 -14 -2 -36 -5 -47c-9 -33 -26 -50 -66 -50zM268 409
c-71 0 -114 -45 -121 -126h221c1 10 1 16 1 25c0 57 -32 101 -101 101z" />
    <glyph glyph-name="afii10095" unicode="&#x44d;" horiz-adv-x="483" 
d="M158 288h170c-6 70 -46 116 -121 116c-35 0 -64 -7 -96 -19c-33 -12 -55 -6 -66 15c-13 25 0 51 25 66c41 24 97 34 154 34c147 0 224 -106 224 -251c0 -154 -82 -259 -239 -259c-55 0 -115 9 -151 33c-25 16 -33 40 -24 64c9 23 32 30 63 20c29 -10 64 -21 105 -21
c79 0 122 47 126 122h-170c-35 0 -49 14 -49 40s14 40 49 40z" />
    <glyph glyph-name="K" unicode="K" horiz-adv-x="571" 
d="M75 61v567c0 34 20 62 60 62c39 0 60 -28 60 -62v-252l245 281c27 31 59 45 89 18c28 -25 18 -63 -7 -89l-213 -230l228 -241c29 -30 39 -70 12 -96c-32 -31 -67 -19 -97 13l-257 283v-254c0 -34 -21 -61 -60 -61c-40 0 -60 27 -60 61z" />
    <glyph glyph-name="afii10028" unicode="&#x41a;" horiz-adv-x="571" 
d="M75 61v567c0 34 20 62 60 62c39 0 60 -28 60 -62v-252l245 281c27 31 59 45 89 18c28 -25 18 -63 -7 -89l-213 -230l228 -241c29 -30 39 -70 12 -96c-32 -31 -67 -19 -97 13l-257 283v-254c0 -34 -21 -61 -60 -61c-40 0 -60 27 -60 61z" />
    <glyph glyph-name="afii10024" unicode="&#x416;" horiz-adv-x="840" 
d="M364 61v262l-246 -289c-28 -32 -64 -47 -96 -15c-26 26 -16 62 6 86l227 245l-201 238c-22 25 -30 63 -5 87c27 26 64 18 94 -21l221 -281v255c0 34 16 62 56 62c39 0 56 -28 56 -62v-258l223 283c30 39 63 47 91 22c26 -24 16 -58 -5 -84l-199 -237l226 -248
c22 -25 31 -64 7 -88c-29 -29 -66 -22 -93 11l-250 295v-263c0 -34 -17 -61 -56 -61c-40 0 -56 27 -56 61z" />
    <glyph glyph-name="S" unicode="S" horiz-adv-x="551" 
d="M269 590c-67 0 -99 -27 -99 -72c0 -137 349 -74 349 -316c0 -123 -74 -212 -245 -212c-70 0 -137 14 -190 41c-45 24 -61 59 -43 94c16 31 47 28 86 12c52 -24 96 -37 150 -37c73 0 121 29 121 87c0 154 -349 75 -349 327c0 111 76 186 229 186c63 0 127 -15 174 -42
c39 -21 52 -51 35 -84c-19 -37 -61 -26 -95 -11c-40 17 -79 27 -123 27z" />
    <glyph glyph-name="U" unicode="U" horiz-adv-x="679" 
d="M489 276v352c0 34 17 62 57 62c39 0 58 -28 58 -62v-347c0 -157 -61 -291 -263 -291c-201 0 -266 132 -266 289v349c0 34 20 62 59 62c40 0 61 -28 61 -62v-354c0 -97 36 -177 147 -177s147 81 147 179z" />
    <glyph glyph-name="Q" unicode="Q" horiz-adv-x="747" 
d="M45 345c0 198 111 355 328 355s329 -157 329 -355c0 -111 -35 -208 -103 -273c31 -28 54 -44 79 -62c35 -25 31 -50 19 -68s-37 -23 -67 -8c-28 15 -71 45 -114 83c-41 -17 -89 -27 -143 -27c-217 0 -328 156 -328 355zM171 345c0 -139 67 -248 202 -248c22 0 43 3 61 8
c-20 26 -38 53 -49 79c-13 28 -7 55 16 67c20 10 43 7 63 -21c19 -27 33 -48 53 -72c39 45 59 112 59 187c0 138 -67 248 -203 248c-135 0 -202 -110 -202 -248z" />
    <glyph glyph-name="afii10032" unicode="&#x41e;" horiz-adv-x="747" 
d="M45 345c0 198 111 355 328 355s329 -157 329 -355c0 -199 -112 -355 -329 -355s-328 156 -328 355zM171 345c0 -139 67 -248 202 -248c136 0 203 109 203 248c0 138 -67 248 -203 248c-135 0 -202 -110 -202 -248z" />
    <glyph glyph-name="A" unicode="A" horiz-adv-x="611" 
d="M485 47l-56 148h-257l-52 -141c-12 -35 -38 -67 -82 -49c-31 13 -33 48 -20 82l225 564c13 34 33 49 61 49c31 0 48 -19 58 -43l232 -569c12 -30 8 -70 -27 -83c-38 -14 -68 4 -82 42zM298 541l-94 -252h191z" />
    <glyph glyph-name="V" unicode="V" horiz-adv-x="608" 
d="M128 639l186 -469l171 464c15 42 41 68 83 51c33 -13 36 -46 21 -83l-221 -566c-12 -31 -33 -46 -61 -46c-31 0 -46 16 -58 44l-231 560c-13 32 -12 75 27 90c39 16 67 -5 83 -45z" />
    <glyph glyph-name="W" unicode="W" horiz-adv-x="826" 
d="M533 40l-122 374l-128 -375c-11 -33 -30 -49 -57 -49c-30 0 -51 17 -60 51l-147 536c-10 38 -22 96 33 110c52 13 71 -28 83 -77l105 -420l117 355c8 27 24 52 60 52c34 0 51 -25 58 -50l115 -358l105 415c14 59 31 95 81 84c48 -11 43 -53 28 -106l-154 -541
c-10 -34 -30 -51 -58 -51c-29 0 -47 14 -59 50z" />
    <glyph glyph-name="Z" unicode="Z" horiz-adv-x="574" 
d="M85 0c-66 0 -73 61 -45 100l350 483h-293c-36 0 -58 22 -58 54c0 33 22 53 58 53h384c63 0 76 -54 46 -97l-350 -486h316c36 0 57 -21 57 -54c0 -32 -22 -53 -57 -53h-408z" />
    <glyph glyph-name="J" unicode="J" horiz-adv-x="388" 
d="M-19 97c12 28 41 30 70 19c17 -7 49 -19 73 -19c44 0 69 26 69 74v457c0 34 20 62 60 62c39 0 60 -28 60 -62v-459c0 -111 -56 -179 -170 -179c-52 0 -95 8 -125 25c-34 19 -51 48 -37 82z" />
    <glyph glyph-name="afii10017" unicode="&#x410;" horiz-adv-x="611" 
d="M485 47l-56 148h-257l-52 -141c-12 -35 -38 -67 -82 -49c-31 13 -33 48 -20 82l225 564c13 34 33 49 61 49c31 0 48 -19 58 -43l232 -569c12 -30 8 -70 -27 -83c-38 -14 -68 4 -82 42zM298 541l-94 -252h191z" />
    <glyph glyph-name="Y" unicode="Y" horiz-adv-x="566" 
d="M225 62v237l-197 282c-22 34 -30 73 6 99c37 26 72 3 94 -31l161 -242l156 242c19 30 52 56 89 31c32 -21 24 -58 5 -86l-194 -290v-242c0 -34 -21 -61 -60 -61c-40 0 -60 27 -60 61z" />
    <glyph glyph-name="N" unicode="N" horiz-adv-x="708" 
d="M522 213v415c0 33 13 62 54 62c42 0 55 -29 55 -62v-567c0 -36 -22 -61 -57 -61c-24 0 -41 14 -54 30l-334 443v-412c0 -33 -14 -61 -55 -61s-54 28 -54 61v566c0 32 14 63 56 63c26 0 46 -15 59 -33z" />
    <glyph glyph-name="afii10026" unicode="&#x418;" horiz-adv-x="708" 
d="M195 628v-419l323 447c14 19 32 34 58 34c41 0 57 -28 57 -62v-567c0 -33 -18 -61 -59 -61c-42 0 -61 28 -61 61v418l-325 -444c-13 -17 -31 -35 -56 -35c-37 0 -57 23 -57 61v567c0 33 18 62 60 62c41 0 60 -29 60 -62z" />
    <glyph glyph-name="X" unicode="X" horiz-adv-x="603" 
d="M150 655l155 -213l154 212c21 30 51 48 84 24c31 -22 23 -55 3 -83l-176 -233l197 -261c21 -29 22 -67 -7 -89c-32 -23 -66 -10 -87 19l-178 242l-168 -236c-20 -29 -51 -51 -86 -27c-30 21 -24 57 -5 83l194 262l-177 232c-20 27 -25 66 5 90c36 28 72 7 92 -22z" />
    <glyph glyph-name="afii10039" unicode="&#x425;" horiz-adv-x="603" 
d="M150 655l155 -213l154 212c21 30 51 48 84 24c31 -22 23 -55 3 -83l-176 -233l197 -261c21 -29 22 -67 -7 -89c-32 -23 -66 -10 -87 19l-178 242l-168 -236c-20 -29 -51 -51 -86 -27c-30 21 -24 57 -5 83l194 262l-177 232c-20 27 -25 66 5 90c36 28 72 7 92 -22z" />
    <glyph glyph-name="M" unicode="M" horiz-adv-x="787" 
d="M193 651l204 -322l200 323c12 19 29 38 59 38c37 0 56 -26 56 -62v-567c0 -34 -20 -61 -60 -61c-39 0 -60 27 -60 61v407l-146 -236c-12 -20 -27 -36 -55 -36c-26 0 -43 14 -56 35l-148 232v-402c0 -33 -15 -61 -56 -61s-56 28 -56 61v566c0 44 24 63 56 63
c28 0 47 -15 62 -39z" />
    <glyph glyph-name="afii10030" unicode="&#x41c;" horiz-adv-x="787" 
d="M193 651l204 -322l200 323c12 19 29 38 59 38c37 0 56 -26 56 -62v-567c0 -34 -20 -61 -60 -61c-39 0 -60 27 -60 61v407l-146 -236c-12 -20 -27 -36 -55 -36c-26 0 -43 14 -56 35l-148 232v-402c0 -33 -15 -61 -56 -61s-56 28 -56 61v566c0 44 24 63 56 63
c28 0 47 -15 62 -39z" />
    <glyph glyph-name="afii10078" unicode="&#x43c;" horiz-adv-x="611" 
d="M60 58v373c0 28 10 59 50 59c30 0 44 -16 58 -36l134 -191l144 194c13 19 30 33 56 33c27 0 49 -16 49 -59v-373c0 -32 -17 -58 -55 -58c-37 0 -54 26 -54 58v250l-78 -107c-24 -32 -43 -43 -65 -43c-23 0 -42 11 -65 41l-73 101v-242c0 -32 -13 -58 -51 -58
c-37 0 -50 26 -50 58z" />
    <glyph glyph-name="afii10074" unicode="&#x438;" horiz-adv-x="554" 
d="M381 58v253l-216 -283c-12 -16 -28 -28 -51 -28c-37 0 -54 25 -54 58v374c0 32 20 58 57 58s56 -26 56 -58v-255l212 280c14 20 30 33 55 33c38 0 54 -26 54 -58v-374c0 -33 -19 -58 -57 -58c-37 0 -56 25 -56 58z" />
    <glyph glyph-name="P" unicode="P" horiz-adv-x="579" 
d="M75 61v551c0 35 17 62 56 70c51 10 100 13 154 13c155 0 264 -62 264 -221c0 -161 -117 -234 -267 -234c-26 0 -63 1 -87 5v-184c0 -34 -21 -61 -60 -61c-40 0 -60 27 -60 61zM275 344c81 0 148 31 148 127c0 80 -51 119 -141 119c-32 0 -58 -2 -87 -6v-236
c22 -3 53 -4 80 -4z" />
    <glyph glyph-name="afii10034" unicode="&#x420;" horiz-adv-x="579" 
d="M75 61v551c0 35 17 62 56 70c51 10 100 13 154 13c155 0 264 -62 264 -221c0 -161 -117 -234 -267 -234c-26 0 -63 1 -87 5v-184c0 -34 -21 -61 -60 -61c-40 0 -60 27 -60 61zM275 344c81 0 148 31 148 127c0 80 -51 119 -141 119c-32 0 -58 -2 -87 -6v-236
c22 -3 53 -4 80 -4z" />
    <glyph glyph-name="afii10046" unicode="&#x42c;" horiz-adv-x="581" 
d="M75 76v553c0 34 20 61 60 61c39 0 60 -27 60 -61v-196c25 5 66 8 92 8c158 0 263 -53 263 -223c0 -149 -109 -223 -264 -223c-54 0 -104 1 -155 12c-40 9 -56 34 -56 69zM276 334c-27 0 -59 -3 -81 -6v-220c29 -4 56 -6 88 -6c90 0 141 38 141 118c0 92 -67 114 -148 114
z" />
    <glyph glyph-name="afii10044" unicode="&#x42a;" horiz-adv-x="679" 
d="M168 76v507h-115c-35 0 -57 21 -57 53c0 33 22 54 57 54h175c39 0 60 -27 60 -61v-196c25 5 66 8 92 8c158 0 263 -54 263 -223c0 -149 -109 -223 -264 -223c-54 0 -104 1 -155 12c-40 9 -56 34 -56 69zM369 334c-27 0 -59 -3 -81 -6v-220c29 -4 56 -6 88 -6
c90 0 141 38 141 118c0 92 -67 114 -148 114z" />
    <glyph glyph-name="afii10045" unicode="&#x42b;" horiz-adv-x="822" 
d="M75 76v553c0 34 20 61 60 61c39 0 60 -27 60 -61v-195c24 5 64 7 90 7c158 0 250 -58 250 -223c0 -145 -99 -223 -254 -223c-54 0 -99 1 -150 12c-40 9 -56 34 -56 69zM271 334c-27 0 -54 -3 -76 -6v-220c29 -4 51 -6 83 -6c90 0 131 42 131 118c0 88 -57 114 -138 114z
M627 61v567c0 34 20 62 60 62c39 0 60 -28 60 -62v-567c0 -34 -21 -61 -60 -61c-40 0 -60 27 -60 61z" />
    <glyph glyph-name="afii10018" unicode="&#x411;" horiz-adv-x="597" 
d="M134 690h314c35 0 56 -21 56 -54c0 -32 -21 -53 -56 -53h-253v-166c30 5 71 8 102 8c139 0 250 -47 250 -205c0 -148 -90 -225 -264 -225c-49 0 -105 3 -151 10c-40 6 -57 31 -57 65v559c0 33 21 61 59 61zM287 326c-31 0 -65 -2 -92 -7v-220c29 -4 54 -5 85 -5
c107 0 141 51 141 121c0 79 -56 111 -134 111z" />
    <glyph glyph-name="afii10019" unicode="&#x412;" horiz-adv-x="623" 
d="M75 70v546c0 37 17 60 57 67c47 8 102 12 161 12c145 0 252 -44 252 -181c0 -61 -34 -119 -91 -145c77 -24 124 -83 124 -162c0 -172 -138 -212 -277 -212c-48 0 -118 3 -170 11c-40 6 -56 30 -56 64zM305 308h-115v-208c40 -5 81 -6 116 -6c94 0 149 28 149 108
c0 72 -52 106 -150 106zM282 595c-34 0 -63 -2 -92 -5v-192h102c85 0 130 36 130 104s-55 93 -140 93z" />
    <glyph glyph-name="R" unicode="R" horiz-adv-x="612" 
d="M75 61v552c0 43 22 62 56 69c32 7 87 13 150 13c147 0 259 -52 259 -208c0 -97 -50 -163 -126 -189l127 -193c23 -36 21 -77 -11 -96c-38 -22 -71 0 -91 33l-142 234c-13 -2 -29 -2 -43 -2c-17 0 -39 1 -59 4v-217c0 -34 -21 -61 -60 -61c-40 0 -60 27 -60 61zM263 364
c101 0 151 33 151 116c0 79 -56 108 -143 108c-28 0 -51 -3 -76 -6v-214c23 -3 49 -4 68 -4z" />
    <glyph glyph-name="afii10049" unicode="&#x42f;" horiz-adv-x="613" 
d="M352 695c63 0 98 -5 130 -14c34 -10 56 -27 56 -70v-550c0 -34 -20 -61 -60 -61c-39 0 -60 27 -60 61v198c-16 -3 -39 -4 -55 -4c-12 0 -35 1 -49 3l-126 -212c-23 -38 -59 -61 -98 -37c-24 15 -37 51 -8 95l114 174c-73 28 -120 91 -120 190c0 146 101 227 276 227z
M346 588c-86 0 -144 -37 -144 -122c0 -90 65 -120 151 -120c20 0 44 0 65 3v235c-21 2 -43 4 -72 4z" />
    <glyph glyph-name="B" unicode="B" horiz-adv-x="623" 
d="M75 70v546c0 37 17 60 57 67c47 8 102 12 161 12c145 0 252 -44 252 -181c0 -61 -34 -119 -91 -145c77 -24 124 -83 124 -162c0 -172 -138 -212 -277 -212c-48 0 -118 3 -170 11c-40 6 -56 30 -56 64zM305 308h-115v-208c40 -5 81 -6 116 -6c94 0 149 28 149 108
c0 72 -52 106 -150 106zM282 595c-34 0 -63 -2 -92 -5v-192h102c85 0 130 36 130 104s-55 93 -140 93z" />
    <glyph glyph-name="afii10048" unicode="&#x42e;" horiz-adv-x="980" 
d="M75 61v567c0 34 20 62 60 62c39 0 60 -28 60 -62v-225h104c17 170 121 297 316 297c217 0 320 -157 320 -355c0 -199 -103 -355 -320 -355c-199 0 -303 131 -318 306h-102v-235c0 -34 -21 -61 -60 -61c-40 0 -60 27 -60 61zM421 345c0 -139 61 -248 194 -248
s194 109 194 248c0 138 -61 248 -194 248s-194 -110 -194 -248z" />
    <glyph glyph-name="afii10094" unicode="&#x44c;" horiz-adv-x="478" 
d="M228 88c63 0 105 21 105 79c0 55 -33 76 -97 76c-25 0 -47 -3 -63 -5v-147c16 -2 34 -3 55 -3zM60 69v364c0 37 26 57 56 57c32 0 57 -21 57 -58v-108c19 3 51 6 78 6c131 0 196 -59 196 -164c0 -138 -121 -171 -238 -171c-30 0 -78 3 -102 9c-36 9 -47 30 -47 65z" />
    <glyph glyph-name="afii10092" unicode="&#x44a;" horiz-adv-x="536" 
d="M118 69v321h-69c-35 0 -53 19 -53 49c0 31 18 51 53 51h125c32 0 57 -21 57 -58v-108c19 3 51 6 78 6c131 0 196 -59 196 -164c0 -138 -121 -171 -238 -171c-30 0 -78 3 -102 9c-36 9 -47 30 -47 65zM286 88c63 0 105 21 105 79c0 55 -33 76 -97 76c-25 0 -47 -3 -63 -5
v-147c16 -2 34 -3 55 -3z" />
    <glyph glyph-name="afii10093" unicode="&#x44b;" horiz-adv-x="653" 
d="M226 88c63 0 95 25 95 79c0 51 -23 76 -87 76c-25 0 -45 -3 -61 -5v-147c16 -2 32 -3 53 -3zM60 69v364c0 37 26 57 56 57c32 0 57 -21 57 -58v-108c19 3 49 6 76 6c131 0 186 -63 186 -164c0 -134 -111 -171 -228 -171c-30 0 -76 3 -100 9c-36 9 -47 30 -47 65zM480 58
v374c0 31 19 58 56 58c38 0 57 -27 57 -58v-374c0 -32 -19 -58 -57 -58c-37 0 -56 26 -56 58z" />
    <glyph glyph-name="afii10067" unicode="&#x432;" horiz-adv-x="507" 
d="M60 65v355c0 32 14 58 51 65c32 6 80 9 133 9c142 0 198 -58 198 -133c0 -46 -23 -89 -69 -107c57 -10 94 -50 94 -108c0 -99 -72 -151 -220 -151c-43 0 -95 2 -134 9c-38 6 -53 29 -53 61zM260 210h-90v-121c26 -3 53 -4 83 -4c76 0 100 27 100 66c0 36 -24 59 -93 59z
M244 404c-25 0 -51 -1 -74 -4v-119h74c68 0 89 25 89 62c0 39 -27 61 -89 61z" />
    <glyph glyph-name="afii10041" unicode="&#x427;" horiz-adv-x="606" 
d="M411 389v239c0 34 20 62 60 62s60 -28 60 -62v-567c0 -34 -20 -61 -60 -61s-60 27 -60 61v221c-44 -30 -107 -48 -160 -48c-133 0 -216 51 -216 239v155c0 33 21 62 60 62c40 0 60 -29 60 -62v-149c0 -106 36 -141 113 -141c47 0 98 20 143 51z" />
    <glyph glyph-name="C" unicode="C" horiz-adv-x="629" 
d="M368 593c-124 0 -197 -99 -197 -247c0 -160 88 -249 200 -249c55 0 98 17 142 43c33 19 61 15 76 -7c16 -24 12 -58 -23 -84c-50 -37 -116 -59 -204 -59c-215 0 -317 143 -317 355s116 355 321 355c84 0 145 -18 185 -46c30 -21 35 -49 24 -73s-36 -31 -76 -16
c-39 15 -74 28 -131 28z" />
    <glyph glyph-name="afii10035" unicode="&#x421;" horiz-adv-x="629" 
d="M368 593c-124 0 -197 -99 -197 -247c0 -160 88 -249 200 -249c55 0 98 17 142 43c33 19 61 15 76 -7c16 -24 12 -58 -23 -84c-50 -37 -116 -59 -204 -59c-215 0 -317 143 -317 355s116 355 321 355c84 0 145 -18 185 -46c30 -21 35 -49 24 -73s-36 -31 -76 -16
c-39 15 -74 28 -131 28z" />
    <glyph glyph-name="G" unicode="G" horiz-adv-x="667" 
d="M373 700c79 0 143 -17 183 -44c31 -21 38 -49 25 -73s-37 -31 -77 -16c-39 15 -79 26 -130 26c-132 0 -203 -103 -203 -250c0 -158 74 -246 205 -246c59 0 112 14 148 39v134h-113c-36 0 -53 18 -53 46c0 29 17 46 53 46h151c32 0 60 -10 60 -52v-190
c0 -29 -11 -51 -32 -66c-43 -32 -126 -64 -222 -64c-226 0 -323 142 -323 356c0 212 123 354 328 354z" />
    <glyph glyph-name="D" unicode="D" horiz-adv-x="696" 
d="M75 69v543c0 34 13 61 55 69c38 8 101 14 168 14c235 0 353 -120 353 -347c0 -214 -117 -353 -352 -353c-72 0 -121 2 -168 10c-39 7 -56 29 -56 64zM299 102c158 0 226 90 226 246c0 155 -70 240 -227 240c-40 0 -74 -3 -103 -6v-475c35 -4 62 -5 104 -5z" />
    <glyph glyph-name="zero" unicode="0" horiz-adv-x="554" 
d="M27 345c0 208 77 355 250 355s249 -147 249 -355c0 -209 -76 -355 -249 -355s-250 146 -250 355zM136 345c0 -162 49 -259 141 -259s140 97 140 259s-48 259 -140 259c-99 0 -141 -97 -141 -259z" />
    <glyph glyph-name="one" unicode="1" horiz-adv-x="554" 
d="M264 58v479l-88 -86c-19 -20 -51 -36 -75 -15c-23 20 -16 54 8 78l146 146c20 20 38 40 72 40c29 0 45 -21 45 -67v-575c0 -32 -17 -58 -55 -58c-37 0 -53 26 -53 58z" />
    <glyph glyph-name="four" unicode="4" horiz-adv-x="554" 
d="M513 258c0 -29 -16 -47 -45 -47h-35v-155c0 -31 -15 -56 -52 -56s-53 25 -53 56v155h-248c-57 0 -67 55 -38 91l289 367c12 17 27 31 51 31c37 0 51 -28 51 -59v-339h35c27 0 45 -17 45 -44zM148 302h180v225z" />
    <glyph glyph-name="seven" unicode="7" horiz-adv-x="554" 
d="M107 690h336c55 0 71 -39 48 -91l-246 -549c-16 -36 -40 -61 -79 -46c-29 11 -38 44 -20 84l226 496h-265c-39 0 -59 20 -59 53c0 34 20 53 59 53z" />
    <glyph glyph-name="afii10025" unicode="&#x417;" horiz-adv-x="580" 
d="M265 97c89 0 144 37 144 109c0 69 -53 97 -144 99h-75c-29 0 -49 17 -49 47c0 28 20 47 49 47h62c84 0 135 34 135 102c0 54 -36 92 -118 92c-41 0 -81 -10 -125 -25c-27 -9 -64 -17 -79 14c-14 29 -2 58 33 77c52 28 118 41 183 41c138 0 232 -60 232 -181
c0 -61 -31 -126 -103 -154c81 -21 125 -79 125 -156c0 -159 -125 -219 -269 -219c-70 0 -140 14 -184 37c-34 18 -51 48 -36 82s50 28 85 15c37 -14 84 -27 134 -27z" />
    <glyph glyph-name="afii10055" unicode="&#x406;" horiz-adv-x="270" 
d="M75 61v567c0 34 20 62 60 62c39 0 60 -28 60 -62v-567c0 -34 -21 -61 -60 -61c-40 0 -60 27 -60 61z" />
    <glyph glyph-name="afii10054" unicode="&#x405;" horiz-adv-x="551" 
d="M269 590c-67 0 -99 -27 -99 -72c0 -137 349 -74 349 -316c0 -123 -74 -212 -245 -212c-70 0 -137 14 -190 41c-45 24 -61 59 -43 94c16 31 47 28 86 12c52 -24 96 -37 150 -37c73 0 121 29 121 87c0 154 -349 75 -349 327c0 111 76 186 229 186c63 0 127 -15 174 -42
c39 -21 52 -51 35 -84c-19 -37 -61 -26 -95 -11c-40 17 -79 27 -123 27z" />
    <glyph glyph-name="three" unicode="3" horiz-adv-x="564" 
d="M206 324c-43 0 -59 21 -59 45c0 19 7 37 22 53l162 172h-193c-35 0 -53 18 -53 48c0 31 18 48 53 48h277c59 0 68 -57 34 -93l-177 -185c145 -7 219 -83 219 -201c0 -133 -92 -221 -239 -221c-75 0 -145 18 -181 49c-23 20 -32 48 -17 72c17 26 47 20 67 10
c52 -26 98 -35 129 -35c88 0 127 50 127 124c0 79 -59 114 -171 114z" />
    <glyph glyph-name="afii10103" unicode="&#x456;" horiz-adv-x="233" 
d="M60 58v374c0 31 19 58 56 58c38 0 57 -27 57 -58v-374c0 -32 -19 -58 -57 -58c-37 0 -56 26 -56 58zM51 619c0 38 25 61 65 61c39 0 66 -23 66 -61c0 -40 -27 -61 -66 -61c-40 0 -65 21 -65 61z" />
    <glyph glyph-name="afii10102" unicode="&#x455;" horiz-adv-x="433" 
d="M219 500c58 0 110 -14 143 -33c32 -18 38 -43 28 -66c-11 -24 -31 -29 -63 -19c-28 11 -67 27 -104 27c-46 0 -67 -17 -67 -45c0 -92 252 -52 252 -222c0 -95 -63 -152 -198 -152c-51 0 -116 12 -156 38c-27 19 -36 42 -23 69c15 31 47 24 73 12c38 -17 79 -28 116 -28
c50 0 74 17 74 51c0 95 -252 51 -252 228c0 93 72 140 177 140z" />
    <glyph glyph-name="five" unicode="5" horiz-adv-x="554" 
d="M248 -10c-75 0 -146 19 -181 49c-23 20 -32 48 -17 72c17 26 47 20 67 10c51 -25 91 -35 129 -35c83 0 129 55 129 135c0 70 -40 123 -119 123c-49 0 -81 -13 -110 -13c-33 0 -53 20 -50 58l16 230c3 44 23 71 68 71h221c39 0 60 -19 60 -53c0 -33 -21 -53 -60 -53h-196
l-11 -154c30 7 57 10 82 10c161 0 213 -116 213 -213c0 -144 -96 -237 -241 -237z" />
    <glyph glyph-name="six" unicode="6" horiz-adv-x="554" 
d="M394 592c-16 5 -44 12 -76 12c-114 0 -169 -102 -171 -223c36 48 95 74 159 74c129 0 207 -94 207 -220c0 -121 -76 -245 -233 -245c-144 0 -237 102 -237 304c0 247 79 406 278 406c65 0 104 -17 115 -23c24 -12 41 -35 31 -64c-13 -38 -48 -28 -73 -21zM153 241
c0 -73 35 -155 128 -155c81 0 123 69 123 145c0 73 -51 127 -121 127c-62 0 -130 -42 -130 -117z" />
    <glyph glyph-name="afii10021" unicode="&#x414;" horiz-adv-x="722" 
d="M574 -85v85h-446v-85c0 -34 -18 -61 -57 -61s-56 27 -56 61v133c0 32 17 59 54 59h29c55 106 70 316 75 521c1 45 24 62 57 62h308c43 0 60 -32 60 -61v-522h35c37 0 54 -27 54 -59v-133c0 -34 -17 -61 -56 -61s-57 27 -57 61zM217 107h261v476h-193
c-2 -128 -15 -341 -68 -476z" />
    <glyph glyph-name="afii10023" unicode="&#x401;" horiz-adv-x="561" 
d="M75 62v566c0 34 21 62 61 62h338c35 0 57 -21 57 -54c0 -32 -22 -53 -57 -53h-279v-175h223c36 0 58 -20 58 -53c0 -32 -22 -54 -58 -54h-223v-194h289c35 0 57 -21 57 -54c0 -32 -22 -53 -57 -53h-347c-40 0 -62 27 -62 62zM121 796c0 39 32 60 72 60
c42 0 74 -21 74 -60s-32 -58 -74 -58c-40 0 -72 19 -72 58zM329 796c0 39 31 60 73 60c41 0 73 -21 73 -60s-32 -58 -73 -58c-42 0 -73 19 -73 58z" />
    <glyph glyph-name="afii10071" unicode="&#x451;" horiz-adv-x="506" 
d="M402 204h-255c3 -76 53 -123 130 -123c43 0 75 13 106 26c32 13 51 5 62 -14c11 -21 5 -47 -21 -64c-43 -29 -101 -39 -158 -39c-150 0 -231 92 -231 253c0 155 89 257 233 257c131 0 205 -82 205 -199c0 -14 -2 -36 -5 -47c-9 -33 -26 -50 -66 -50zM268 409
c-71 0 -114 -45 -121 -126h221c1 10 1 16 1 25c0 57 -32 101 -101 101zM109 618c0 36 23 61 63 61c39 0 63 -25 63 -61c0 -38 -24 -61 -63 -61c-40 0 -63 23 -63 61zM300 618c0 36 22 61 62 61c39 0 63 -25 63 -61c0 -38 -24 -61 -63 -61c-40 0 -62 23 -62 61z" />
    <glyph glyph-name="afii10073" unicode="&#x437;" horiz-adv-x="451" 
d="M211 404c-32 0 -63 -9 -97 -22c-32 -12 -55 -7 -66 15c-11 25 -1 50 25 66c44 27 101 37 152 37c118 0 174 -57 174 -132c0 -50 -31 -97 -80 -112c54 -12 92 -52 92 -112c0 -92 -64 -154 -193 -154c-55 0 -120 9 -159 32c-26 16 -34 40 -24 65c9 23 29 30 61 20
c33 -10 73 -21 111 -21c69 0 90 31 90 63c0 44 -35 62 -99 62h-40c-34 0 -48 12 -48 38c0 28 16 39 48 39h36c56 0 91 19 91 61c0 30 -20 55 -74 55z" />
    <glyph glyph-name="y" unicode="y" horiz-adv-x="465" 
d="M191 0l-170 401c-14 32 -10 70 26 84c39 15 65 -5 79 -41l117 -310l103 306c13 41 38 59 74 46c36 -12 33 -48 22 -78l-156 -413c-59 -157 -104 -205 -190 -205c-22 0 -57 5 -81 18c-30 17 -43 43 -31 70s35 27 59 20c16 -5 33 -12 54 -12c47 0 70 50 94 114z" />
    <glyph glyph-name="afii10105" unicode="&#x458;" horiz-adv-x="237" 
d="M64 -23v455c0 31 20 58 57 58s56 -27 56 -58v-466c0 -112 -47 -176 -155 -176c-34 0 -77 6 -103 19c-29 14 -41 38 -32 66c9 29 32 31 57 26c22 -5 40 -10 61 -10c50 0 59 33 59 86zM55 619c0 38 25 61 65 61c39 0 66 -23 66 -61c0 -40 -27 -61 -66 -61
c-40 0 -65 21 -65 61z" />
    <glyph glyph-name="afii10057" unicode="&#x408;" horiz-adv-x="388" 
d="M-19 97c12 28 41 30 70 19c17 -7 49 -19 73 -19c44 0 69 26 69 74v457c0 34 20 62 60 62c39 0 60 -28 60 -62v-459c0 -111 -56 -179 -170 -179c-52 0 -95 8 -125 25c-34 19 -51 48 -37 82z" />
    <glyph glyph-name="afii10097" unicode="&#x44f;" horiz-adv-x="495" 
d="M322 58v104c-21 -2 -50 -3 -79 0l-81 -122c-24 -36 -62 -54 -96 -26c-19 16 -23 50 0 80l69 90c-50 25 -77 71 -77 144c0 64 31 166 214 166c57 0 89 -4 114 -10c40 -9 49 -33 49 -67v-359c0 -32 -19 -58 -57 -58c-37 0 -56 26 -56 58zM271 393c-63 0 -99 -21 -99 -76
c0 -50 32 -71 87 -73c19 -1 44 0 63 2v143c-15 2 -31 4 -51 4z" />
    <glyph glyph-name="afii10086" unicode="&#x444;" horiz-adv-x="674" 
d="M296 75v339h-18c-90 0 -138 -64 -138 -169s49 -170 138 -170h18zM376 414v-339h19c89 0 138 65 138 170s-48 169 -138 169h-19zM273 500h9v132c0 31 17 58 54 58c38 0 54 -26 54 -58v-132h10c143 0 241 -90 241 -255s-98 -255 -241 -255h-10v-132c0 -32 -16 -58 -54 -58
c-37 0 -54 26 -54 58v132h-9c-144 0 -240 91 -240 255c0 165 96 255 240 255z" />
    <glyph glyph-name="afii10069" unicode="&#x434;" horiz-adv-x="554" 
d="M438 0h-340v-62c0 -30 -15 -54 -49 -54s-48 24 -48 54v100c0 28 14 52 47 52h5c57 0 63 281 66 342c2 37 22 58 59 58h226c37 0 57 -25 57 -58v-342h26c33 0 48 -24 48 -52v-100c0 -30 -14 -54 -48 -54s-49 24 -49 54v62zM177 90h173v304h-133c-2 -81 -6 -213 -40 -304z
" />
    <glyph glyph-name="afii10038" unicode="&#x424;" horiz-adv-x="787" 
d="M45 364c0 175 112 271 289 271v38c0 34 20 61 60 61c39 0 60 -27 60 -61v-38c176 0 288 -96 288 -271c0 -174 -112 -270 -288 -270v-50c0 -35 -21 -62 -60 -62c-40 0 -60 27 -60 62v50c-177 0 -289 96 -289 270zM625 364c0 119 -78 178 -180 178v-354
c101 0 180 53 180 176zM163 364c0 -123 78 -176 180 -176v354c-103 0 -180 -59 -180 -178z" />
    <glyph glyph-name="nine" unicode="9" horiz-adv-x="554" 
d="M158 98c16 -5 44 -12 76 -12c114 0 169 102 171 223c-36 -48 -95 -74 -159 -74c-129 0 -207 94 -207 220c0 121 76 245 233 245c144 0 237 -102 237 -304c0 -247 -79 -406 -278 -406c-65 0 -104 17 -115 23c-24 12 -41 35 -31 64c13 38 48 28 73 21zM399 449
c0 73 -35 155 -128 155c-81 0 -123 -69 -123 -145c0 -73 51 -127 121 -127c62 0 130 42 130 117z" />
    <glyph glyph-name="afii10053" unicode="&#x404;" horiz-adv-x="634" 
d="M368 593c-110 0 -178 -76 -194 -193h273c32 0 52 -18 52 -47c0 -30 -20 -50 -52 -50h-274c14 -134 96 -206 198 -206c55 0 98 17 142 43c33 19 61 15 76 -7c16 -24 12 -58 -23 -84c-50 -37 -116 -59 -204 -59c-215 0 -317 143 -317 355s119 355 321 355
c84 0 145 -19 185 -47c30 -21 37 -48 24 -72s-36 -31 -76 -16c-39 15 -74 28 -131 28z" />
    <glyph glyph-name="afii10056" unicode="&#x407;" horiz-adv-x="270" 
d="M75 61v567c0 34 20 62 60 62c39 0 60 -28 60 -62v-567c0 -34 -21 -61 -60 -61c-40 0 -60 27 -60 61zM-42 796c0 39 32 60 72 60c42 0 74 -21 74 -60s-32 -58 -74 -58c-40 0 -72 19 -72 58zM166 796c0 39 31 60 73 60c41 0 73 -21 73 -60s-32 -58 -73 -58
c-42 0 -73 19 -73 58z" />
    <glyph glyph-name="afii10145" unicode="&#x40f;" horiz-adv-x="686" 
d="M75 62v567c0 34 20 61 60 61c39 0 60 -27 60 -61v-522h296v522c0 34 20 61 60 61s60 -27 60 -61v-567c0 -34 -20 -62 -60 -62h-152v-85c0 -34 -17 -61 -56 -61s-57 27 -57 61v85h-152c-39 0 -59 28 -59 62z" />
    <glyph glyph-name="afii10193" unicode="&#x45f;" horiz-adv-x="538" 
d="M365 100v332c0 32 19 58 56 58c38 0 57 -26 57 -58v-374c0 -31 -20 -58 -57 -58h-104v-62c0 -30 -14 -54 -48 -54s-49 24 -49 54v62h-104c-36 0 -56 27 -56 58v374c0 32 19 58 56 58c38 0 57 -26 57 -58v-332h192z" />
    <glyph glyph-name="afii10101" unicode="&#x454;" horiz-adv-x="469" 
d="M420 37c-39 -31 -95 -47 -155 -47c-143 0 -230 92 -230 251c0 160 90 259 237 259c54 0 98 -10 129 -28c30 -18 36 -43 25 -67s-31 -32 -66 -21c-27 8 -48 15 -85 15c-65 0 -111 -43 -121 -115h174c34 0 46 -14 46 -38s-12 -37 -46 -37h-175c8 -76 57 -118 123 -118
c37 0 66 13 96 28c33 16 56 10 68 -10c14 -23 7 -50 -20 -72z" />
    <glyph glyph-name="afii10104" unicode="&#x457;" horiz-adv-x="233" 
d="M-41 618c0 36 23 61 63 61c39 0 63 -25 63 -61c0 -38 -24 -61 -63 -61c-40 0 -63 23 -63 61zM150 618c0 36 22 61 62 61c39 0 63 -25 63 -61c0 -38 -24 -61 -63 -61c-40 0 -62 23 -62 61zM60 58v374c0 31 19 58 56 58c38 0 57 -27 57 -58v-374c0 -32 -19 -58 -57 -58
c-37 0 -56 26 -56 58z" />
    <glyph glyph-name="endash" unicode="&#x2013;" horiz-adv-x="362" 
d="M303 217h-244c-32 0 -54 18 -54 50c0 31 22 50 54 50h244c32 0 54 -19 54 -50c0 -32 -22 -50 -54 -50z" />
    <glyph glyph-name="hyphen" unicode="-" horiz-adv-x="362" 
d="M303 217h-244c-32 0 -54 18 -54 50c0 31 22 50 54 50h244c32 0 54 -19 54 -50c0 -32 -22 -50 -54 -50z" />
    <glyph glyph-name="emdash" unicode="&#x2014;" horiz-adv-x="574" 
d="M515 217h-456c-32 0 -54 18 -54 50c0 31 22 50 54 50h456c32 0 54 -19 54 -50c0 -32 -22 -50 -54 -50z" />
    <glyph glyph-name="period" unicode="." horiz-adv-x="240" 
d="M50 69c0 37 24 70 69 70s70 -33 70 -70c0 -38 -25 -69 -70 -69s-69 31 -69 69z" />
    <glyph glyph-name="colon" unicode=":" horiz-adv-x="240" 
d="M50 430c0 37 24 70 69 70s70 -33 70 -70c0 -38 -25 -69 -70 -69s-69 31 -69 69zM50 69c0 37 24 70 69 70s70 -33 70 -70c0 -38 -25 -69 -70 -69s-69 31 -69 69z" />
    <glyph glyph-name="dieresis" unicode="&#xa8;" 
d="M101 618c0 36 23 61 63 61c39 0 63 -25 63 -61c0 -38 -24 -61 -63 -61c-40 0 -63 23 -63 61zM292 618c0 36 22 61 62 61c39 0 63 -25 63 -61c0 -38 -24 -61 -63 -61c-40 0 -62 23 -62 61z" />
    <glyph glyph-name="acute" unicode="&#xb4;" 
d="M339 636l-116 -76c-22 -16 -50 -21 -66 2c-14 20 -11 46 21 67l120 78c23 15 50 18 65 -5c13 -21 8 -44 -24 -66z" />
    <glyph glyph-name="grave" unicode="`" 
d="M297 561l-117 77c-32 22 -37 45 -24 65c15 23 43 19 66 4l121 -80c32 -21 34 -46 20 -65c-16 -22 -44 -17 -66 -1z" />
    <glyph glyph-name="caron" unicode="&#x2c7;" 
d="M163 699l101 -75l93 70c19 14 44 18 59 -1c12 -16 9 -39 -16 -57l-105 -78c-24 -18 -44 -17 -68 0l-108 78c-26 19 -27 43 -15 59c15 20 40 18 59 4z" />
    <glyph glyph-name="circumflex" unicode="&#x2c6;" 
d="M357 557l-102 75l-92 -71c-19 -14 -45 -19 -59 1c-11 16 -9 40 16 58l105 77c24 18 44 17 68 0l110 -79c26 -19 24 -44 12 -59c-15 -19 -39 -16 -58 -2z" />
    <glyph glyph-name="hungarumlaut" unicode="&#x2dd;" 
d="M250 643l-108 -72c-21 -14 -46 -19 -62 1c-14 18 -11 42 19 61l112 75c22 14 48 18 63 -4c13 -20 6 -41 -24 -61zM417 643l-108 -72c-21 -14 -46 -19 -62 1c-14 18 -11 42 19 61l112 75c22 14 48 18 63 -4c13 -20 6 -41 -24 -61z" />
    <glyph glyph-name="dotaccent" unicode="&#x2d9;" 
d="M193 619c0 38 26 61 66 61c39 0 66 -23 66 -61c0 -40 -27 -61 -66 -61c-40 0 -66 21 -66 61z" />
    <glyph glyph-name="underscore" unicode="_" horiz-adv-x="584" 
d="M525 -122h-466c-32 0 -54 18 -54 50c0 31 22 50 54 50h466c32 0 54 -19 54 -50c0 -32 -22 -50 -54 -50z" />
    <glyph glyph-name="macron" unicode="&#xaf;" 
d="M374 568h-229c-32 0 -47 15 -47 40s15 40 47 40h229c33 0 47 -16 47 -40c0 -25 -14 -40 -47 -40z" />
    <glyph glyph-name="ellipsis" unicode="&#x2026;" horiz-adv-x="678" 
d="M50 68c0 38 24 70 69 70s70 -32 70 -70s-25 -68 -70 -68s-69 30 -69 68zM269 68c0 38 24 70 69 70s70 -32 70 -70s-25 -68 -70 -68s-69 30 -69 68zM489 68c0 38 23 70 69 70c45 0 69 -32 69 -70s-24 -68 -69 -68c-46 0 -69 30 -69 68z" />
    <glyph glyph-name="semicolon" unicode=";" horiz-adv-x="246" 
d="M173 55l-80 -151c-18 -34 -43 -46 -73 -30c-26 14 -31 41 -13 74l80 150c17 34 44 44 71 30c31 -16 28 -50 15 -73zM56 430c0 37 24 70 69 70s70 -33 70 -70c0 -38 -25 -69 -70 -69s-69 31 -69 69z" />
    <glyph glyph-name="uniF733" unicode="&#xf733;" horiz-adv-x="529" 
d="M187 124c-43 0 -59 21 -59 45c0 19 7 37 22 53l162 172h-193c-35 0 -53 18 -53 48c0 31 18 48 53 48h277c59 0 68 -57 34 -93l-177 -185c145 -7 219 -83 219 -201c0 -133 -92 -221 -239 -221c-75 0 -145 18 -181 49c-23 20 -32 48 -17 72c17 26 47 20 67 10
c52 -26 98 -35 129 -35c88 0 127 50 127 124c0 79 -59 114 -171 114z" />
    <glyph glyph-name="uniF734" unicode="&#xf734;" horiz-adv-x="531" 
d="M504 58c0 -29 -16 -47 -45 -47h-35v-155c0 -31 -15 -56 -52 -56s-53 25 -53 56v155h-248c-57 0 -67 55 -38 91l289 367c12 17 27 31 51 31c37 0 51 -28 51 -59v-339h35c27 0 45 -17 45 -44zM139 102h180v225z" />
    <glyph glyph-name="uniF735" unicode="&#xf735;" horiz-adv-x="500" 
d="M228 -210c-75 0 -146 19 -181 49c-23 20 -32 48 -17 72c17 26 47 20 67 10c51 -25 91 -35 129 -35c83 0 129 55 129 135c0 70 -40 123 -119 123c-49 0 -81 -13 -110 -13c-33 0 -53 20 -50 58l16 230c3 44 23 71 68 71h221c39 0 60 -19 60 -53c0 -33 -21 -53 -60 -53h-196
l-11 -154c30 7 57 10 82 10c161 0 213 -116 213 -213c0 -144 -96 -237 -241 -237z" />
    <glyph glyph-name="uniF736" unicode="&#xf736;" horiz-adv-x="523" 
d="M378 592c-16 5 -44 12 -76 12c-114 0 -169 -102 -171 -223c36 48 95 74 159 74c129 0 207 -94 207 -220c0 -121 -76 -245 -233 -245c-144 0 -237 102 -237 304c0 247 79 406 278 406c65 0 104 -17 115 -23c24 -12 41 -35 31 -64c-13 -38 -48 -28 -73 -21zM137 241
c0 -73 35 -155 128 -155c81 0 123 69 123 145c0 73 -51 127 -121 127c-62 0 -130 -42 -130 -117z" />
    <glyph glyph-name="uniF737" unicode="&#xf737;" horiz-adv-x="478" 
d="M66 490h336c55 0 71 -39 48 -91l-246 -549c-16 -36 -40 -61 -79 -46c-29 11 -38 44 -20 84l226 496h-265c-39 0 -59 20 -59 53c0 34 20 53 59 53z" />
    <glyph glyph-name="uniF738" unicode="&#xf738;" horiz-adv-x="575" 
d="M74 528c0 106 92 172 213 172c122 0 212 -60 212 -171c0 -70 -41 -125 -102 -167c90 -49 130 -99 130 -179c0 -109 -95 -193 -238 -193c-131 0 -242 56 -242 189c0 79 44 140 130 191c-70 44 -103 89 -103 158zM153 186c0 -63 57 -100 135 -100c82 0 132 42 132 96
c0 70 -88 112 -168 141c-77 -42 -99 -90 -99 -137zM181 523c0 -56 69 -94 141 -121c54 39 73 81 73 118c0 57 -47 84 -109 84c-58 0 -105 -29 -105 -81z" />
    <glyph glyph-name="afii10066" unicode="&#x431;" horiz-adv-x="543" 
d="M305 560c-64 -24 -178 -60 -182 -193c38 68 113 95 174 95c134 0 211 -95 211 -232c0 -136 -90 -240 -235 -240c-160 0 -238 106 -238 292c0 204 54 296 234 366c44 17 87 32 116 43c33 12 67 16 79 -19c10 -29 -4 -52 -37 -67c-27 -12 -61 -22 -122 -45zM392 226
c0 87 -42 140 -119 140c-71 0 -118 -53 -118 -142c0 -87 43 -138 117 -138c76 0 120 53 120 140z" />
    <glyph glyph-name="uniF731" unicode="&#xf731;" horiz-adv-x="393" 
d="M192 56v288l-74 -70c-20 -20 -48 -36 -72 -15c-23 21 -12 52 7 72l131 129c13 13 36 40 68 40c39 0 48 -30 48 -66v-378c0 -31 -18 -56 -54 -56s-54 25 -54 56z" />
    <glyph glyph-name="uniF732" unicode="&#xf732;" horiz-adv-x="432" 
d="M125 382c-20 -10 -52 -26 -72 2c-16 22 -7 54 24 76c37 27 86 40 136 40c121 0 166 -68 166 -136c0 -148 -201 -175 -221 -268h185c40 0 54 -26 54 -48c0 -23 -16 -48 -54 -48h-255c-36 0 -49 22 -49 53c0 172 231 203 231 302c0 27 -20 49 -64 49c-26 0 -51 -7 -81 -22z
" />
    <glyph glyph-name="uniF739" unicode="&#xf739;" horiz-adv-x="523" 
d="M139 -102c16 -5 44 -12 76 -12c114 0 169 102 171 223c-36 -48 -95 -74 -159 -74c-129 0 -207 94 -207 220c0 121 76 245 233 245c144 0 237 -102 237 -304c0 -247 -79 -406 -278 -406c-65 0 -104 17 -115 23c-24 12 -41 35 -31 64c13 38 48 28 73 21zM380 249
c0 73 -35 155 -128 155c-81 0 -123 -69 -123 -145c0 -73 51 -127 121 -127c62 0 130 42 130 117z" />
    <glyph glyph-name="uniF730" unicode="&#xf730;" horiz-adv-x="553" 
d="M32 245c0 136 81 255 245 255c163 0 243 -119 243 -255s-80 -255 -243 -255c-164 0 -245 119 -245 255zM141 245c0 -93 50 -159 136 -159c85 0 134 66 134 159s-49 159 -134 159c-86 0 -136 -66 -136 -159z" />
    <glyph glyph-name="comma" unicode="," horiz-adv-x="234" 
d="M173 55l-80 -151c-18 -34 -43 -46 -73 -30c-26 14 -31 41 -13 74l80 150c17 34 44 44 71 30c31 -16 28 -50 15 -73z" />
    <glyph glyph-name="exclam" unicode="!" horiz-adv-x="239" 
d="M50 64c0 37 23 65 69 65c45 0 70 -28 70 -65c0 -38 -25 -64 -70 -64c-46 0 -69 26 -69 64zM62 259v378c0 31 20 58 57 58s56 -27 56 -58v-378c0 -33 -19 -59 -56 -59s-57 26 -57 59z" />
    <glyph glyph-name="exclamdown" unicode="&#xa1;" horiz-adv-x="239" 
d="M50 626c0 38 23 64 69 64c45 0 70 -26 70 -64c0 -37 -25 -65 -70 -65c-46 0 -69 28 -69 65zM62 53v378c0 33 20 59 57 59s56 -26 56 -59v-378c0 -31 -19 -58 -56 -58s-57 27 -57 58z" />
    <glyph glyph-name="bar" unicode="|" horiz-adv-x="215" 
d="M60 -60v809c0 28 16 51 48 51s47 -23 47 -51v-809c0 -28 -15 -50 -47 -50s-48 22 -48 50z" />
    <glyph glyph-name="brokenbar" unicode="&#xa6;" horiz-adv-x="215" 
d="M60 -60v304c0 28 16 51 48 51s47 -23 47 -51v-304c0 -28 -15 -50 -47 -50s-48 22 -48 50zM60 445v304c0 28 16 51 48 51s47 -23 47 -51v-304c0 -28 -15 -50 -47 -50s-48 22 -48 50z" />
    <glyph glyph-name="quotesinglbase" unicode="&#x201a;" horiz-adv-x="234" 
d="M173 55l-80 -151c-18 -34 -43 -46 -73 -30c-26 14 -31 41 -13 74l80 150c17 34 44 44 71 30c31 -16 28 -50 15 -73z" />
    <glyph glyph-name="quotedblbase" unicode="&#x201e;" horiz-adv-x="388" 
d="M327 55l-80 -151c-18 -34 -43 -46 -73 -30c-26 14 -31 41 -13 74l80 150c17 34 44 44 71 30c31 -16 28 -50 15 -73zM173 55l-80 -151c-18 -34 -43 -46 -73 -30c-26 14 -31 41 -13 74l80 150c17 34 44 44 71 30c31 -16 28 -50 15 -73z" />
    <glyph glyph-name="quotedblright" unicode="&#x201d;" horiz-adv-x="388" 
d="M327 666l-80 -151c-18 -34 -43 -46 -73 -30c-26 14 -31 41 -13 74l80 150c17 34 44 44 71 30c31 -16 28 -50 15 -73zM173 666l-80 -151c-18 -34 -43 -46 -73 -30c-26 14 -31 41 -13 74l80 150c17 34 44 44 71 30c31 -16 28 -50 15 -73z" />
    <glyph glyph-name="dotlessi" unicode="&#x131;" horiz-adv-x="233" 
d="M60 58v374c0 31 19 58 56 58c38 0 57 -27 57 -58v-374c0 -32 -19 -58 -57 -58c-37 0 -56 26 -56 58z" />
    <glyph glyph-name="bracketleft" unicode="[" horiz-adv-x="309" 
d="M230 -70h-118c-38 0 -57 25 -57 58v713c0 31 14 59 55 59h120c32 0 54 -18 54 -48c0 -33 -22 -48 -54 -48h-67v-638h67c32 0 54 -18 54 -48c0 -33 -22 -48 -54 -48z" />
    <glyph glyph-name="bracketright" unicode="]" horiz-adv-x="309" 
d="M191 -70h-118c-32 0 -54 15 -54 48c0 30 22 48 54 48h67v638h-67c-32 0 -54 15 -54 48c0 30 22 48 54 48h120c41 0 55 -28 55 -59v-713c0 -33 -19 -58 -57 -58z" />
    <glyph glyph-name="braceleft" unicode="{" horiz-adv-x="338" 
d="M139 345c40 -18 56 -55 56 -99v-171c0 -36 11 -60 44 -60c13 0 26 5 38 7c22 4 41 -4 48 -28c7 -23 -6 -46 -32 -60c-18 -10 -43 -14 -69 -14c-99 0 -135 68 -135 154v160c0 30 -12 48 -30 62c-17 15 -25 29 -25 49c0 19 8 34 25 48c18 15 30 32 30 62v160
c0 87 36 155 135 155c26 0 51 -5 69 -14c27 -13 39 -37 32 -60c-8 -25 -26 -34 -48 -29c-12 3 -25 8 -38 8c-33 0 -44 -24 -44 -60v-172c0 -44 -16 -81 -56 -98z" />
    <glyph glyph-name="braceright" unicode="}" horiz-adv-x="338" 
d="M193 345c-40 17 -56 54 -56 98v172c0 36 -11 60 -44 60c-13 0 -26 -5 -38 -8c-22 -5 -40 4 -48 29c-7 23 5 47 32 60c18 9 43 14 69 14c99 0 135 -68 135 -155v-160c0 -30 12 -47 30 -62c17 -14 25 -29 25 -48c0 -20 -8 -34 -25 -49c-18 -14 -30 -32 -30 -62v-160
c0 -86 -36 -154 -135 -154c-26 0 -51 4 -69 14c-26 14 -39 37 -32 60c7 24 26 32 48 28c12 -2 25 -7 38 -7c33 0 44 24 44 60v171c0 44 16 81 56 99z" />
    <glyph glyph-name="parenleft" unicode="(" horiz-adv-x="307" 
d="M45 345c0 173 65 316 138 391c36 37 71 44 96 20c23 -22 12 -55 -10 -85c-64 -86 -112 -192 -110 -326c-2 -134 46 -239 110 -326c23 -31 33 -63 10 -85c-27 -26 -63 -15 -96 20c-73 76 -138 217 -138 391z" />
    <glyph glyph-name="tilde" unicode="&#x2dc;" 
d="M321 633c17 0 26 10 39 21c18 16 38 21 58 4c17 -15 13 -41 -4 -62c-23 -29 -60 -48 -94 -48c-57 0 -88 43 -123 43c-17 0 -27 -9 -42 -22c-18 -14 -36 -19 -54 -4c-17 15 -15 42 4 64c25 28 59 47 92 47c58 0 93 -43 124 -43z" />
    <glyph glyph-name="parenright" unicode=")" horiz-adv-x="307" 
d="M260 345c0 -174 -65 -315 -138 -391c-33 -35 -69 -46 -96 -20c-23 22 -13 54 10 85c64 87 112 192 110 326c2 134 -46 240 -110 326c-22 30 -33 63 -10 85c25 24 60 17 96 -20c73 -75 138 -218 138 -391z" />
    <glyph glyph-name="uni04AE" unicode="&#x4ae;" horiz-adv-x="566" 
d="M225 62v237l-197 282c-22 34 -30 73 6 99c37 26 72 3 94 -31l161 -242l156 242c19 30 52 56 89 31c32 -21 24 -58 5 -86l-194 -290v-242c0 -34 -21 -61 -60 -61c-40 0 -60 27 -60 61z" />
    <glyph glyph-name="quotedblleft" unicode="&#x201c;" horiz-adv-x="388" 
d="M293 515l-80 151c-13 23 -16 57 15 73c27 14 54 4 71 -30l80 -150c18 -33 13 -60 -13 -74c-30 -16 -55 -4 -73 30zM139 515l-80 151c-13 23 -16 57 15 73c27 14 54 4 71 -30l80 -150c18 -33 13 -60 -13 -74c-30 -16 -55 -4 -73 30z" />
    <glyph glyph-name="quoteleft" unicode="&#x2018;" horiz-adv-x="234" 
d="M139 515l-80 151c-13 23 -16 57 15 73c27 14 54 4 71 -30l80 -150c18 -33 13 -60 -13 -74c-30 -16 -55 -4 -73 30z" />
    <glyph glyph-name="quoteright" unicode="&#x2019;" horiz-adv-x="234" 
d="M173 666l-80 -151c-18 -34 -43 -46 -73 -30c-26 14 -31 41 -13 74l80 150c17 34 44 44 71 30c31 -16 28 -50 15 -73z" />
    <glyph glyph-name="periodcentered" unicode="&#xb7;" horiz-adv-x="239" 
d="M50 329c0 37 24 70 69 70s70 -33 70 -70c0 -38 -25 -69 -70 -69s-69 31 -69 69z" />
    <glyph glyph-name="bullet" unicode="&#x2022;" horiz-adv-x="426" 
d="M85 309c0 70 41 129 127 129s129 -59 129 -129c0 -72 -43 -127 -129 -127s-127 55 -127 127z" />
    <glyph glyph-name="guilsinglleft" unicode="&#x2039;" horiz-adv-x="336" 
d="M60 295l137 138c24 25 57 33 80 7c21 -24 14 -52 -12 -78l-115 -113l118 -118c26 -26 31 -59 8 -81c-23 -21 -56 -13 -78 8l-140 140c-31 32 -30 66 2 97z" />
    <glyph glyph-name="guilsinglright" unicode="&#x203a;" horiz-adv-x="336" 
d="M274 198l-137 -138c-24 -25 -57 -33 -80 -7c-21 24 -14 52 12 78l115 113l-118 118c-26 26 -31 59 -8 81c23 21 56 13 78 -8l140 -140c31 -32 30 -66 -2 -97z" />
    <glyph glyph-name="guillemotleft" unicode="&#xab;" horiz-adv-x="552" 
d="M276 295l137 138c24 25 57 33 80 7c21 -24 14 -52 -12 -78l-115 -113l118 -118c26 -26 31 -59 8 -81c-23 -21 -56 -13 -78 8l-140 140c-31 32 -30 66 2 97zM60 295l137 138c24 25 57 33 80 7c21 -24 14 -52 -12 -78l-115 -113l118 -118c26 -26 31 -59 8 -81
c-23 -21 -56 -13 -78 8l-140 140c-31 32 -30 66 2 97z" />
    <glyph glyph-name="guillemotright" unicode="&#xbb;" horiz-adv-x="552" 
d="M490 198l-137 -138c-24 -25 -57 -33 -80 -7c-21 24 -14 52 12 78l115 113l-118 118c-26 26 -31 59 -8 81c23 21 56 13 78 -8l140 -140c31 -32 30 -66 -2 -97zM274 198l-137 -138c-24 -25 -57 -33 -80 -7c-21 24 -14 52 12 78l115 113l-118 118c-26 26 -31 59 -8 81
c23 21 56 13 78 -8l140 -140c31 -32 30 -66 -2 -97z" />
    <glyph glyph-name="germandbls" unicode="&#xdf;" horiz-adv-x="554" 
d="M60 -142v618c0 140 55 224 204 224c124 0 201 -53 201 -145c0 -100 -103 -144 -103 -187c0 -54 167 -78 167 -222c0 -81 -49 -156 -177 -156c-33 0 -75 4 -108 22c-30 16 -41 46 -29 70c13 27 39 22 62 14c31 -10 49 -15 74 -15c45 0 64 28 64 62c0 91 -166 103 -166 211
c0 87 102 116 102 191c0 39 -33 59 -85 59c-74 0 -93 -47 -93 -145v-601c0 -32 -19 -58 -57 -58c-37 0 -56 26 -56 58z" />
    <glyph glyph-name="ring" unicode="&#x2da;" 
d="M259 729c67 0 109 -38 109 -97c0 -60 -42 -97 -109 -97c-66 0 -109 37 -109 97c0 59 42 97 109 97zM212 632c0 -27 20 -45 47 -45s47 18 47 45s-20 45 -47 45s-47 -18 -47 -45z" />
    <glyph glyph-name="breve" unicode="&#x2d8;" 
d="M259 548c-75 0 -123 37 -144 73c-12 21 -9 47 8 59c24 16 46 4 62 -16c19 -23 38 -41 74 -41s55 19 75 42c16 20 39 30 62 15c18 -12 18 -37 6 -58c-21 -35 -66 -74 -143 -74z" />
    <glyph glyph-name="ogonek" unicode="&#x2db;" horiz-adv-x="386" 
d="M244 -22c-21 -21 -55 -59 -55 -99c0 -31 17 -41 39 -41c13 0 25 3 35 6c16 5 29 2 36 -10c10 -16 6 -40 -19 -55c-18 -11 -41 -19 -75 -19c-72 0 -122 42 -122 108c0 63 42 126 100 159c21 12 53 19 68 2s6 -38 -7 -51z" />
    <glyph glyph-name="uni00AD" unicode="&#xad;" horiz-adv-x="358" 
d="M301 217h-244c-32 0 -54 18 -54 50c0 31 22 50 54 50h244c32 0 54 -19 54 -50c0 -32 -22 -50 -54 -50z" />
    <glyph glyph-name="cedilla" unicode="&#xb8;" horiz-adv-x="405" 
d="M127 -164c16 -4 34 -9 53 -9c30 0 43 11 43 32c0 24 -18 34 -59 40c-22 3 -28 19 -24 35l16 70c6 24 21 34 43 31s31 -20 26 -42l-7 -36c81 -5 103 -54 103 -97c0 -52 -36 -100 -125 -100c-44 0 -69 6 -90 17c-19 10 -25 29 -18 45c7 17 24 18 39 14z" />
    <glyph glyph-name="ampersand" unicode="&#x26;" horiz-adv-x="663" 
d="M534 27c-18 16 -37 31 -56 48c-54 -50 -127 -85 -217 -85c-117 0 -216 57 -216 184c0 90 53 146 141 209c-39 54 -61 102 -61 156c0 93 65 161 176 161c113 0 161 -63 161 -130s-40 -123 -135 -194c46 -56 90 -98 143 -150c21 35 32 74 42 112c10 40 27 52 55 49
c30 -3 41 -25 38 -58c-5 -52 -26 -116 -62 -174c23 -22 45 -42 65 -58c34 -28 36 -58 20 -79c-28 -37 -70 -12 -94 9zM268 86c55 0 104 21 139 54c-24 22 -75 69 -165 174c-65 -51 -83 -85 -83 -132c0 -48 39 -96 109 -96zM237 545c0 -30 14 -64 39 -100c57 42 91 83 91 118
c0 31 -22 53 -62 53c-38 0 -68 -26 -68 -71z" />
    <glyph glyph-name="question" unicode="?" horiz-adv-x="412" 
d="M204 700c128 0 183 -77 183 -153c0 -79 -45 -124 -93 -170c-42 -40 -68 -67 -68 -121c0 -32 -15 -56 -51 -56c-35 0 -50 24 -50 56c0 70 32 115 76 159c42 42 69 70 69 120c0 36 -26 69 -79 69c-28 0 -60 -11 -92 -25c-29 -13 -55 -12 -68 12c-11 21 -6 50 29 71
c43 26 95 38 144 38zM107 64c0 37 24 65 69 65s70 -28 70 -65c0 -38 -25 -64 -70 -64s-69 26 -69 64z" />
    <glyph glyph-name="afii10075" unicode="&#x439;" horiz-adv-x="554" 
d="M381 58v253l-216 -283c-12 -16 -28 -28 -51 -28c-37 0 -54 25 -54 58v374c0 32 20 58 57 58s56 -26 56 -58v-255l212 280c14 20 30 33 55 33c38 0 54 -26 54 -58v-374c0 -33 -19 -58 -57 -58c-37 0 -56 25 -56 58zM278 548c-75 0 -123 37 -144 73c-12 21 -9 47 8 59
c24 16 46 4 62 -16c19 -23 38 -41 74 -41s55 19 75 42c16 20 39 30 62 15c18 -12 18 -37 6 -58c-21 -35 -66 -74 -143 -74z" />
    <glyph glyph-name="H" unicode="H" horiz-adv-x="708" 
d="M513 61v238h-318v-238c0 -34 -21 -61 -60 -61c-40 0 -60 27 -60 61v567c0 34 20 62 60 62c39 0 60 -28 60 -62v-222h318v222c0 34 20 62 60 62c39 0 60 -28 60 -62v-567c0 -34 -21 -61 -60 -61c-40 0 -60 27 -60 61z" />
    <glyph glyph-name="afii10027" unicode="&#x419;" horiz-adv-x="708" 
d="M195 628v-419l323 447c14 19 32 34 58 34c41 0 57 -28 57 -62v-567c0 -33 -18 -61 -59 -61c-42 0 -61 28 -61 61v418l-325 -444c-13 -17 -31 -35 -56 -35c-37 0 -57 23 -57 61v567c0 33 18 62 60 62c41 0 60 -29 60 -62zM350 734c-76 0 -133 30 -158 64
c-15 20 -17 45 0 61c23 22 46 8 65 -10c28 -27 57 -38 93 -38s64 10 92 37c19 19 42 31 65 11c19 -16 14 -41 -1 -61c-25 -34 -80 -64 -156 -64z" />
    <glyph glyph-name="Eth" unicode="&#xd0;" horiz-adv-x="711" 
d="M90 69v248h-44c-28 0 -41 16 -41 38c0 23 13 39 41 39h44v218c0 34 13 61 55 69c38 8 101 14 168 14c235 0 353 -117 353 -347c0 -217 -116 -353 -352 -353c-72 0 -121 2 -168 10c-39 7 -56 29 -56 64zM314 102c160 0 226 90 226 246c0 155 -68 240 -227 240
c-40 0 -74 -3 -103 -6v-188h133c28 0 41 -16 41 -39c0 -22 -13 -38 -41 -38h-133v-210c35 -4 62 -5 104 -5z" />
    <glyph glyph-name="Dcroat" unicode="&#x110;" horiz-adv-x="711" 
d="M90 69v248h-44c-28 0 -41 16 -41 38c0 23 13 39 41 39h44v218c0 34 13 61 55 69c38 8 101 14 168 14c235 0 353 -117 353 -347c0 -217 -116 -353 -352 -353c-72 0 -121 2 -168 10c-39 7 -56 29 -56 64zM314 102c160 0 226 90 226 246c0 155 -68 240 -227 240
c-40 0 -74 -3 -103 -6v-188h133c28 0 41 -16 41 -39c0 -22 -13 -38 -41 -38h-133v-210c35 -4 62 -5 104 -5z" />
    <glyph glyph-name="afii10147" unicode="&#x472;" horiz-adv-x="747" 
d="M45 345c0 198 111 355 328 355s329 -157 329 -355c0 -199 -112 -355 -329 -355s-328 156 -328 355zM373 97c120 0 190 86 200 202h-400c10 -116 80 -202 200 -202zM373 593c-116 0 -186 -82 -198 -192h397c-13 110 -82 192 -199 192z" />
    <glyph glyph-name="afii10195" unicode="&#x473;" horiz-adv-x="549" 
d="M35 245c0 145 84 255 239 255s240 -111 240 -255c0 -145 -85 -255 -240 -255s-239 110 -239 255zM274 86c72 0 116 48 123 118h-245c6 -70 52 -118 122 -118zM274 404c-70 0 -114 -47 -122 -114h244c-7 67 -52 114 -122 114z" />
    <glyph glyph-name="Thorn" unicode="&#xde;" horiz-adv-x="579" 
d="M75 61v567c0 34 20 62 60 62c39 0 60 -28 60 -62v-11c30 4 61 7 91 7c155 0 263 -60 263 -219c0 -163 -123 -229 -268 -229c-26 0 -58 0 -86 4v-119c0 -34 -21 -61 -60 -61c-40 0 -60 27 -60 61zM282 519c-32 0 -60 -3 -87 -6v-230c25 -3 52 -3 78 -3
c83 1 150 28 150 124c0 80 -51 115 -141 115z" />
    <glyph glyph-name="uni04C0" unicode="&#x4c0;" horiz-adv-x="270" 
d="M75 61v567c0 34 20 62 60 62c39 0 60 -28 60 -62v-567c0 -34 -21 -61 -60 -61c-40 0 -60 27 -60 61z" />
    <glyph glyph-name="thorn" unicode="&#xfe;" horiz-adv-x="544" 
d="M60 -142v774c0 31 19 58 56 58c38 0 57 -27 57 -58v-208c28 47 75 76 146 76c126 0 190 -100 190 -240c0 -154 -69 -270 -225 -270c-47 0 -86 9 -111 19v-151c0 -32 -19 -58 -57 -58c-37 0 -56 26 -56 58zM296 404c-106 0 -123 -114 -123 -217v-78c28 -16 63 -23 99 -23
c90 0 121 76 121 176c0 85 -29 142 -97 142z" />
    <glyph glyph-name="pi" unicode="&#x3c0;" horiz-adv-x="568" 
d="M70 490h427c36 0 54 -20 54 -51c0 -30 -18 -49 -54 -49h-9v-332c0 -32 -19 -58 -57 -58c-37 0 -56 26 -56 58v332h-182v-332c0 -32 -19 -58 -57 -58c-37 0 -56 26 -56 58v332h-10c-35 0 -53 19 -53 49c0 31 18 51 53 51z" />
    <glyph glyph-name="mu" unicode="&#xb5;" horiz-adv-x="552" 
d="M60 -142v574c0 32 19 58 57 58c37 0 56 -26 56 -58v-230c0 -66 21 -112 85 -112c97 0 119 101 121 213v129c0 32 19 58 57 58c37 0 56 -26 56 -58v-374c0 -31 -19 -58 -56 -58c-38 0 -57 27 -57 58v15c-23 -57 -65 -83 -118 -83c-31 0 -62 7 -88 35v-167
c0 -32 -19 -58 -57 -58c-37 0 -56 26 -56 58z" />
    <glyph glyph-name="uni04E8" unicode="&#x4e8;" horiz-adv-x="747" 
d="M45 345c0 198 111 355 328 355s329 -157 329 -355c0 -199 -112 -355 -329 -355s-328 156 -328 355zM373 97c120 0 190 86 200 202h-400c10 -116 80 -202 200 -202zM373 593c-116 0 -186 -82 -198 -192h397c-13 110 -82 192 -199 192z" />
    <glyph glyph-name="uni04E9" unicode="&#x4e9;" horiz-adv-x="549" 
d="M35 245c0 145 84 255 239 255s240 -111 240 -255c0 -145 -85 -255 -240 -255s-239 110 -239 255zM274 86c72 0 116 48 123 118h-245c6 -70 52 -118 122 -118zM274 404c-70 0 -114 -47 -122 -114h244c-7 67 -52 114 -122 114z" />
    <glyph glyph-name="uni018F" unicode="&#x18f;" horiz-adv-x="656" 
d="M312 593c-54 0 -97 -14 -141 -30c-26 -9 -62 -16 -77 14s-2 59 35 80c45 25 119 43 187 43c223 0 295 -150 295 -354c0 -171 -65 -355 -290 -355c-197 0 -276 134 -276 297c0 123 41 127 122 127h322c-6 108 -61 178 -177 178zM324 95c118 0 165 85 166 220h-324
c-2 -19 -3 -42 -1 -60c6 -102 66 -160 159 -160z" />
    <glyph glyph-name="uni01DD" unicode="&#x1dd;" horiz-adv-x="497" 
d="M35 203c0 61 20 88 73 88h242c-4 74 -40 118 -114 118c-34 0 -67 -8 -101 -20c-31 -11 -57 -7 -66 14c-12 28 1 53 33 69c37 19 96 28 139 28c153 0 221 -105 221 -253c0 -150 -74 -257 -222 -257c-130 0 -205 80 -205 213zM244 81c75 0 106 57 107 135h-212
c-3 -96 38 -135 105 -135z" />
    <glyph glyph-name="uni04D8" unicode="&#x4d8;" horiz-adv-x="656" 
d="M312 593c-54 0 -97 -14 -141 -30c-26 -9 -62 -16 -77 14s-2 59 35 80c45 25 119 43 187 43c223 0 295 -150 295 -354c0 -171 -65 -355 -290 -355c-197 0 -276 134 -276 297c0 123 41 127 122 127h322c-6 108 -61 178 -177 178zM324 95c118 0 165 85 166 220h-324
c-2 -19 -3 -42 -1 -60c6 -102 66 -160 159 -160z" />
    <glyph glyph-name="uni04D9" unicode="&#x4d9;" horiz-adv-x="497" 
d="M35 203c0 61 20 88 73 88h242c-4 74 -40 118 -114 118c-34 0 -67 -8 -101 -20c-31 -11 -57 -7 -66 14c-12 28 1 53 33 69c37 19 96 28 139 28c153 0 221 -105 221 -253c0 -150 -74 -257 -222 -257c-130 0 -205 80 -205 213zM244 81c75 0 106 57 107 135h-212
c-3 -96 38 -135 105 -135z" />
    <glyph glyph-name="backslash" unicode="\" horiz-adv-x="330" 
d="M259 -65l-278 785c-11 32 -10 66 24 77s55 -10 65 -40l279 -791c10 -29 7 -63 -24 -73c-33 -10 -54 9 -66 42z" />
    <glyph glyph-name="fraction" unicode="&#x2044;" horiz-adv-x="118" 
d="M215 666l-231 -662c-12 -33 -31 -52 -64 -41c-31 11 -28 42 -18 71l233 661c10 30 29 54 62 42c31 -11 29 -39 18 -71z" />
    <glyph glyph-name="product" unicode="&#x220f;" horiz-adv-x="681" 
d="M75 -139v769c0 35 20 60 58 60h414c40 0 59 -27 59 -60v-769c0 -34 -20 -61 -60 -61s-60 27 -60 61v722h-291v-722c0 -34 -21 -61 -60 -61c-40 0 -60 27 -60 61z" />
    <glyph glyph-name="dagger" unicode="&#x2020;" horiz-adv-x="380" 
d="M52 490h90v149c0 28 16 51 48 51s47 -23 47 -51v-149h90c32 0 48 -20 48 -47c0 -26 -16 -46 -48 -46h-90v-547c0 -28 -15 -50 -47 -50s-48 22 -48 50v547h-90c-32 0 -47 20 -47 46c0 27 15 47 47 47z" />
    <glyph glyph-name="daggerdbl" unicode="&#x2021;" horiz-adv-x="380" 
d="M52 490h90v149c0 28 16 51 48 51s47 -23 47 -51v-149h90c32 0 48 -20 48 -47c0 -26 -16 -46 -48 -46h-90v-287h90c32 0 48 -20 48 -47c0 -26 -16 -46 -48 -46h-90v-167c0 -28 -15 -50 -47 -50s-48 22 -48 50v167h-90c-32 0 -47 20 -47 46c0 27 15 47 47 47h90v287h-90
c-32 0 -47 20 -47 46c0 27 15 47 47 47z" />
    <glyph glyph-name="uni0259" unicode="&#x259;" horiz-adv-x="497" 
d="M35 203c0 61 20 88 73 88h242c-4 74 -40 118 -114 118c-34 0 -67 -8 -101 -20c-31 -11 -57 -7 -66 14c-12 28 1 53 33 69c37 19 96 28 139 28c153 0 221 -105 221 -253c0 -150 -74 -257 -222 -257c-130 0 -205 80 -205 213zM244 81c75 0 106 57 107 135h-212
c-3 -96 38 -135 105 -135z" />
    <glyph glyph-name="slash" unicode="/" horiz-adv-x="330" 
d="M347 720l-278 -785c-12 -33 -33 -52 -66 -42c-31 10 -34 44 -24 73l279 791c10 30 31 51 65 40s35 -45 24 -77z" />
    <glyph glyph-name="eight" unicode="8" horiz-adv-x="541" 
d="M57 528c0 106 92 172 213 172c122 0 212 -60 212 -171c0 -70 -41 -125 -102 -167c90 -49 130 -99 130 -179c0 -109 -95 -193 -238 -193c-131 0 -242 56 -242 189c0 79 44 140 130 191c-70 44 -103 89 -103 158zM136 186c0 -63 57 -100 135 -100c82 0 132 42 132 96
c0 70 -88 112 -168 141c-77 -42 -99 -90 -99 -137zM164 523c0 -56 69 -94 141 -121c54 39 73 81 73 118c0 57 -47 84 -109 84c-58 0 -105 -29 -105 -81z" />
    <glyph glyph-name="two" unicode="2" horiz-adv-x="554" 
d="M149 568c-28 -13 -58 -20 -74 5c-13 20 -11 50 19 72c50 37 126 55 184 55c141 0 205 -76 205 -179c0 -221 -300 -237 -316 -425h280c31 0 54 -15 54 -48c0 -31 -23 -48 -54 -48h-328c-43 0 -61 27 -61 62c0 268 316 293 316 454c0 44 -32 83 -104 83
c-37 0 -77 -11 -121 -31z" />
    <glyph glyph-name="ordmasculine" unicode="&#xba;" horiz-adv-x="370" 
d="M23 509c0 117 58 191 162 191c103 0 162 -74 162 -191c0 -116 -59 -189 -162 -189c-104 0 -162 73 -162 189zM249 509c0 70 -21 108 -64 108c-45 0 -64 -38 -64 -108s21 -106 64 -106c44 0 64 36 64 106z" />
    <glyph glyph-name="onesuperior" unicode="&#xb9;" horiz-adv-x="281" 
d="M128 382v184l-50 -45c-13 -13 -38 -23 -57 -4c-15 15 -14 39 6 59l100 99c12 13 29 25 52 25c32 0 44 -23 44 -53v-265c0 -34 -15 -52 -48 -52c-30 0 -47 18 -47 52z" />
    <glyph glyph-name="twosuperior" unicode="&#xb2;" horiz-adv-x="311" 
d="M244 415c37 0 50 -18 50 -42c0 -29 -18 -43 -50 -43h-182c-32 0 -42 16 -42 44c0 135 161 156 161 214c0 15 -9 25 -33 25c-22 0 -47 -10 -72 -20c-20 -8 -41 -6 -52 13c-11 20 -3 43 17 58c32 25 78 36 116 36c81 0 126 -41 126 -103c0 -110 -138 -122 -153 -182h114z
" />
    <glyph glyph-name="degree" unicode="&#xb0;" horiz-adv-x="550" 
d="M116 541c0 95 60 159 159 159c98 0 158 -64 158 -159c0 -96 -60 -160 -158 -160c-99 0 -159 64 -159 160zM201 541c0 -51 28 -78 74 -78s73 27 73 78s-27 77 -73 77s-74 -26 -74 -77z" />
    <glyph glyph-name="ordfeminine" unicode="&#xaa;" horiz-adv-x="401" 
d="M108 601c-14 -4 -37 -1 -45 22c-8 24 5 41 31 53c31 15 80 24 114 24c101 0 159 -43 159 -134v-183c0 -34 -18 -53 -51 -53c-27 0 -44 13 -50 39c-19 -27 -56 -49 -108 -49c-76 0 -123 44 -123 117c0 84 66 130 158 130c36 0 54 -5 73 -9v6c0 37 -15 56 -64 56
c-30 0 -62 -11 -94 -19zM188 395c64 0 78 56 78 92v11c-17 5 -34 8 -59 8c-46 0 -67 -29 -67 -65c0 -29 24 -46 48 -46z" />
    <glyph glyph-name="threesuperior" unicode="&#xb3;" horiz-adv-x="331" 
d="M148 406c36 0 55 14 55 42c0 29 -24 42 -77 42c-47 0 -45 44 -24 62l70 57h-87c-32 0 -50 12 -50 41c0 24 13 40 50 40h165c46 0 55 -53 21 -79l-79 -62c68 -5 113 -41 113 -103c0 -85 -64 -126 -155 -126c-42 0 -86 11 -107 27s-27 36 -18 57c10 23 31 22 45 18
c27 -8 53 -16 78 -16z" />
    <glyph glyph-name="section" unicode="&#xa7;" horiz-adv-x="562" 
d="M92 525c0 105 70 175 210 175c60 0 119 -15 153 -36c31 -19 42 -42 30 -70c-15 -29 -39 -24 -65 -16c-37 12 -72 26 -116 26c-69 0 -98 -35 -98 -80c0 -68 70 -89 134 -114c99 -39 167 -93 167 -185c0 -85 -57 -137 -107 -162c41 -30 70 -71 70 -140
c0 -100 -70 -175 -210 -175c-60 0 -119 15 -153 36c-31 19 -42 42 -30 70c15 29 39 24 65 16c37 -12 72 -26 116 -26c69 0 98 35 98 80c0 68 -70 89 -134 114c-99 39 -167 88 -167 185c0 85 57 136 107 162c-41 30 -70 71 -70 140zM169 240c0 -57 39 -84 93 -108
c19 -9 40 -16 60 -25c23 11 71 40 71 101c0 57 -39 84 -93 108l-61 24c-23 -11 -70 -39 -70 -100z" />
    <glyph glyph-name="sterling" unicode="&#xa3;" horiz-adv-x="554" 
d="M101 351h24c-19 40 -39 88 -39 151c0 123 84 198 216 198c82 -1 147 -26 186 -64c17 -17 20 -43 9 -62c-13 -22 -36 -24 -61 -16c-41 16 -81 36 -134 36c-62 0 -97 -37 -97 -95c0 -44 17 -84 33 -121l12 -27h118c33 0 49 -18 49 -46c0 -27 -16 -46 -49 -46h-89
c3 -14 4 -29 4 -45c0 -47 -16 -89 -41 -113h223c36 0 53 -20 53 -51c0 -29 -17 -50 -53 -50h-362c-36 0 -54 21 -54 50c0 31 17 51 53 51c45 0 72 43 72 95c0 23 -4 44 -10 63h-63c-33 0 -49 19 -49 46c0 28 16 46 49 46z" />
    <glyph glyph-name="afii10037" unicode="&#x423;" horiz-adv-x="585" 
d="M267 181l-235 402c-22 38 -22 80 12 99c35 20 68 3 90 -39l189 -349l141 342c16 39 39 64 80 49c37 -14 35 -53 22 -84l-172 -402c-56 -131 -103 -209 -198 -209c-32 0 -67 4 -96 20c-31 17 -47 46 -35 77c12 32 40 34 65 26c20 -6 36 -15 60 -15c36 0 57 32 77 83z" />
    <glyph glyph-name="questiondown" unicode="&#xbf;" horiz-adv-x="412" 
d="M202 -10c-128 0 -183 77 -183 153c0 79 45 124 93 170c42 40 68 67 68 121c0 32 15 56 51 56c35 0 50 -24 50 -56c0 -70 -32 -115 -76 -159c-42 -42 -69 -70 -69 -120c0 -36 26 -69 79 -69c28 0 60 11 92 25c29 13 55 12 68 -12c11 -21 6 -50 -29 -71
c-43 -26 -95 -38 -144 -38zM299 626c0 -37 -24 -65 -69 -65s-70 28 -70 65c0 38 25 64 70 64s69 -26 69 -64z" />
    <glyph glyph-name="onehalf" unicode="&#xbd;" horiz-adv-x="755" 
d="M128 382v184l-50 -45c-13 -13 -38 -23 -57 -4c-15 15 -14 39 6 59l100 99c12 13 29 25 52 25c32 0 44 -23 44 -53v-265c0 -34 -15 -52 -48 -52c-30 0 -47 18 -47 52zM688 85c37 0 50 -18 50 -42c0 -29 -18 -43 -50 -43h-182c-32 0 -42 16 -42 44c0 135 161 156 161 214
c0 15 -9 25 -33 25c-22 0 -47 -10 -72 -20c-20 -8 -41 -6 -52 13c-11 20 -3 43 17 58c32 25 78 36 116 36c81 0 126 -41 126 -103c0 -110 -138 -122 -153 -182h114zM505 666l-231 -662c-12 -33 -31 -52 -64 -41c-31 11 -28 42 -18 71l233 661c10 30 29 54 62 42
c31 -11 29 -39 18 -71z" />
    <glyph glyph-name="onequarter" unicode="&#xbc;" horiz-adv-x="724" 
d="M509 666l-231 -662c-12 -33 -31 -52 -64 -41c-31 11 -28 42 -18 71l233 661c10 30 29 54 62 42c31 -11 29 -39 18 -71zM651 91v-43c0 -30 -13 -48 -44 -48c-30 0 -43 18 -43 48v43h-124c-48 0 -59 47 -32 80l147 174c14 17 28 30 52 30c37 0 44 -28 44 -53v-159h15
c26 0 38 -13 38 -36c0 -22 -12 -36 -38 -36h-15zM567 251l-78 -88h78v88zM128 382v184l-50 -45c-13 -13 -38 -23 -57 -4c-15 15 -14 39 6 59l100 99c12 13 29 25 52 25c32 0 44 -23 44 -53v-265c0 -34 -15 -52 -48 -52c-30 0 -47 18 -47 52z" />
    <glyph glyph-name="threequarters" unicode="&#xbe;" horiz-adv-x="763" 
d="M148 406c36 0 55 14 55 42c0 29 -24 42 -77 42c-47 0 -45 44 -24 62l70 57h-87c-32 0 -50 12 -50 41c0 24 13 40 50 40h165c46 0 55 -53 21 -79l-79 -62c68 -5 113 -41 113 -103c0 -85 -64 -126 -155 -126c-42 0 -86 11 -107 27s-27 36 -18 57c10 23 31 22 45 18
c27 -8 53 -16 78 -16zM551 666l-231 -662c-12 -33 -31 -52 -64 -41c-31 11 -28 42 -18 71l233 661c10 30 29 54 62 42c31 -11 29 -39 18 -71zM690 91v-43c0 -30 -13 -48 -44 -48c-30 0 -43 18 -43 48v43h-124c-48 0 -59 47 -32 80l147 174c14 17 28 30 52 30
c37 0 44 -28 44 -53v-159h15c26 0 38 -13 38 -36c0 -22 -12 -36 -38 -36h-15zM606 251l-78 -88h78v88z" />
    <glyph glyph-name="percent" unicode="%" horiz-adv-x="835" 
d="M23 509c0 117 58 191 162 191c103 0 162 -74 162 -191c0 -116 -59 -189 -162 -189c-104 0 -162 73 -162 189zM249 509c0 70 -21 108 -64 108c-45 0 -64 -38 -64 -108s21 -106 64 -106c44 0 64 36 64 106zM488 179c0 117 58 191 162 191c103 0 162 -74 162 -191
c0 -116 -59 -189 -162 -189c-104 0 -162 73 -162 189zM714 179c0 70 -21 108 -64 108c-45 0 -64 -38 -64 -108s21 -106 64 -106c44 0 64 36 64 106zM574 666l-231 -662c-12 -33 -31 -52 -64 -41c-31 11 -28 42 -18 71l233 661c10 30 29 54 62 42c31 -11 29 -39 18 -71z" />
    <glyph glyph-name="perthousand" unicode="&#x2030;" horiz-adv-x="1189" 
d="M852 179c0 117 58 191 162 191c103 0 162 -74 162 -191c0 -116 -59 -189 -162 -189c-104 0 -162 73 -162 189zM1078 179c0 70 -21 108 -64 108c-45 0 -64 -38 -64 -108s21 -106 64 -106c44 0 64 36 64 106zM23 509c0 117 58 191 162 191c103 0 162 -74 162 -191
c0 -116 -59 -189 -162 -189c-104 0 -162 73 -162 189zM249 509c0 70 -21 108 -64 108c-45 0 -64 -38 -64 -108s21 -106 64 -106c44 0 64 36 64 106zM488 179c0 117 58 191 162 191c103 0 162 -74 162 -191c0 -116 -59 -189 -162 -189c-104 0 -162 73 -162 189zM714 179
c0 70 -21 108 -64 108c-45 0 -64 -38 -64 -108s21 -106 64 -106c44 0 64 36 64 106zM574 666l-231 -662c-12 -33 -31 -52 -64 -41c-31 11 -28 42 -18 71l233 661c10 30 29 54 62 42c31 -11 29 -39 18 -71z" />
    <glyph glyph-name="cyrbreve" unicode="&#xf6d4;" 
d="M259 548c-75 0 -123 37 -144 73c-12 21 -9 47 8 59c24 16 46 4 62 -16c19 -23 38 -41 74 -41s55 19 75 42c16 20 39 30 62 15c18 -12 18 -37 6 -58c-21 -35 -66 -74 -143 -74z" />
    <glyph glyph-name="afii10029" unicode="&#x41b;" horiz-adv-x="627" 
d="M194 690h298c40 0 60 -28 60 -62v-567c0 -34 -20 -61 -60 -61s-60 27 -60 61v522h-185c-2 -121 -10 -307 -46 -435c-23 -82 -74 -153 -153 -153c-58 0 -85 35 -74 78c8 33 34 36 58 36c25 0 49 20 63 67c26 83 39 235 42 452c1 38 22 62 57 62z" />
    <glyph glyph-name="afii10077" unicode="&#x43b;" horiz-adv-x="504" 
d="M331 58v332h-120c-3 -88 -13 -211 -36 -285c-24 -78 -69 -108 -126 -108c-38 0 -68 17 -67 56c1 33 19 46 49 46c24 0 38 15 47 46c23 82 26 195 30 287c2 41 29 58 59 58h220c37 0 57 -27 57 -58v-374c0 -32 -19 -58 -57 -58c-37 0 -56 26 -56 58z" />
    <glyph glyph-name="Acute" unicode="&#xf6c9;" 
d="M347 805l-139 -64c-26 -12 -56 -17 -69 10c-13 25 -4 48 31 64l143 67c26 12 55 13 67 -12s3 -47 -33 -65z" />
    <glyph glyph-name="Breve" 
d="M260 734c-76 0 -133 30 -158 64c-15 20 -17 45 0 61c23 22 46 8 65 -10c28 -27 57 -38 93 -38s64 10 92 37c19 19 42 31 65 11c19 -16 14 -41 -1 -61c-25 -34 -80 -64 -156 -64z" />
    <glyph glyph-name="cyrBreve" unicode="&#xf6d1;" 
d="M260 734c-76 0 -133 30 -158 64c-15 20 -17 45 0 61c23 22 46 8 65 -10c28 -27 57 -38 93 -38s64 10 92 37c19 19 42 31 65 11c19 -16 14 -41 -1 -61c-25 -34 -80 -64 -156 -64z" />
    <glyph glyph-name="Caron" unicode="&#xf6ca;" horiz-adv-x="533" 
d="M411 801l-109 -62c-20 -11 -43 -12 -65 0l-120 65c-29 15 -37 41 -23 64s37 22 61 9l118 -66l106 63c26 15 50 10 61 -12s5 -42 -29 -61z" />
    <glyph glyph-name="Cedilla" horiz-adv-x="405" 
d="M127 -164c16 -4 34 -9 53 -9c30 0 43 11 43 32c0 24 -18 34 -59 40c-22 3 -28 19 -24 35l16 70c6 24 21 34 43 31s31 -20 26 -42l-7 -36c81 -5 103 -54 103 -97c0 -52 -36 -100 -125 -100c-44 0 -69 6 -90 17c-19 10 -25 29 -18 45c7 17 24 18 39 14z" />
    <glyph glyph-name="Circumflex" horiz-adv-x="533" 
d="M120 811l109 62c20 11 43 12 65 0l120 -65c29 -15 35 -39 23 -62s-36 -25 -61 -11l-116 64l-108 -61c-26 -15 -51 -10 -61 12s-5 42 29 61z" />
    <glyph glyph-name="Dieresis" unicode="&#xf6cb;" 
d="M82 796c0 39 32 60 72 60c42 0 74 -21 74 -60s-32 -58 -74 -58c-40 0 -72 19 -72 58zM290 796c0 39 31 60 73 60c41 0 73 -21 73 -60s-32 -58 -73 -58c-42 0 -73 19 -73 58z" />
    <glyph glyph-name="Dotaccent" 
d="M179 804c0 45 37 64 80 64c42 0 80 -19 80 -64s-38 -63 -80 -63c-43 0 -80 18 -80 63z" />
    <glyph glyph-name="Hungarumlaut" unicode="&#xf6cf;" horiz-adv-x="533" 
d="M241 805l-139 -64c-26 -12 -56 -17 -69 10c-13 25 -4 48 31 64l143 67c26 12 55 13 67 -12s4 -48 -33 -65zM467 805l-139 -64c-26 -12 -56 -17 -69 10c-13 25 -4 48 31 64l143 67c26 12 55 13 67 -12s4 -48 -33 -65z" />
    <glyph glyph-name="Grave" unicode="&#xf6ce;" 
d="M310 741l-139 64c-36 18 -44 42 -33 65c13 27 41 24 67 12l143 -67c35 -16 44 -40 31 -64c-13 -25 -43 -22 -69 -10z" />
    <glyph glyph-name="Macron" unicode="&#xf6d0;" 
d="M382 748h-245c-32 0 -48 14 -48 39c0 26 16 40 48 40h245c33 0 48 -14 48 -40c0 -25 -15 -39 -48 -39z" />
    <glyph glyph-name="Ogonek" horiz-adv-x="386" 
d="M244 -22c-21 -21 -55 -59 -55 -99c0 -31 17 -41 39 -41c13 0 25 3 35 6c16 5 29 2 36 -10c10 -16 6 -40 -19 -55c-18 -11 -41 -19 -75 -19c-72 0 -122 42 -122 108c0 63 42 126 100 159c21 12 53 19 68 2s6 -38 -7 -51z" />
    <glyph glyph-name="Ring" 
d="M259 875c77 0 119 -37 119 -93c0 -57 -42 -94 -119 -94s-119 37 -119 94c0 56 42 93 119 93zM214 782c0 -24 16 -44 45 -44c28 0 46 19 46 44c0 24 -19 43 -46 43c-28 0 -45 -18 -45 -43z" />
    <glyph glyph-name="Tilde" 
d="M327 812c17 0 29 9 44 21c17 15 39 23 58 7c18 -16 12 -42 -6 -63c-25 -29 -63 -46 -96 -46c-58 0 -99 44 -135 44c-18 0 -31 -9 -48 -23c-17 -13 -36 -20 -53 -7c-19 14 -15 44 5 64c26 29 62 46 95 46c57 0 103 -43 136 -43z" />
    <glyph glyph-name="agrave" unicode="&#xe0;" horiz-adv-x="503" 
d="M335 58v18c-27 -47 -77 -86 -160 -86c-101 0 -160 58 -160 147c0 122 105 164 215 164c48 0 87 -4 105 -7v11c0 54 -15 101 -102 101c-46 0 -74 -12 -118 -25c-24 -7 -49 -1 -57 23s2 44 25 59c36 24 100 37 163 37c137 0 197 -70 197 -186v-256c0 -32 -16 -58 -54 -58
c-37 0 -54 26 -54 58zM205 78c85 0 130 67 130 130v17c-26 4 -52 5 -89 5c-71 0 -120 -24 -120 -84c0 -40 29 -68 79 -68zM238 561l-117 77c-32 22 -37 45 -24 65c15 23 43 19 66 4l121 -80c32 -21 34 -46 20 -65c-16 -22 -44 -17 -66 -1z" />
    <glyph glyph-name="aacute" unicode="&#xe1;" horiz-adv-x="503" 
d="M335 58v18c-27 -47 -77 -86 -160 -86c-101 0 -160 58 -160 147c0 122 105 164 215 164c48 0 87 -4 105 -7v11c0 54 -15 101 -102 101c-46 0 -74 -12 -118 -25c-24 -7 -49 -1 -57 23s2 44 25 59c36 24 100 37 163 37c137 0 197 -70 197 -186v-256c0 -32 -16 -58 -54 -58
c-37 0 -54 26 -54 58zM205 78c85 0 130 67 130 130v17c-26 4 -52 5 -89 5c-71 0 -120 -24 -120 -84c0 -40 29 -68 79 -68zM364 636l-116 -76c-22 -16 -50 -21 -66 2c-14 20 -11 46 21 67l120 78c23 15 50 18 65 -5c13 -21 8 -44 -24 -66z" />
    <glyph glyph-name="acircumflex" unicode="&#xe2;" horiz-adv-x="503" 
d="M335 58v18c-27 -47 -77 -86 -160 -86c-101 0 -160 58 -160 147c0 122 105 164 215 164c48 0 87 -4 105 -7v11c0 54 -15 101 -102 101c-46 0 -74 -12 -118 -25c-24 -7 -49 -1 -57 23s2 44 25 59c36 24 100 37 163 37c137 0 197 -70 197 -186v-256c0 -32 -16 -58 -54 -58
c-37 0 -54 26 -54 58zM205 78c85 0 130 67 130 130v17c-26 4 -52 5 -89 5c-71 0 -120 -24 -120 -84c0 -40 29 -68 79 -68zM342 557l-102 75l-92 -71c-19 -14 -45 -19 -59 1c-11 16 -9 40 16 58l105 77c24 18 44 17 68 0l110 -79c26 -19 24 -44 12 -59
c-15 -19 -39 -16 -58 -2z" />
    <glyph glyph-name="atilde" unicode="&#xe3;" horiz-adv-x="503" 
d="M335 58v18c-27 -47 -77 -86 -160 -86c-101 0 -160 58 -160 147c0 122 105 164 215 164c48 0 87 -4 105 -7v11c0 54 -15 101 -102 101c-46 0 -74 -12 -118 -25c-24 -7 -49 -1 -57 23s2 44 25 59c36 24 100 37 163 37c137 0 197 -70 197 -186v-256c0 -32 -16 -58 -54 -58
c-37 0 -54 26 -54 58zM205 78c85 0 130 67 130 130v17c-26 4 -52 5 -89 5c-71 0 -120 -24 -120 -84c0 -40 29 -68 79 -68zM298 633c17 0 26 10 39 21c18 16 38 21 58 4c17 -15 13 -41 -4 -62c-23 -29 -60 -48 -94 -48c-57 0 -88 43 -123 43c-17 0 -27 -9 -42 -22
c-18 -14 -36 -19 -54 -4c-17 15 -15 42 4 64c25 28 59 47 92 47c58 0 93 -43 124 -43z" />
    <glyph glyph-name="adieresis" unicode="&#xe4;" horiz-adv-x="503" 
d="M335 58v18c-27 -47 -77 -86 -160 -86c-101 0 -160 58 -160 147c0 122 105 164 215 164c48 0 87 -4 105 -7v11c0 54 -15 101 -102 101c-46 0 -74 -12 -118 -25c-24 -7 -49 -1 -57 23s2 44 25 59c36 24 100 37 163 37c137 0 197 -70 197 -186v-256c0 -32 -16 -58 -54 -58
c-37 0 -54 26 -54 58zM205 78c85 0 130 67 130 130v17c-26 4 -52 5 -89 5c-71 0 -120 -24 -120 -84c0 -40 29 -68 79 -68zM86 618c0 36 23 61 63 61c39 0 63 -25 63 -61c0 -38 -24 -61 -63 -61c-40 0 -63 23 -63 61zM277 618c0 36 22 61 62 61c39 0 63 -25 63 -61
c0 -38 -24 -61 -63 -61c-40 0 -62 23 -62 61z" />
    <glyph glyph-name="aring" unicode="&#xe5;" horiz-adv-x="503" 
d="M335 58v18c-27 -47 -77 -86 -160 -86c-101 0 -160 58 -160 147c0 122 105 164 215 164c48 0 87 -4 105 -7v11c0 54 -15 101 -102 101c-46 0 -74 -12 -118 -25c-24 -7 -49 -1 -57 23s2 44 25 59c36 24 100 37 163 37c137 0 197 -70 197 -186v-256c0 -32 -16 -58 -54 -58
c-37 0 -54 26 -54 58zM205 78c85 0 130 67 130 130v17c-26 4 -52 5 -89 5c-71 0 -120 -24 -120 -84c0 -40 29 -68 79 -68zM240 729c67 0 109 -38 109 -97c0 -60 -42 -97 -109 -97c-66 0 -109 37 -109 97c0 59 42 97 109 97zM193 632c0 -27 20 -45 47 -45s47 18 47 45
s-20 45 -47 45s-47 -18 -47 -45z" />
    <glyph glyph-name="ccedilla" unicode="&#xe7;" horiz-adv-x="461" 
d="M420 37c-37 -29 -88 -45 -144 -47l-7 -33c81 -5 103 -54 103 -97c0 -52 -40 -100 -125 -100c-44 0 -69 6 -90 17c-19 10 -25 29 -18 45c7 17 24 18 39 14c16 -4 34 -9 53 -9c30 0 43 11 43 32c0 24 -18 34 -59 40c-22 3 -28 19 -24 35l14 62c-107 23 -170 109 -170 245
c0 160 90 259 237 259c54 0 98 -10 129 -28c30 -18 36 -43 25 -67s-31 -32 -66 -21c-27 8 -48 15 -85 15c-77 0 -124 -60 -124 -158c0 -95 51 -150 125 -150c37 0 66 13 96 28c33 16 56 10 68 -10c14 -23 7 -50 -20 -72z" />
    <glyph glyph-name="egrave" unicode="&#xe8;" horiz-adv-x="506" 
d="M402 204h-255c3 -76 53 -123 130 -123c43 0 75 13 106 26c32 13 51 5 62 -14c11 -21 5 -47 -21 -64c-43 -29 -101 -39 -158 -39c-150 0 -231 92 -231 253c0 155 89 257 233 257c131 0 205 -82 205 -199c0 -14 -2 -36 -5 -47c-9 -33 -26 -50 -66 -50zM268 409
c-71 0 -114 -45 -121 -126h221c1 10 1 16 1 25c0 57 -32 101 -101 101zM273 561l-117 77c-32 22 -37 45 -24 65c15 23 43 19 66 4l121 -80c32 -21 34 -46 20 -65c-16 -22 -44 -17 -66 -1z" />
    <glyph glyph-name="eacute" unicode="&#xe9;" horiz-adv-x="506" 
d="M402 204h-255c3 -76 53 -123 130 -123c43 0 75 13 106 26c32 13 51 5 62 -14c11 -21 5 -47 -21 -64c-43 -29 -101 -39 -158 -39c-150 0 -231 92 -231 253c0 155 89 257 233 257c131 0 205 -82 205 -199c0 -14 -2 -36 -5 -47c-9 -33 -26 -50 -66 -50zM268 409
c-71 0 -114 -45 -121 -126h221c1 10 1 16 1 25c0 57 -32 101 -101 101zM389 636l-116 -76c-22 -16 -50 -21 -66 2c-14 20 -11 46 21 67l120 78c23 15 50 18 65 -5c13 -21 8 -44 -24 -66z" />
    <glyph glyph-name="ecircumflex" unicode="&#xea;" horiz-adv-x="506" 
d="M402 204h-255c3 -76 53 -123 130 -123c43 0 75 13 106 26c32 13 51 5 62 -14c11 -21 5 -47 -21 -64c-43 -29 -101 -39 -158 -39c-150 0 -231 92 -231 253c0 155 89 257 233 257c131 0 205 -82 205 -199c0 -14 -2 -36 -5 -47c-9 -33 -26 -50 -66 -50zM268 409
c-71 0 -114 -45 -121 -126h221c1 10 1 16 1 25c0 57 -32 101 -101 101zM367 557l-102 75l-92 -71c-19 -14 -45 -19 -59 1c-11 16 -9 40 16 58l105 77c24 18 44 17 68 0l110 -79c26 -19 24 -44 12 -59c-15 -19 -39 -16 -58 -2z" />
    <glyph glyph-name="edieresis" unicode="&#xeb;" horiz-adv-x="506" 
d="M402 204h-255c3 -76 53 -123 130 -123c43 0 75 13 106 26c32 13 51 5 62 -14c11 -21 5 -47 -21 -64c-43 -29 -101 -39 -158 -39c-150 0 -231 92 -231 253c0 155 89 257 233 257c131 0 205 -82 205 -199c0 -14 -2 -36 -5 -47c-9 -33 -26 -50 -66 -50zM268 409
c-71 0 -114 -45 -121 -126h221c1 10 1 16 1 25c0 57 -32 101 -101 101zM109 618c0 36 23 61 63 61c39 0 63 -25 63 -61c0 -38 -24 -61 -63 -61c-40 0 -63 23 -63 61zM300 618c0 36 22 61 62 61c39 0 63 -25 63 -61c0 -38 -24 -61 -63 -61c-40 0 -62 23 -62 61z" />
    <glyph glyph-name="igrave" unicode="&#xec;" horiz-adv-x="233" 
d="M60 58v374c0 31 19 58 56 58c38 0 57 -27 57 -58v-374c0 -32 -19 -58 -57 -58c-37 0 -56 26 -56 58zM117 561l-117 77c-32 22 -37 45 -24 65c15 23 43 19 66 4l121 -80c32 -21 34 -46 20 -65c-16 -22 -44 -17 -66 -1z" />
    <glyph glyph-name="iacute" unicode="&#xed;" horiz-adv-x="233" 
d="M60 58v374c0 31 19 58 56 58c38 0 57 -27 57 -58v-374c0 -32 -19 -58 -57 -58c-37 0 -56 26 -56 58zM244 636l-116 -76c-22 -16 -50 -21 -66 2c-14 20 -11 46 21 67l120 78c23 15 50 18 65 -5c13 -21 8 -44 -24 -66z" />
    <glyph glyph-name="icircumflex" unicode="&#xee;" horiz-adv-x="233" 
d="M60 58v374c0 31 19 58 56 58c38 0 57 -27 57 -58v-374c0 -32 -19 -58 -57 -58c-37 0 -56 26 -56 58zM213 557l-102 75l-92 -71c-19 -14 -45 -19 -59 1c-11 16 -9 40 16 58l105 77c24 18 44 17 68 0l110 -79c26 -19 24 -44 12 -59c-15 -19 -39 -16 -58 -2z" />
    <glyph glyph-name="idieresis" unicode="&#xef;" horiz-adv-x="233" 
d="M-41 618c0 36 23 61 63 61c39 0 63 -25 63 -61c0 -38 -24 -61 -63 -61c-40 0 -63 23 -63 61zM150 618c0 36 22 61 62 61c39 0 63 -25 63 -61c0 -38 -24 -61 -63 -61c-40 0 -62 23 -62 61zM60 58v374c0 31 19 58 56 58c38 0 57 -27 57 -58v-374c0 -32 -19 -58 -57 -58
c-37 0 -56 26 -56 58z" />
    <glyph glyph-name="ntilde" unicode="&#xf1;" horiz-adv-x="552" 
d="M60 58v374c0 31 19 58 56 58c38 0 57 -27 57 -58v-15c30 57 89 83 148 83c130 0 171 -81 171 -214v-228c0 -32 -19 -58 -57 -58c-37 0 -56 26 -56 58v230c0 66 -21 112 -85 112c-97 0 -119 -101 -121 -213v-129c0 -32 -19 -58 -57 -58c-37 0 -56 26 -56 58zM340 633
c17 0 26 10 39 21c18 16 38 21 58 4c17 -15 13 -41 -4 -62c-23 -29 -60 -48 -94 -48c-57 0 -88 43 -123 43c-17 0 -27 -9 -42 -22c-18 -14 -36 -19 -54 -4c-17 15 -15 42 4 64c25 28 59 47 92 47c58 0 93 -43 124 -43z" />
    <glyph glyph-name="ograve" unicode="&#xf2;" horiz-adv-x="549" 
d="M35 245c0 145 84 255 239 255s240 -111 240 -255c0 -145 -85 -255 -240 -255s-239 110 -239 255zM151 245c0 -91 42 -159 123 -159c83 0 124 68 124 159c0 90 -41 159 -124 159c-82 0 -123 -69 -123 -159zM272 561l-117 77c-32 22 -37 45 -24 65c15 23 43 19 66 4
l121 -80c32 -21 34 -46 20 -65c-16 -22 -44 -17 -66 -1z" />
    <glyph glyph-name="oacute" unicode="&#xf3;" horiz-adv-x="549" 
d="M35 245c0 145 84 255 239 255s240 -111 240 -255c0 -145 -85 -255 -240 -255s-239 110 -239 255zM151 245c0 -91 42 -159 123 -159c83 0 124 68 124 159c0 90 -41 159 -124 159c-82 0 -123 -69 -123 -159zM404 636l-116 -76c-22 -16 -50 -21 -66 2c-14 20 -11 46 21 67
l120 78c23 15 50 18 65 -5c13 -21 8 -44 -24 -66z" />
    <glyph glyph-name="ocircumflex" unicode="&#xf4;" horiz-adv-x="549" 
d="M35 245c0 145 84 255 239 255s240 -111 240 -255c0 -145 -85 -255 -240 -255s-239 110 -239 255zM151 245c0 -91 42 -159 123 -159c83 0 124 68 124 159c0 90 -41 159 -124 159c-82 0 -123 -69 -123 -159zM372 557l-102 75l-92 -71c-19 -14 -45 -19 -59 1
c-11 16 -9 40 16 58l105 77c24 18 44 17 68 0l110 -79c26 -19 24 -44 12 -59c-15 -19 -39 -16 -58 -2z" />
    <glyph glyph-name="otilde" unicode="&#xf5;" horiz-adv-x="549" 
d="M35 245c0 145 84 255 239 255s240 -111 240 -255c0 -145 -85 -255 -240 -255s-239 110 -239 255zM151 245c0 -91 42 -159 123 -159c83 0 124 68 124 159c0 90 -41 159 -124 159c-82 0 -123 -69 -123 -159zM336 633c17 0 26 10 39 21c18 16 38 21 58 4
c17 -15 13 -41 -4 -62c-23 -29 -60 -48 -94 -48c-57 0 -88 43 -123 43c-17 0 -27 -9 -42 -22c-18 -14 -36 -19 -54 -4c-17 15 -15 42 4 64c25 28 59 47 92 47c58 0 93 -43 124 -43z" />
    <glyph glyph-name="odieresis" unicode="&#xf6;" horiz-adv-x="549" 
d="M35 245c0 145 84 255 239 255s240 -111 240 -255c0 -145 -85 -255 -240 -255s-239 110 -239 255zM151 245c0 -91 42 -159 123 -159c83 0 124 68 124 159c0 90 -41 159 -124 159c-82 0 -123 -69 -123 -159zM116 618c0 36 23 61 63 61c39 0 63 -25 63 -61
c0 -38 -24 -61 -63 -61c-40 0 -63 23 -63 61zM307 618c0 36 22 61 62 61c39 0 63 -25 63 -61c0 -38 -24 -61 -63 -61c-40 0 -62 23 -62 61z" />
    <glyph glyph-name="ugrave" unicode="&#xf9;" horiz-adv-x="552" 
d="M492 432v-374c0 -31 -19 -58 -56 -58c-38 0 -57 27 -57 58v15c-30 -57 -89 -83 -148 -83c-130 0 -171 81 -171 214v228c0 32 19 58 57 58c37 0 56 -26 56 -58v-230c0 -66 21 -112 85 -112c97 0 119 101 121 213v129c0 32 19 58 57 58c37 0 56 -26 56 -58zM282 561
l-117 77c-32 22 -37 45 -24 65c15 23 43 19 66 4l121 -80c32 -21 34 -46 20 -65c-16 -22 -44 -17 -66 -1z" />
    <glyph glyph-name="uacute" unicode="&#xfa;" horiz-adv-x="552" 
d="M492 432v-374c0 -31 -19 -58 -56 -58c-38 0 -57 27 -57 58v15c-30 -57 -89 -83 -148 -83c-130 0 -171 81 -171 214v228c0 32 19 58 57 58c37 0 56 -26 56 -58v-230c0 -66 21 -112 85 -112c97 0 119 101 121 213v129c0 32 19 58 57 58c37 0 56 -26 56 -58zM415 636
l-116 -76c-22 -16 -50 -21 -66 2c-14 20 -11 46 21 67l120 78c23 15 50 18 65 -5c13 -21 8 -44 -24 -66z" />
    <glyph glyph-name="ucircumflex" unicode="&#xfb;" horiz-adv-x="552" 
d="M492 432v-374c0 -31 -19 -58 -56 -58c-38 0 -57 27 -57 58v15c-30 -57 -89 -83 -148 -83c-130 0 -171 81 -171 214v228c0 32 19 58 57 58c37 0 56 -26 56 -58v-230c0 -66 21 -112 85 -112c97 0 119 101 121 213v129c0 32 19 58 57 58c37 0 56 -26 56 -58zM376 557
l-102 75l-92 -71c-19 -14 -45 -19 -59 1c-11 16 -9 40 16 58l105 77c24 18 44 17 68 0l110 -79c26 -19 24 -44 12 -59c-15 -19 -39 -16 -58 -2z" />
    <glyph glyph-name="udieresis" unicode="&#xfc;" horiz-adv-x="552" 
d="M492 432v-374c0 -31 -19 -58 -56 -58c-38 0 -57 27 -57 58v15c-30 -57 -89 -83 -148 -83c-130 0 -171 81 -171 214v228c0 32 19 58 57 58c37 0 56 -26 56 -58v-230c0 -66 21 -112 85 -112c97 0 119 101 121 213v129c0 32 19 58 57 58c37 0 56 -26 56 -58zM119 618
c0 36 23 61 63 61c39 0 63 -25 63 -61c0 -38 -24 -61 -63 -61c-40 0 -63 23 -63 61zM310 618c0 36 22 61 62 61c39 0 63 -25 63 -61c0 -38 -24 -61 -63 -61c-40 0 -62 23 -62 61z" />
    <glyph glyph-name="yacute" unicode="&#xfd;" horiz-adv-x="465" 
d="M191 0l-170 401c-14 32 -10 70 26 84c39 15 65 -5 79 -41l117 -310l103 306c13 41 38 59 74 46c36 -12 33 -48 22 -78l-156 -413c-59 -157 -104 -205 -190 -205c-22 0 -57 5 -81 18c-30 17 -43 43 -31 70s35 27 59 20c16 -5 33 -12 54 -12c47 0 70 50 94 114zM365 636
l-116 -76c-22 -16 -50 -21 -66 2c-14 20 -11 46 21 67l120 78c23 15 50 18 65 -5c13 -21 8 -44 -24 -66z" />
    <glyph glyph-name="ydieresis" unicode="&#xff;" horiz-adv-x="465" 
d="M191 0l-170 401c-14 32 -10 70 26 84c39 15 65 -5 79 -41l117 -310l103 306c13 41 38 59 74 46c36 -12 33 -48 22 -78l-156 -413c-59 -157 -104 -205 -190 -205c-22 0 -57 5 -81 18c-30 17 -43 43 -31 70s35 27 59 20c16 -5 33 -12 54 -12c47 0 70 50 94 114zM79 618
c0 36 23 61 63 61c39 0 63 -25 63 -61c0 -38 -24 -61 -63 -61c-40 0 -63 23 -63 61zM270 618c0 36 22 61 62 61c39 0 63 -25 63 -61c0 -38 -24 -61 -63 -61c-40 0 -62 23 -62 61z" />
    <glyph glyph-name="amacron" unicode="&#x101;" horiz-adv-x="503" 
d="M335 58v18c-27 -47 -77 -86 -160 -86c-101 0 -160 58 -160 147c0 122 105 164 215 164c48 0 87 -4 105 -7v11c0 54 -15 101 -102 101c-46 0 -74 -12 -118 -25c-24 -7 -49 -1 -57 23s2 44 25 59c36 24 100 37 163 37c137 0 197 -70 197 -186v-256c0 -32 -16 -58 -54 -58
c-37 0 -54 26 -54 58zM205 78c85 0 130 67 130 130v17c-26 4 -52 5 -89 5c-71 0 -120 -24 -120 -84c0 -40 29 -68 79 -68zM358 568h-229c-32 0 -47 15 -47 40s15 40 47 40h229c33 0 47 -16 47 -40c0 -25 -14 -40 -47 -40z" />
    <glyph glyph-name="abreve" unicode="&#x103;" horiz-adv-x="503" 
d="M335 58v18c-27 -47 -77 -86 -160 -86c-101 0 -160 58 -160 147c0 122 105 164 215 164c48 0 87 -4 105 -7v11c0 54 -15 101 -102 101c-46 0 -74 -12 -118 -25c-24 -7 -49 -1 -57 23s2 44 25 59c36 24 100 37 163 37c137 0 197 -70 197 -186v-256c0 -32 -16 -58 -54 -58
c-37 0 -54 26 -54 58zM205 78c85 0 130 67 130 130v17c-26 4 -52 5 -89 5c-71 0 -120 -24 -120 -84c0 -40 29 -68 79 -68zM243 548c-75 0 -123 37 -144 73c-12 21 -9 47 8 59c24 16 46 4 62 -16c19 -23 38 -41 74 -41s55 19 75 42c16 20 39 30 62 15c18 -12 18 -37 6 -58
c-21 -35 -66 -74 -143 -74z" />
    <glyph glyph-name="aogonek" unicode="&#x105;" horiz-adv-x="498" 
d="M330 17v59c-27 -47 -77 -86 -160 -86c-101 0 -160 58 -160 147c0 122 105 164 215 164c48 0 87 -4 105 -7v11c0 54 -15 101 -102 101c-46 0 -74 -11 -118 -24c-24 -7 -48 -2 -57 22s2 44 25 59c36 24 102 37 163 37c137 0 197 -70 197 -186v-268c0 -31 -7 -42 -23 -59
c-20 -22 -56 -62 -56 -109c0 -24 11 -40 39 -40c13 0 25 4 35 7c16 5 29 1 36 -11c10 -16 2 -41 -19 -55c-19 -12 -41 -19 -75 -19c-72 0 -122 37 -122 108c0 57 30 109 77 149zM200 78c85 0 130 67 130 130v17c-26 4 -52 5 -89 5c-71 0 -120 -24 -120 -84
c0 -40 29 -68 79 -68z" />
    <glyph glyph-name="cacute" unicode="&#x107;" horiz-adv-x="461" 
d="M420 36c-39 -31 -95 -46 -155 -46c-143 0 -230 92 -230 251c0 160 90 259 237 259c54 0 99 -9 129 -28c29 -18 36 -43 25 -67s-31 -32 -66 -21c-27 8 -48 15 -85 15c-77 0 -124 -60 -124 -158c0 -95 51 -150 125 -150c37 0 66 13 96 28c33 16 56 10 68 -10
c14 -23 7 -51 -20 -73zM388 636l-116 -76c-22 -16 -50 -21 -66 2c-14 20 -11 46 21 67l120 78c23 15 50 18 65 -5c13 -21 8 -44 -24 -66z" />
    <glyph glyph-name="ccircumflex" unicode="&#x109;" horiz-adv-x="461" 
d="M420 36c-39 -31 -95 -46 -155 -46c-143 0 -230 92 -230 251c0 160 90 259 237 259c54 0 99 -9 129 -28c29 -18 36 -43 25 -67s-31 -32 -66 -21c-27 8 -48 15 -85 15c-77 0 -124 -60 -124 -158c0 -95 51 -150 125 -150c37 0 66 13 96 28c33 16 56 10 68 -10
c14 -23 7 -51 -20 -73zM363 557l-102 75l-92 -71c-19 -14 -45 -19 -59 1c-11 16 -9 40 16 58l105 77c24 18 44 17 68 0l110 -79c26 -19 24 -44 12 -59c-15 -19 -39 -16 -58 -2z" />
    <glyph glyph-name="cdotaccent" unicode="&#x10b;" horiz-adv-x="461" 
d="M420 36c-39 -31 -95 -46 -155 -46c-143 0 -230 92 -230 251c0 160 90 259 237 259c54 0 99 -9 129 -28c29 -18 36 -43 25 -67s-31 -32 -66 -21c-27 8 -48 15 -85 15c-77 0 -124 -60 -124 -158c0 -95 51 -150 125 -150c37 0 66 13 96 28c33 16 56 10 68 -10
c14 -23 7 -51 -20 -73zM195 619c0 38 26 61 66 61c39 0 66 -23 66 -61c0 -40 -27 -61 -66 -61c-40 0 -66 21 -66 61z" />
    <glyph glyph-name="ccaron" unicode="&#x10d;" horiz-adv-x="461" 
d="M420 36c-39 -31 -95 -46 -155 -46c-143 0 -230 92 -230 251c0 160 90 259 237 259c54 0 99 -9 129 -28c29 -18 36 -43 25 -67s-31 -32 -66 -21c-27 8 -48 15 -85 15c-77 0 -124 -60 -124 -158c0 -95 51 -150 125 -150c37 0 66 13 96 28c33 16 56 10 68 -10
c14 -23 7 -51 -20 -73zM169 699l101 -75l93 70c19 14 44 18 59 -1c12 -16 9 -39 -16 -57l-105 -78c-24 -18 -44 -17 -68 0l-108 78c-26 19 -27 43 -15 59c15 20 40 18 59 4z" />
    <glyph glyph-name="emacron" unicode="&#x113;" horiz-adv-x="506" 
d="M402 204h-255c3 -76 53 -123 130 -123c43 0 75 13 106 26c32 13 51 5 62 -14c11 -21 5 -47 -21 -64c-43 -29 -101 -39 -158 -39c-150 0 -231 92 -231 253c0 155 89 257 233 257c131 0 205 -82 205 -199c0 -14 -2 -36 -5 -47c-9 -33 -26 -50 -66 -50zM268 409
c-71 0 -114 -45 -121 -126h221c1 10 1 16 1 25c0 57 -32 101 -101 101zM384 568h-229c-32 0 -47 15 -47 40s15 40 47 40h229c33 0 47 -16 47 -40c0 -25 -14 -40 -47 -40z" />
    <glyph glyph-name="edotaccent" unicode="&#x117;" horiz-adv-x="506" 
d="M402 204h-255c3 -76 53 -123 130 -123c43 0 75 13 106 26c32 13 51 5 62 -14c11 -21 5 -47 -21 -64c-43 -29 -101 -39 -158 -39c-150 0 -231 92 -231 253c0 155 89 257 233 257c131 0 205 -82 205 -199c0 -14 -2 -36 -5 -47c-9 -33 -26 -50 -66 -50zM268 409
c-71 0 -114 -45 -121 -126h221c1 10 1 16 1 25c0 57 -32 101 -101 101zM200 619c0 38 26 61 66 61c39 0 66 -23 66 -61c0 -40 -27 -61 -66 -61c-40 0 -66 21 -66 61z" />
    <glyph glyph-name="eogonek" unicode="&#x119;" horiz-adv-x="506" 
d="M402 204h-255c3 -76 53 -123 130 -123c43 0 75 12 106 25c32 13 50 6 61 -13c11 -21 6 -48 -20 -65l-21 -11c-25 -21 -74 -75 -74 -137c0 -30 20 -42 42 -42c14 0 25 4 35 7c16 5 29 1 36 -11c10 -16 2 -41 -19 -55c-19 -12 -41 -19 -75 -19c-72 0 -122 43 -122 111
c0 46 17 86 46 119c-160 0 -237 92 -237 253c0 155 89 257 233 257c131 0 205 -82 205 -199c0 -14 -2 -36 -5 -47c-9 -33 -26 -50 -66 -50zM268 409c-71 0 -114 -45 -121 -126h221c1 10 1 16 1 25c0 57 -32 101 -101 101z" />
    <glyph glyph-name="ecaron" unicode="&#x11b;" horiz-adv-x="506" 
d="M402 204h-255c3 -76 53 -123 130 -123c43 0 75 13 106 26c32 13 51 5 62 -14c11 -21 5 -47 -21 -64c-43 -29 -101 -39 -158 -39c-150 0 -231 92 -231 253c0 155 89 257 233 257c131 0 205 -82 205 -199c0 -14 -2 -36 -5 -47c-9 -33 -26 -50 -66 -50zM268 409
c-71 0 -114 -45 -121 -126h221c1 10 1 16 1 25c0 57 -32 101 -101 101zM173 699l101 -75l93 70c19 14 44 18 59 -1c12 -16 9 -39 -16 -57l-105 -78c-24 -18 -44 -17 -68 0l-108 78c-26 19 -27 43 -15 59c15 20 40 18 59 4z" />
    <glyph glyph-name="gcircumflex" unicode="&#x11d;" horiz-adv-x="513" 
d="M50 331c0 100 69 169 200 169c29 0 55 -4 78 -10h138c31 0 46 -13 46 -40c0 -25 -15 -39 -46 -39h-35c12 -24 20 -51 20 -80c0 -97 -69 -167 -201 -167c-37 0 -68 5 -95 15c-17 -11 -27 -27 -27 -41c0 -28 32 -45 153 -50c123 -5 210 -33 210 -127
c0 -98 -84 -171 -251 -171c-175 0 -225 72 -225 141c0 45 26 85 72 111c-33 18 -47 51 -47 79c0 38 22 70 54 96c-29 29 -44 68 -44 114zM249 4c-30 2 -55 5 -78 9c-32 -15 -54 -38 -54 -69c0 -32 31 -67 122 -67c104 0 144 35 144 75c0 34 -36 45 -134 52zM151 331
c0 -48 36 -81 99 -81s99 33 99 81c0 49 -36 83 -99 83s-99 -34 -99 -83zM351 557l-102 75l-92 -71c-19 -14 -45 -19 -59 1c-11 16 -9 40 16 58l105 77c24 18 44 17 68 0l110 -79c26 -19 24 -44 12 -59c-15 -19 -39 -16 -58 -2z" />
    <glyph glyph-name="gbreve" unicode="&#x11f;" horiz-adv-x="513" 
d="M50 331c0 100 69 169 200 169c29 0 55 -4 78 -10h138c31 0 46 -13 46 -40c0 -25 -15 -39 -46 -39h-35c12 -24 20 -51 20 -80c0 -97 -69 -167 -201 -167c-37 0 -68 5 -95 15c-17 -11 -27 -27 -27 -41c0 -28 32 -45 153 -50c123 -5 210 -33 210 -127
c0 -98 -84 -171 -251 -171c-175 0 -225 72 -225 141c0 45 26 85 72 111c-33 18 -47 51 -47 79c0 38 22 70 54 96c-29 29 -44 68 -44 114zM249 4c-30 2 -55 5 -78 9c-32 -15 -54 -38 -54 -69c0 -32 31 -67 122 -67c104 0 144 35 144 75c0 34 -36 45 -134 52zM151 331
c0 -48 36 -81 99 -81s99 33 99 81c0 49 -36 83 -99 83s-99 -34 -99 -83zM253 548c-75 0 -123 37 -144 73c-12 21 -9 47 8 59c24 16 46 4 62 -16c19 -23 38 -41 74 -41s55 19 75 42c16 20 39 30 62 15c18 -12 18 -37 6 -58c-21 -35 -66 -74 -143 -74z" />
    <glyph glyph-name="gdotaccent" unicode="&#x121;" horiz-adv-x="513" 
d="M50 331c0 100 69 169 200 169c29 0 55 -4 78 -10h138c31 0 46 -13 46 -40c0 -25 -15 -39 -46 -39h-35c12 -24 20 -51 20 -80c0 -97 -69 -167 -201 -167c-37 0 -68 5 -95 15c-17 -11 -27 -27 -27 -41c0 -28 32 -45 153 -50c123 -5 210 -33 210 -127
c0 -98 -84 -171 -251 -171c-175 0 -225 72 -225 141c0 45 26 85 72 111c-33 18 -47 51 -47 79c0 38 22 70 54 96c-29 29 -44 68 -44 114zM249 4c-30 2 -55 5 -78 9c-32 -15 -54 -38 -54 -69c0 -32 31 -67 122 -67c104 0 144 35 144 75c0 34 -36 45 -134 52zM151 331
c0 -48 36 -81 99 -81s99 33 99 81c0 49 -36 83 -99 83s-99 -34 -99 -83zM186 619c0 38 26 61 66 61c39 0 66 -23 66 -61c0 -40 -27 -61 -66 -61c-40 0 -66 21 -66 61z" />
    <glyph glyph-name="imacron" unicode="&#x12b;" horiz-adv-x="233" 
d="M60 58v374c0 31 19 58 56 58c38 0 57 -27 57 -58v-374c0 -32 -19 -58 -57 -58c-37 0 -56 26 -56 58zM231 568h-229c-32 0 -47 15 -47 40s15 40 47 40h229c33 0 47 -16 47 -40c0 -25 -14 -40 -47 -40z" />
    <glyph glyph-name="iogonek" unicode="&#x12f;" horiz-adv-x="237" 
d="M152 -13c-20 -22 -59 -62 -59 -109c0 -24 11 -40 39 -40c13 0 25 4 35 7c16 5 29 1 36 -11c10 -16 2 -41 -19 -55c-19 -12 -41 -19 -75 -19c-72 0 -122 37 -122 108c0 57 28 109 75 149v415c0 31 19 58 56 58c38 0 57 -27 57 -58v-386c0 -31 -7 -42 -23 -59zM53 619
c0 38 25 61 65 61c39 0 66 -23 66 -61c0 -40 -27 -61 -66 -61c-40 0 -65 21 -65 61z" />
    <glyph glyph-name="lacute" unicode="&#x13a;" horiz-adv-x="340" 
d="M60 154v478c0 31 19 58 56 58c38 0 57 -27 57 -58v-462c0 -56 16 -80 57 -80c19 0 41 7 53 12c25 10 52 4 61 -19c12 -30 -3 -55 -32 -71c-28 -16 -66 -22 -101 -22c-93 0 -151 47 -151 164zM291 805l-139 -64c-26 -12 -56 -17 -69 10c-13 25 -4 48 31 64l143 67
c26 12 55 13 67 -12s3 -47 -33 -65z" />
    <glyph glyph-name="nacute" unicode="&#x144;" horiz-adv-x="552" 
d="M60 58v374c0 31 19 58 56 58c38 0 57 -27 57 -58v-15c30 57 89 83 148 83c130 0 171 -81 171 -214v-228c0 -32 -19 -58 -57 -58c-37 0 -56 26 -56 58v230c0 66 -21 112 -85 112c-97 0 -119 -101 -121 -213v-129c0 -32 -19 -58 -57 -58c-37 0 -56 26 -56 58zM403 636
l-116 -76c-22 -16 -50 -21 -66 2c-14 20 -11 46 21 67l120 78c23 15 50 18 65 -5c13 -21 8 -44 -24 -66z" />
    <glyph glyph-name="ncaron" unicode="&#x148;" horiz-adv-x="552" 
d="M60 58v374c0 31 19 58 56 58c38 0 57 -27 57 -58v-15c30 57 89 83 148 83c130 0 171 -81 171 -214v-228c0 -32 -19 -58 -57 -58c-37 0 -56 26 -56 58v230c0 66 -21 112 -85 112c-97 0 -119 -101 -121 -213v-129c0 -32 -19 -58 -57 -58c-37 0 -56 26 -56 58zM183 699
l101 -75l93 70c19 14 44 18 59 -1c12 -16 9 -39 -16 -57l-105 -78c-24 -18 -44 -17 -68 0l-108 78c-26 19 -27 43 -15 59c15 20 40 18 59 4z" />
    <glyph glyph-name="omacron" unicode="&#x14d;" horiz-adv-x="549" 
d="M35 245c0 145 84 255 239 255s240 -111 240 -255c0 -145 -85 -255 -240 -255s-239 110 -239 255zM151 245c0 -91 42 -159 123 -159c83 0 124 68 124 159c0 90 -41 159 -124 159c-82 0 -123 -69 -123 -159zM389 568h-229c-32 0 -47 15 -47 40s15 40 47 40h229
c33 0 47 -16 47 -40c0 -25 -14 -40 -47 -40z" />
    <glyph glyph-name="obreve" unicode="&#x14f;" horiz-adv-x="549" 
d="M35 245c0 145 84 255 239 255s240 -111 240 -255c0 -145 -85 -255 -240 -255s-239 110 -239 255zM151 245c0 -91 42 -159 123 -159c83 0 124 68 124 159c0 90 -41 159 -124 159c-82 0 -123 -69 -123 -159zM273 548c-75 0 -123 37 -144 73c-12 21 -9 47 8 59
c24 16 46 4 62 -16c19 -23 38 -41 74 -41s55 19 75 42c16 20 39 30 62 15c18 -12 18 -37 6 -58c-21 -35 -66 -74 -143 -74z" />
    <glyph glyph-name="ohungarumlaut" unicode="&#x151;" horiz-adv-x="549" 
d="M35 245c0 145 84 255 239 255s240 -111 240 -255c0 -145 -85 -255 -240 -255s-239 110 -239 255zM151 245c0 -91 42 -159 123 -159c83 0 124 68 124 159c0 90 -41 159 -124 159c-82 0 -123 -69 -123 -159zM317 643l-108 -72c-21 -14 -46 -19 -62 1c-14 18 -11 42 19 61
l112 75c22 14 48 18 63 -4c13 -20 6 -41 -24 -61zM484 643l-108 -72c-21 -14 -46 -19 -62 1c-14 18 -11 42 19 61l112 75c22 14 48 18 63 -4c13 -20 6 -41 -24 -61z" />
    <glyph glyph-name="racute" unicode="&#x155;" horiz-adv-x="367" 
d="M60 432v-374c0 -32 19 -58 56 -58c38 0 57 26 57 58v169c0 117 27 171 86 171c17 0 32 -4 47 -9c29 -10 52 -3 63 22c16 37 -8 89 -91 89c-44 0 -84 -26 -105 -64c0 26 -19 54 -57 54c-37 0 -56 -27 -56 -58zM344 636l-116 -76c-22 -16 -50 -21 -66 2
c-14 20 -11 46 21 67l120 78c23 15 50 18 65 -5c13 -21 8 -44 -24 -66z" />
    <glyph glyph-name="rcaron" unicode="&#x159;" horiz-adv-x="367" 
d="M60 432v-374c0 -32 19 -58 56 -58c38 0 57 26 57 58v169c0 117 27 171 86 171c17 0 32 -4 47 -9c29 -10 52 -3 63 22c16 37 -8 89 -91 89c-44 0 -84 -26 -105 -64c0 26 -19 54 -57 54c-37 0 -56 -27 -56 -58zM114 699l101 -75l93 70c19 14 44 18 59 -1
c12 -16 9 -39 -16 -57l-105 -78c-24 -18 -44 -17 -68 0l-108 78c-26 19 -27 43 -15 59c15 20 40 18 59 4z" />
    <glyph glyph-name="sacute" unicode="&#x15b;" horiz-adv-x="433" 
d="M219 500c58 0 110 -14 143 -33c32 -18 38 -43 28 -66c-11 -24 -31 -29 -63 -19c-28 11 -67 27 -104 27c-46 0 -67 -17 -67 -45c0 -92 252 -52 252 -222c0 -95 -63 -152 -198 -152c-51 0 -116 12 -156 38c-27 19 -36 42 -23 69c15 31 47 24 73 12c38 -17 79 -28 116 -28
c50 0 74 17 74 51c0 95 -252 51 -252 228c0 93 72 140 177 140zM339 636l-116 -76c-22 -16 -50 -21 -66 2c-14 20 -11 46 21 67l120 78c23 15 50 18 65 -5c13 -21 8 -44 -24 -66z" />
    <glyph glyph-name="scircumflex" unicode="&#x15d;" horiz-adv-x="433" 
d="M219 500c58 0 110 -14 143 -33c32 -18 38 -43 28 -66c-11 -24 -31 -29 -63 -19c-28 11 -67 27 -104 27c-46 0 -67 -17 -67 -45c0 -92 252 -52 252 -222c0 -95 -63 -152 -198 -152c-51 0 -116 12 -156 38c-27 19 -36 42 -23 69c15 31 47 24 73 12c38 -17 79 -28 116 -28
c50 0 74 17 74 51c0 95 -252 51 -252 228c0 93 72 140 177 140zM324 557l-102 75l-92 -71c-19 -14 -45 -19 -59 1c-11 16 -9 40 16 58l105 77c24 18 44 17 68 0l110 -79c26 -19 24 -44 12 -59c-15 -19 -39 -16 -58 -2z" />
    <glyph glyph-name="umacron" unicode="&#x16b;" horiz-adv-x="552" 
d="M492 432v-374c0 -31 -19 -58 -56 -58c-38 0 -57 27 -57 58v15c-30 -57 -89 -83 -148 -83c-130 0 -171 81 -171 214v228c0 32 19 58 57 58c37 0 56 -26 56 -58v-230c0 -66 21 -112 85 -112c97 0 119 101 121 213v129c0 32 19 58 57 58c37 0 56 -26 56 -58zM391 568h-229
c-32 0 -47 15 -47 40s15 40 47 40h229c33 0 47 -16 47 -40c0 -25 -14 -40 -47 -40z" />
    <glyph glyph-name="ubreve" unicode="&#x16d;" horiz-adv-x="552" 
d="M492 432v-374c0 -31 -19 -58 -56 -58c-38 0 -57 27 -57 58v15c-30 -57 -89 -83 -148 -83c-130 0 -171 81 -171 214v228c0 32 19 58 57 58c37 0 56 -26 56 -58v-230c0 -66 21 -112 85 -112c97 0 119 101 121 213v129c0 32 19 58 57 58c37 0 56 -26 56 -58zM276 548
c-75 0 -123 37 -144 73c-12 21 -9 47 8 59c24 16 46 4 62 -16c19 -23 38 -41 74 -41s55 19 75 42c16 20 39 30 62 15c18 -12 18 -37 6 -58c-21 -35 -66 -74 -143 -74z" />
    <glyph glyph-name="uring" unicode="&#x16f;" horiz-adv-x="552" 
d="M492 432v-374c0 -31 -19 -58 -56 -58c-38 0 -57 27 -57 58v15c-30 -57 -89 -83 -148 -83c-130 0 -171 81 -171 214v228c0 32 19 58 57 58c37 0 56 -26 56 -58v-230c0 -66 21 -112 85 -112c97 0 119 101 121 213v129c0 32 19 58 57 58c37 0 56 -26 56 -58zM277 729
c67 0 109 -38 109 -97c0 -60 -42 -97 -109 -97c-66 0 -109 37 -109 97c0 59 42 97 109 97zM230 632c0 -27 20 -45 47 -45s47 18 47 45s-20 45 -47 45s-47 -18 -47 -45z" />
    <glyph glyph-name="uhungarumlaut" unicode="&#x171;" horiz-adv-x="552" 
d="M492 432v-374c0 -31 -19 -58 -56 -58c-38 0 -57 27 -57 58v15c-30 -57 -89 -83 -148 -83c-130 0 -171 81 -171 214v228c0 32 19 58 57 58c37 0 56 -26 56 -58v-230c0 -66 21 -112 85 -112c97 0 119 101 121 213v129c0 32 19 58 57 58c37 0 56 -26 56 -58zM316 643
l-108 -72c-21 -14 -46 -19 -62 1c-14 18 -11 42 19 61l112 75c22 14 48 18 63 -4c13 -20 6 -41 -24 -61zM483 643l-108 -72c-21 -14 -46 -19 -62 1c-14 18 -11 42 19 61l112 75c22 14 48 18 63 -4c13 -20 6 -41 -24 -61z" />
    <glyph glyph-name="uogonek" unicode="&#x173;" horiz-adv-x="552" 
d="M492 432v-386c0 -31 -7 -42 -23 -59c-20 -22 -59 -62 -59 -109c0 -24 11 -40 39 -40c13 0 25 4 35 7c16 5 29 1 36 -11c10 -16 2 -41 -19 -55c-19 -12 -41 -19 -75 -19c-72 0 -122 37 -122 108c0 57 28 109 75 149v56c-30 -57 -91 -83 -150 -83c-130 0 -169 81 -169 214
v228c0 32 19 58 57 58c37 0 56 -26 56 -58v-230c0 -66 19 -112 83 -112c97 0 121 101 123 213v129c0 32 19 58 57 58c37 0 56 -26 56 -58z" />
    <glyph glyph-name="zacute" unicode="&#x17a;" horiz-adv-x="453" 
d="M91 490h274c62 0 72 -54 41 -93l-242 -301h213c35 0 53 -17 53 -48c0 -30 -18 -48 -53 -48h-296c-57 0 -69 53 -39 92l246 302h-197c-35 0 -53 18 -53 48c0 31 18 48 53 48zM349 636l-116 -76c-22 -16 -50 -21 -66 2c-14 20 -11 46 21 67l120 78c23 15 50 18 65 -5
c13 -21 8 -44 -24 -66z" />
    <glyph glyph-name="zdotaccent" unicode="&#x17c;" horiz-adv-x="453" 
d="M91 490h274c62 0 72 -54 41 -93l-242 -301h213c35 0 53 -17 53 -48c0 -30 -18 -48 -53 -48h-296c-57 0 -69 53 -39 92l246 302h-197c-35 0 -53 18 -53 48c0 31 18 48 53 48zM162 619c0 38 26 61 66 61c39 0 66 -23 66 -61c0 -40 -27 -61 -66 -61c-40 0 -66 21 -66 61z
" />
    <glyph glyph-name="zcaron" unicode="&#x17e;" horiz-adv-x="453" 
d="M91 490h274c62 0 72 -54 41 -93l-242 -301h213c35 0 53 -17 53 -48c0 -30 -18 -48 -53 -48h-296c-57 0 -69 53 -39 92l246 302h-197c-35 0 -53 18 -53 48c0 31 18 48 53 48zM138 699l101 -75l93 70c19 14 44 18 59 -1c12 -16 9 -39 -16 -57l-105 -78
c-24 -18 -44 -17 -68 0l-108 78c-26 19 -27 43 -15 59c15 20 40 18 59 4z" />
    <glyph glyph-name="uni01D0" unicode="&#x1d0;" horiz-adv-x="237" 
d="M62 58v374c0 31 19 58 56 58c38 0 57 -27 57 -58v-374c0 -32 -19 -58 -57 -58c-37 0 -56 26 -56 58zM22 699l101 -75l93 70c19 14 44 18 59 -1c12 -16 9 -39 -16 -57l-105 -78c-24 -18 -44 -17 -68 0l-108 78c-26 19 -27 43 -15 59c15 20 40 18 59 4z" />
    <glyph glyph-name="gcaron" unicode="&#x1e7;" horiz-adv-x="513" 
d="M50 331c0 100 69 169 200 169c29 0 55 -4 78 -10h138c31 0 46 -13 46 -40c0 -25 -15 -39 -46 -39h-35c12 -24 20 -51 20 -80c0 -97 -69 -167 -201 -167c-37 0 -68 5 -95 15c-17 -11 -27 -27 -27 -41c0 -28 32 -45 153 -50c123 -5 210 -33 210 -127
c0 -98 -84 -171 -251 -171c-175 0 -225 72 -225 141c0 45 26 85 72 111c-33 18 -47 51 -47 79c0 38 22 70 54 96c-29 29 -44 68 -44 114zM249 4c-30 2 -55 5 -78 9c-32 -15 -54 -38 -54 -69c0 -32 31 -67 122 -67c104 0 144 35 144 75c0 34 -36 45 -134 52zM151 331
c0 -48 36 -81 99 -81s99 33 99 81c0 49 -36 83 -99 83s-99 -34 -99 -83zM158 699l101 -75l93 70c19 14 44 18 59 -1c12 -16 9 -39 -16 -57l-105 -78c-24 -18 -44 -17 -68 0l-108 78c-26 19 -27 43 -15 59c15 20 40 18 59 4z" />
    <glyph glyph-name="afii10100" unicode="&#x453;" horiz-adv-x="390" 
d="M340 490h-224c-36 0 -56 -27 -56 -58v-374c0 -32 19 -58 56 -58c38 0 57 26 57 58v332h167c36 0 54 19 54 49c0 31 -18 51 -54 51zM340 636l-116 -76c-22 -16 -50 -21 -66 2c-14 20 -11 46 21 67l120 78c23 15 50 18 65 -5c13 -21 8 -44 -24 -66z" />
    <glyph glyph-name="afii10109" unicode="&#x45c;" horiz-adv-x="463" 
d="M60 58v374c0 31 18 58 55 58c38 0 56 -27 56 -58v-164l170 193c30 34 60 37 84 14c20 -20 17 -50 -8 -77l-142 -151l159 -149c25 -24 29 -58 9 -79c-27 -29 -59 -21 -87 8l-185 188v-157c0 -32 -18 -58 -56 -58c-37 0 -55 26 -55 58zM370 636l-116 -76
c-22 -16 -50 -21 -66 2c-14 20 -11 46 21 67l120 78c23 15 50 18 65 -5c13 -21 8 -44 -24 -66z" />
    <glyph glyph-name="afii10110" unicode="&#x45e;" horiz-adv-x="465" 
d="M191 0l-170 401c-14 32 -10 70 26 84c39 15 65 -5 79 -41l117 -310l103 306c13 41 38 59 74 46c36 -12 33 -48 22 -78l-156 -413c-59 -157 -104 -205 -190 -205c-22 0 -57 5 -81 18c-30 17 -43 43 -31 70s35 27 59 20c16 -5 33 -12 54 -12c47 0 70 50 94 114zM235 548
c-75 0 -123 37 -144 73c-12 21 -9 47 8 59c24 16 46 4 62 -16c19 -23 38 -41 74 -41s55 19 75 42c16 20 39 30 62 15c18 -12 18 -37 6 -58c-21 -35 -66 -74 -143 -74z" />
    <glyph glyph-name="Delta" unicode="&#x2206;" horiz-adv-x="607" 
d="M590 92c18 -43 1 -92 -50 -92h-471c-56 0 -70 42 -50 91l225 561c13 33 33 48 61 48c31 0 48 -18 58 -43zM300 533l-168 -430h335z" />
    <glyph glyph-name="summation" unicode="&#x2211;" horiz-adv-x="543" 
d="M268 244l-239 347c-28 41 -13 100 46 99h395c30 0 58 -14 58 -54s-28 -54 -58 -54h-298l202 -288c23 -33 22 -64 0 -95l-205 -291h301c30 0 58 -14 58 -54s-28 -54 -58 -54h-396c-72 0 -67 64 -45 96z" />
    <glyph glyph-name="Omega" unicode="&#x2126;" horiz-adv-x="743" 
d="M371 593c-128 0 -214 -76 -214 -211c0 -117 60 -163 120 -190c34 -15 39 -30 39 -59v-72c0 -31 -16 -61 -53 -61h-171c-35 0 -57 16 -57 48c0 33 22 49 57 49h124v24c-99 23 -185 114 -185 264c0 186 130 315 340 315c211 0 341 -129 341 -315c0 -150 -88 -240 -185 -264
v-24h123c36 0 58 -16 58 -49c0 -32 -22 -48 -58 -48h-171c-37 0 -52 30 -52 61v72c0 29 5 44 39 59c59 27 120 73 120 190c0 135 -87 211 -215 211z" />
    <glyph glyph-name="afii61352" unicode="&#x2116;" horiz-adv-x="1079" 
d="M764 294h204c36 0 54 -17 54 -48c0 -30 -18 -48 -54 -48h-204c-35 0 -53 18 -53 48c0 31 18 48 53 48zM705 509c0 117 58 191 162 191c103 0 162 -74 162 -191c0 -116 -59 -189 -162 -189c-104 0 -162 73 -162 189zM931 509c0 70 -21 108 -64 108c-45 0 -64 -38 -64 -108
s21 -106 64 -106c44 0 64 36 64 106zM520 213v415c0 33 13 62 54 62c42 0 55 -29 55 -62v-567c0 -36 -22 -61 -57 -61c-24 0 -41 14 -54 30l-334 443v-412c0 -33 -14 -61 -55 -61s-54 28 -54 61v566c0 32 14 63 56 63c26 0 46 -15 59 -33z" />
    <glyph glyph-name="quotesingle" unicode="'" horiz-adv-x="204" 
d="M55 514v135c0 28 15 51 47 51s47 -23 47 -51v-135c0 -28 -15 -50 -47 -50s-47 22 -47 50z" />
    <glyph glyph-name="quotedbl" unicode="&#x22;" horiz-adv-x="338" 
d="M55 514v135c0 28 15 51 47 51s47 -23 47 -51v-135c0 -28 -15 -50 -47 -50s-47 22 -47 50zM188 514v135c0 28 16 51 48 51s47 -23 47 -51v-135c0 -28 -15 -50 -47 -50s-48 22 -48 50z" />
    <glyph glyph-name="uni04EF" unicode="&#x4ef;" horiz-adv-x="465" 
d="M191 0l-170 401c-14 32 -10 70 26 84c39 15 65 -5 79 -41l117 -310l103 306c13 41 38 59 74 46c36 -12 33 -48 22 -78l-156 -413c-59 -157 -104 -205 -190 -205c-22 0 -57 5 -81 18c-30 17 -43 43 -31 70s35 27 59 20c16 -5 33 -12 54 -12c47 0 70 50 94 114zM347 568
h-229c-32 0 -47 15 -47 40s15 40 47 40h229c33 0 47 -16 47 -40c0 -25 -14 -40 -47 -40z" />
    <glyph glyph-name="uni04E7" unicode="&#x4e7;" horiz-adv-x="549" 
d="M35 245c0 145 84 255 239 255s240 -111 240 -255c0 -145 -85 -255 -240 -255s-239 110 -239 255zM151 245c0 -91 42 -159 123 -159c83 0 124 68 124 159c0 90 -41 159 -124 159c-82 0 -123 -69 -123 -159zM116 618c0 36 23 61 63 61c39 0 63 -25 63 -61
c0 -38 -24 -61 -63 -61c-40 0 -63 23 -63 61zM307 618c0 36 22 61 62 61c39 0 63 -25 63 -61c0 -38 -24 -61 -63 -61c-40 0 -62 23 -62 61z" />
    <glyph glyph-name="uni04E5" unicode="&#x4e5;" horiz-adv-x="554" 
d="M381 58v253l-216 -283c-12 -16 -28 -28 -51 -28c-37 0 -54 25 -54 58v374c0 32 20 58 57 58s56 -26 56 -58v-255l212 280c14 20 30 33 55 33c38 0 54 -26 54 -58v-374c0 -33 -19 -58 -57 -58c-37 0 -56 25 -56 58zM120 618c0 36 23 61 63 61c39 0 63 -25 63 -61
c0 -38 -24 -61 -63 -61c-40 0 -63 23 -63 61zM311 618c0 36 22 61 62 61c39 0 63 -25 63 -61c0 -38 -24 -61 -63 -61c-40 0 -62 23 -62 61z" />
    <glyph glyph-name="uni04E3" unicode="&#x4e3;" horiz-adv-x="554" 
d="M381 58v253l-216 -283c-12 -16 -28 -28 -51 -28c-37 0 -54 25 -54 58v374c0 32 20 58 57 58s56 -26 56 -58v-255l212 280c14 20 30 33 55 33c38 0 54 -26 54 -58v-374c0 -33 -19 -58 -57 -58c-37 0 -56 25 -56 58zM392 568h-229c-32 0 -47 15 -47 40s15 40 47 40h229
c33 0 47 -16 47 -40c0 -25 -14 -40 -47 -40z" />
    <glyph glyph-name="uni04DF" unicode="&#x4df;" horiz-adv-x="451" 
d="M211 404c-32 0 -63 -9 -97 -22c-32 -12 -55 -7 -66 15c-11 25 -1 50 25 66c44 27 101 37 152 37c118 0 174 -57 174 -132c0 -50 -31 -97 -80 -112c54 -12 92 -52 92 -112c0 -92 -64 -154 -193 -154c-55 0 -120 9 -159 32c-26 16 -34 40 -24 65c9 23 29 30 61 20
c33 -10 73 -21 111 -21c69 0 90 31 90 63c0 44 -35 62 -99 62h-40c-34 0 -48 12 -48 38c0 28 16 39 48 39h36c56 0 91 19 91 61c0 30 -20 55 -74 55zM61 618c0 36 23 61 63 61c39 0 63 -25 63 -61c0 -38 -24 -61 -63 -61c-40 0 -63 23 -63 61zM252 618c0 36 22 61 62 61
c39 0 63 -25 63 -61c0 -38 -24 -61 -63 -61c-40 0 -62 23 -62 61z" />
    <glyph glyph-name="uni04DD" unicode="&#x4dd;" horiz-adv-x="643" 
d="M273 58v160l-169 -191c-27 -30 -60 -37 -86 -8c-19 21 -13 53 12 79l145 150l-134 151c-24 28 -24 56 -4 76c23 23 54 19 81 -15l155 -192v164c0 31 12 58 49 58s49 -27 49 -58v-165l155 192c28 35 59 37 80 15c20 -20 17 -47 -7 -75l-129 -148l145 -155
c24 -25 29 -56 10 -78c-23 -26 -56 -23 -83 7l-171 193v-160c0 -32 -12 -58 -49 -58s-49 26 -49 58zM166 618c0 36 23 61 63 61c39 0 63 -25 63 -61c0 -38 -24 -61 -63 -61c-40 0 -63 23 -63 61zM357 618c0 36 22 61 62 61c39 0 63 -25 63 -61c0 -38 -24 -61 -63 -61
c-40 0 -62 23 -62 61z" />
    <glyph glyph-name="uni04F9" unicode="&#x4f9;" horiz-adv-x="653" 
d="M226 88c-21 0 -37 1 -53 3v147c16 2 36 5 61 5c64 0 87 -25 87 -76c0 -54 -32 -79 -95 -79zM60 69c0 -35 11 -56 47 -65c24 -6 70 -9 100 -9c117 0 228 37 228 171c0 101 -55 164 -186 164c-27 0 -57 -3 -76 -6v108c0 37 -25 58 -57 58c-30 0 -56 -20 -56 -57v-364z
M480 58v374c0 31 19 58 56 58c38 0 57 -27 57 -58v-374c0 -32 -19 -58 -57 -58c-37 0 -56 26 -56 58zM168 618c0 36 23 61 63 61c39 0 63 -25 63 -61c0 -38 -24 -61 -63 -61c-40 0 -63 23 -63 61zM359 618c0 36 22 61 62 61c39 0 63 -25 63 -61c0 -38 -24 -61 -63 -61
c-40 0 -62 23 -62 61z" />
    <glyph glyph-name="uni04F5" unicode="&#x4f5;" horiz-adv-x="478" 
d="M305 58v124c-28 -17 -74 -31 -112 -31c-106 0 -168 43 -168 194v87c0 31 19 58 56 58c38 0 57 -27 57 -58v-70c0 -70 13 -115 75 -115c34 0 66 10 92 28v157c0 31 19 58 56 58c38 0 57 -27 57 -58v-374c0 -32 -19 -58 -57 -58c-37 0 -56 26 -56 58zM63 618
c0 36 23 61 63 61c39 0 63 -25 63 -61c0 -38 -24 -61 -63 -61c-40 0 -63 23 -63 61zM254 618c0 36 22 61 62 61c39 0 63 -25 63 -61c0 -38 -24 -61 -63 -61c-40 0 -62 23 -62 61z" />
    <glyph glyph-name="uni04A4" unicode="&#x4a4;" horiz-adv-x="928" 
d="M511 61v238h-316v-238c0 -34 -21 -61 -60 -61c-40 0 -60 27 -60 61v567c0 34 20 62 60 62c39 0 60 -28 60 -62v-222h316v222c0 34 20 62 60 62h295c35 0 57 -21 57 -54c0 -32 -22 -53 -57 -53h-235v-522c0 -34 -21 -61 -60 -61c-40 0 -60 27 -60 61z" />
    <glyph glyph-name="uni04A5" unicode="&#x4a5;" horiz-adv-x="703" 
d="M431 490h222c36 0 54 -20 54 -51c0 -30 -18 -49 -54 -49h-165v-332c0 -32 -19 -58 -57 -58c-37 0 -56 26 -56 58v145h-202v-145c0 -32 -19 -58 -57 -58c-37 0 -56 26 -56 58v374c0 31 19 58 56 58c38 0 57 -27 57 -58v-129h202v129c0 31 20 58 56 58z" />
    <glyph glyph-name="trademark" unicode="&#x2122;" horiz-adv-x="850" 
d="M392 367v275c0 40 17 58 49 58c28 0 45 -17 57 -34l105 -144l104 144c11 15 28 34 58 34c33 0 49 -26 49 -56v-277c0 -31 -18 -57 -55 -57s-55 26 -55 57v165l-56 -80c-19 -25 -34 -31 -52 -31s-33 6 -52 30l-51 72v-156c0 -31 -14 -57 -51 -57c-35 0 -50 26 -50 57z
M319 597h-76v-230c0 -31 -18 -57 -55 -57s-55 26 -55 57v230h-76c-30 0 -50 17 -50 46s20 47 50 47h262c30 0 51 -18 51 -47s-21 -46 -51 -46z" />
    <glyph glyph-name="scaron" unicode="&#x161;" horiz-adv-x="433" 
d="M219 500c58 0 110 -14 143 -33c32 -18 38 -43 28 -66c-11 -24 -31 -29 -63 -19c-28 11 -67 27 -104 27c-46 0 -67 -17 -67 -45c0 -92 252 -52 252 -222c0 -95 -63 -152 -198 -152c-51 0 -116 12 -156 38c-27 19 -36 42 -23 69c15 31 47 24 73 12c38 -17 79 -28 116 -28
c50 0 74 17 74 51c0 95 -252 51 -252 228c0 93 72 140 177 140zM134 699l101 -75l93 70c19 14 44 18 59 -1c12 -16 9 -39 -16 -57l-105 -78c-24 -18 -44 -17 -68 0l-108 78c-26 19 -27 43 -15 59c15 20 40 18 59 4z" />
    <glyph glyph-name="uni04A2" unicode="&#x4a2;" horiz-adv-x="757" 
d="M513 61v238h-318v-238c0 -34 -21 -61 -60 -61c-40 0 -60 27 -60 61v567c0 34 20 62 60 62c39 0 60 -28 60 -62v-222h318v222c0 34 20 62 60 62c39 0 60 -28 60 -62v-521h35c37 0 54 -27 54 -59v-133c0 -34 -17 -61 -56 -61s-57 27 -57 61v85h-36c-40 0 -60 27 -60 61z
" />
    <glyph glyph-name="uni04A3" unicode="&#x4a3;" horiz-adv-x="582" 
d="M377 58v145h-204v-145c0 -32 -19 -58 -57 -58c-37 0 -56 26 -56 58v374c0 31 19 58 56 58c38 0 57 -27 57 -58v-129h204v129c0 31 19 58 56 58c38 0 57 -27 57 -58v-332h19c33 0 48 -24 48 -52v-110c0 -30 -14 -54 -48 -54s-49 24 -49 54v62h-27c-37 0 -56 26 -56 58z
" />
    <glyph glyph-name="asterisk" unicode="*" horiz-adv-x="365" 
d="M263 551l37 -20c19 -10 28 -31 16 -56c-15 -30 -42 -27 -59 -14l-34 25l2 -41c0 -23 -11 -42 -42 -42s-44 19 -43 42l2 41l-34 -25c-18 -13 -45 -14 -60 14c-13 25 -2 45 17 56l36 20l-36 21c-19 11 -30 31 -17 56c15 28 42 26 60 13l34 -24l-2 41c0 23 12 42 43 42
s43 -19 42 -42l-2 -41l34 24c17 12 43 15 59 -13c14 -25 2 -46 -16 -56z" />
    <glyph glyph-name="uni04D1" unicode="&#x4d1;" horiz-adv-x="503" 
d="M335 58v18c-27 -47 -77 -86 -160 -86c-101 0 -160 58 -160 147c0 122 105 164 215 164c48 0 87 -4 105 -7v11c0 54 -15 101 -102 101c-46 0 -74 -12 -118 -25c-24 -7 -49 -1 -57 23s2 44 25 59c36 24 100 37 163 37c137 0 197 -70 197 -186v-256c0 -32 -16 -58 -54 -58
c-37 0 -54 26 -54 58zM205 78c85 0 130 67 130 130v17c-26 4 -52 5 -89 5c-71 0 -120 -24 -120 -84c0 -40 29 -68 79 -68zM245 548c-75 0 -123 37 -144 73c-12 21 -9 47 8 59c24 16 46 4 62 -16c19 -23 38 -41 74 -41s55 19 75 42c16 20 39 30 62 15c18 -12 18 -37 6 -58
c-21 -35 -66 -74 -143 -74z" />
    <glyph glyph-name="uni04D7" unicode="&#x4d7;" horiz-adv-x="506" 
d="M402 204h-255c3 -76 53 -123 130 -123c43 0 75 13 106 26c32 13 51 5 62 -14c11 -21 5 -47 -21 -64c-43 -29 -101 -39 -158 -39c-150 0 -231 92 -231 253c0 155 89 257 233 257c131 0 205 -82 205 -199c0 -14 -2 -36 -5 -47c-9 -33 -26 -50 -66 -50zM268 409
c-71 0 -114 -45 -121 -126h221c1 10 1 16 1 25c0 57 -32 101 -101 101zM264 548c-75 0 -123 37 -144 73c-12 21 -9 47 8 59c24 16 46 4 62 -16c19 -23 38 -41 74 -41s55 19 75 42c16 20 39 30 62 15c18 -12 18 -37 6 -58c-21 -35 -66 -74 -143 -74z" />
    <glyph glyph-name="uni04B6" unicode="&#x4b6;" horiz-adv-x="655" 
d="M411 389v239c0 34 20 62 60 62s60 -28 60 -62v-521h35c37 0 54 -27 54 -59v-133c0 -34 -17 -61 -56 -61s-57 27 -57 61v85h-36c-40 0 -60 27 -60 61v221c-44 -30 -107 -48 -160 -48c-134 0 -216 51 -216 239v155c0 33 21 62 60 62c40 0 60 -29 60 -62v-149
c0 -106 36 -141 113 -141c47 0 98 20 143 51z" />
    <glyph glyph-name="uni04B7" unicode="&#x4b7;" horiz-adv-x="510" 
d="M305 58v124c-28 -17 -74 -31 -112 -31c-101 0 -168 46 -168 194v87c0 31 19 58 56 58c38 0 57 -27 57 -58v-70c0 -70 13 -115 75 -115c34 0 66 10 92 28v157c0 31 19 58 56 58c38 0 57 -27 57 -58v-332h19c33 0 48 -24 48 -52v-110c0 -30 -14 -54 -48 -54s-49 24 -49 54
v62h-27c-37 0 -56 26 -56 58z" />
    <glyph glyph-name="uni04AF" unicode="&#x4af;" horiz-adv-x="466" 
d="M442 408l-152 -375v-175c0 -32 -19 -58 -57 -58c-37 0 -56 26 -56 58v174l-153 368c-13 31 -12 71 25 85c35 13 64 -4 77 -40l109 -298l111 296c15 42 41 55 74 42c36 -14 35 -48 22 -77z" />
    <glyph glyph-name="uni04A0" unicode="&#x4a0;" horiz-adv-x="664" 
d="M168 61v522h-115c-35 0 -57 21 -57 53c0 33 22 54 57 54h175c39 0 60 -28 60 -62v-252l245 281c27 31 59 45 89 18c28 -25 18 -63 -7 -89l-215 -230l230 -241c29 -30 39 -70 12 -96c-32 -31 -67 -18 -97 14l-257 282v-254c0 -34 -21 -61 -60 -61c-40 0 -60 27 -60 61z
" />
    <glyph glyph-name="uni04A1" unicode="&#x4a1;" horiz-adv-x="521" 
d="M119 58v332h-70c-35 0 -53 19 -53 49c0 31 18 51 53 51h125c38 0 56 -27 56 -58v-164l171 193c30 34 59 37 83 14c20 -20 17 -50 -8 -77l-142 -151l159 -149c25 -24 29 -58 9 -79c-27 -29 -59 -21 -87 8l-185 188v-157c0 -32 -18 -58 -56 -58c-37 0 -55 26 -55 58z" />
    <glyph glyph-name="currency" unicode="&#xa4;" horiz-adv-x="629" 
d="M96 351c0 51 12 94 33 128l-50 52c-26 26 -34 61 -8 86c28 26 61 16 82 -9l50 -59c35 20 77 31 123 31c45 0 87 -10 122 -30l50 58c21 25 54 35 82 9c26 -25 18 -60 -8 -86l-51 -52c22 -34 34 -77 34 -128s-12 -94 -33 -129l50 -51c26 -26 34 -61 8 -86
c-28 -26 -61 -16 -82 9l-49 57c-36 -20 -78 -30 -123 -30c-46 0 -88 11 -124 31l-49 -58c-21 -25 -54 -35 -82 -9c-26 25 -18 60 8 86l50 51c-21 35 -33 78 -33 129zM192 350c0 -85 55 -138 134 -138s133 53 133 138s-54 139 -133 139s-134 -59 -134 -139z" />
    <glyph glyph-name="afii10050" unicode="&#x490;" horiz-adv-x="489" 
d="M133 690h247v60c0 31 15 57 52 57s52 -26 52 -57v-113c0 -32 -21 -54 -59 -54h-230v-522c0 -34 -21 -61 -60 -61c-40 0 -60 27 -60 61v567c0 33 20 62 58 62z" />
    <glyph glyph-name="afii10098" unicode="&#x491;" horiz-adv-x="383" 
d="M60 59v372c0 32 22 59 59 59h173v51c0 29 14 53 48 53s47 -24 47 -53v-98c0 -32 -19 -53 -56 -53h-153v-331c0 -34 -22 -59 -59 -59s-59 25 -59 59z" />
    <glyph glyph-name="partialdiff" unicode="&#x2202;" horiz-adv-x="544" 
d="M238 86c101 0 147 109 157 221c-13 56 -56 86 -113 86c-94 0 -144 -81 -144 -176c0 -73 27 -131 100 -131zM332 574c-34 18 -82 30 -120 38s-53 28 -48 55c5 25 21 35 60 33c59 -3 111 -16 154 -39c88 -47 140 -132 140 -240c0 -202 -75 -431 -292 -431
c-127 0 -201 83 -201 208c0 153 86 292 251 292c66 0 119 -25 145 -70c-2 78 -31 123 -89 154z" />
    <glyph glyph-name="eth" unicode="&#xf0;" horiz-adv-x="541" 
d="M384 664l-27 -23c108 -68 149 -175 149 -323c0 -191 -73 -328 -235 -328c-152 0 -236 97 -236 251c0 137 65 248 209 248c66 0 119 -20 156 -70c-8 65 -53 125 -110 153l-52 -46c-11 -11 -33 -20 -48 -4c-14 14 -8 33 7 47l32 27c-30 8 -56 12 -79 16
c-31 6 -47 25 -43 51c6 35 32 40 71 36c43 -4 86 -13 123 -30l42 37c12 11 31 17 46 3c14 -14 6 -35 -5 -45zM270 86c101 0 122 98 122 221c-22 52 -63 86 -121 86c-81 0 -120 -56 -120 -151c0 -92 44 -156 119 -156z" />
    <glyph glyph-name="paragraph" unicode="&#xb6;" horiz-adv-x="456" 
d="M146 -60v350c-82 5 -141 89 -141 200c0 112 73 200 179 200c41 0 56 -18 56 -55v-695c0 -28 -15 -50 -47 -50s-47 22 -47 50zM285 -60v699c0 28 16 51 48 51s48 -23 48 -51v-699c0 -28 -16 -50 -48 -50s-48 22 -48 50z" />
    <glyph glyph-name="AE" unicode="&#xc6;" horiz-adv-x="867" 
d="M395 63v112h-201l-86 -133c-18 -30 -55 -59 -93 -31c-30 22 -21 60 -3 87l380 554c14 22 34 38 65 38h323c35 0 57 -21 57 -54c0 -32 -22 -53 -57 -53h-271v-175h215c36 0 58 -20 58 -53c0 -32 -22 -54 -58 -54h-215v-194h281c35 0 57 -21 57 -54c0 -32 -22 -53 -57 -53
h-331c-38 0 -64 28 -64 63zM395 490l-145 -223h145v223z" />
    <glyph glyph-name="uni04D4" unicode="&#x4d4;" horiz-adv-x="872" 
d="M400 63v112h-201l-86 -133c-18 -30 -55 -59 -93 -31c-30 22 -21 60 -3 87l380 554c14 22 34 38 65 38h323c35 0 57 -21 57 -54c0 -32 -22 -53 -57 -53h-271v-175h215c36 0 58 -20 58 -53c0 -32 -22 -54 -58 -54h-215v-194h281c35 0 57 -21 57 -54c0 -32 -22 -53 -57 -53
h-331c-38 0 -64 28 -64 63zM400 490l-145 -223h145v223z" />
    <glyph glyph-name="minus" unicode="&#x2212;" 
d="M421 275h-323c-32 0 -53 16 -53 48c0 31 21 48 53 48h323c32 0 53 -17 53 -48c0 -32 -21 -48 -53 -48z" />
    <glyph glyph-name="equal" unicode="=" horiz-adv-x="515" 
d="M419 171h-323c-32 0 -53 16 -53 48c0 31 21 48 53 48h323c32 0 53 -17 53 -48c0 -32 -21 -48 -53 -48zM419 316h-323c-32 0 -53 16 -53 48c0 31 21 48 53 48h323c32 0 53 -17 53 -48c0 -32 -21 -48 -53 -48z" />
    <glyph glyph-name="divide" unicode="&#xf7;" horiz-adv-x="515" 
d="M188 495c0 38 24 68 69 68s70 -30 70 -68s-25 -66 -70 -66s-69 28 -69 66zM188 150c0 38 24 68 69 68s70 -30 70 -68s-25 -66 -70 -66s-69 28 -69 66zM417 275h-319c-32 0 -53 16 -53 48c0 31 21 48 53 48h319c32 0 53 -17 53 -48c0 -32 -21 -48 -53 -48z" />
    <glyph glyph-name="plus" unicode="+" horiz-adv-x="515" 
d="M205 168v107h-107c-32 0 -53 16 -53 48c0 31 21 48 53 48h107v107c0 31 14 59 52 59s52 -28 52 -59v-107h108c32 0 53 -17 53 -48c0 -32 -21 -48 -53 -48h-108v-107c0 -31 -14 -58 -52 -58s-52 27 -52 58z" />
    <glyph glyph-name="dotmath" unicode="&#x22c5;" horiz-adv-x="239" 
d="M50 329c0 37 24 70 69 70s70 -33 70 -70c0 -38 -25 -69 -70 -69s-69 31 -69 69z" />
    <glyph glyph-name="uni2215" unicode="&#x2215;" horiz-adv-x="330" 
d="M347 720l-278 -785c-12 -33 -33 -52 -66 -42c-31 10 -34 44 -24 73l279 791c10 30 31 51 65 40s35 -45 24 -77z" />
    <glyph glyph-name="logicalnot" unicode="&#xac;" horiz-adv-x="515" 
d="M363 209v71h-265c-32 0 -53 16 -53 48c0 31 21 48 53 48h318c34 0 54 -20 54 -54v-113c0 -31 -16 -58 -54 -58s-53 27 -53 58z" />
    <glyph glyph-name="plusminus" unicode="&#xb1;" horiz-adv-x="515" 
d="M205 281v19h-107c-32 0 -53 16 -53 48c0 31 21 48 53 48h107v97c0 31 14 59 52 59s52 -28 52 -59v-97h108c32 0 53 -17 53 -48c0 -32 -21 -48 -53 -48h-108v-19c0 -31 -14 -58 -52 -58s-52 27 -52 58zM417 115h-319c-32 0 -53 16 -53 48c0 31 21 48 53 48h319
c32 0 53 -17 53 -48c0 -32 -21 -48 -53 -48z" />
    <glyph glyph-name="less" unicode="&#x3c;" horiz-adv-x="515" 
d="M127 384l200 152c24 19 62 33 83 0c20 -32 -2 -58 -29 -78l-161 -120l172 -136c27 -22 34 -51 15 -75c-18 -22 -51 -21 -79 1l-202 157c-34 27 -36 71 1 99z" />
    <glyph glyph-name="greater" unicode="&#x3e;" horiz-adv-x="515" 
d="M389 280l-200 -152c-24 -19 -62 -33 -83 0c-20 32 2 58 29 78l161 120l-172 136c-27 22 -34 51 -15 75c18 22 51 21 79 -1l202 -157c34 -27 36 -71 -1 -99z" />
    <glyph glyph-name="lessequal" unicode="&#x2264;" horiz-adv-x="515" 
d="M189 270l199 -157c26 -19 41 -51 20 -79c-20 -26 -54 -20 -81 1l-201 157c-25 20 -36 51 -15 77c22 28 54 19 78 1zM127 468l200 152c24 19 62 33 83 0c20 -32 -2 -58 -29 -78l-161 -120l172 -136c27 -22 34 -51 15 -75c-18 -22 -51 -21 -79 1l-202 157
c-34 27 -36 71 1 99z" />
    <glyph glyph-name="greaterequal" unicode="&#x2265;" horiz-adv-x="515" 
d="M128 113l199 157c24 18 57 28 78 -1c19 -26 10 -55 -15 -75l-201 -159c-27 -21 -61 -27 -81 -1c-21 28 -5 59 20 79zM390 366l-200 -152c-24 -19 -62 -33 -83 0c-20 32 2 58 29 78l161 120l-172 136c-27 22 -34 51 -15 75c18 22 51 21 79 -1l202 -157
c34 -27 36 -71 -1 -99z" />
    <glyph glyph-name="notequal" unicode="&#x2260;" horiz-adv-x="515" 
d="M417 171h-157l-35 -101c-13 -41 -34 -58 -65 -48c-27 9 -36 31 -22 73l26 76h-66c-32 0 -53 16 -53 48c0 31 21 48 53 48h99l17 49h-116c-32 0 -53 16 -53 48c0 31 21 48 53 48h149l37 105c13 42 34 60 67 49c31 -10 33 -40 20 -76l-27 -78h73c32 0 53 -17 53 -48
c0 -32 -21 -48 -53 -48h-107l-17 -49h124c32 0 53 -17 53 -48c0 -32 -21 -48 -53 -48z" />
    <glyph glyph-name="multiply" unicode="&#xd7;" horiz-adv-x="515" 
d="M329 327l76 -75c22 -22 30 -51 6 -78s-56 -18 -79 3l-76 75l-76 -76c-22 -23 -50 -29 -72 -6c-21 21 -20 49 3 72l76 77l-76 75c-22 22 -32 51 -7 79c25 29 57 17 80 -4l76 -75l75 76c22 23 50 27 71 6c22 -23 19 -50 -4 -73z" />
    <glyph glyph-name="approxequal" unicode="&#x2248;" horiz-adv-x="495" 
d="M329 252c18 0 31 3 51 19c21 17 47 27 68 6c19 -19 12 -50 -10 -73c-31 -31 -67 -48 -106 -48c-58 0 -119 42 -166 42c-19 0 -35 -5 -55 -20c-21 -16 -44 -25 -64 -6c-18 17 -16 49 9 74c32 31 67 48 106 48c62 0 130 -42 167 -42zM329 417c18 0 31 3 51 19
c21 17 47 27 68 6c19 -19 12 -50 -10 -73c-31 -31 -67 -48 -106 -48c-58 0 -119 42 -166 42c-19 0 -35 -5 -55 -20c-21 -16 -44 -25 -64 -6c-18 17 -16 49 9 74c32 31 67 48 106 48c62 0 130 -42 167 -42z" />
    <glyph glyph-name="numbersign" unicode="#" horiz-adv-x="634" 
d="M267 56l48 137h-115l-55 -158c-12 -34 -29 -53 -61 -43c-30 9 -29 40 -20 64l48 137h-33c-28 0 -46 15 -46 42s18 41 46 41h63l46 131h-50c-28 0 -46 15 -46 42s18 41 46 41h80l61 173c10 29 30 43 58 34c29 -9 29 -37 20 -61l-52 -146h116l61 173c10 29 30 43 58 34
c29 -9 29 -37 20 -61l-52 -146h48c27 0 45 -14 45 -41s-18 -42 -45 -42h-77l-46 -131h63c27 0 45 -14 45 -41s-18 -42 -45 -42h-93l-55 -158c-12 -34 -29 -53 -61 -43c-30 9 -29 40 -20 64zM276 407l-46 -131h115l46 131h-115z" />
    <glyph glyph-name="uni04D3" unicode="&#x4d3;" horiz-adv-x="503" 
d="M335 58v18c-27 -47 -77 -86 -160 -86c-101 0 -160 58 -160 147c0 122 105 164 215 164c48 0 87 -4 105 -7v11c0 54 -15 101 -102 101c-46 0 -74 -12 -118 -25c-24 -7 -49 -1 -57 23s2 44 25 59c36 24 100 37 163 37c137 0 197 -70 197 -186v-256c0 -32 -16 -58 -54 -58
c-37 0 -54 26 -54 58zM205 78c85 0 130 67 130 130v17c-26 4 -52 5 -89 5c-71 0 -120 -24 -120 -84c0 -40 29 -68 79 -68zM85 618c0 36 23 61 63 61c39 0 63 -25 63 -61c0 -38 -24 -61 -63 -61c-40 0 -63 23 -63 61zM276 618c0 36 22 61 62 61c39 0 63 -25 63 -61
c0 -38 -24 -61 -63 -61c-40 0 -62 23 -62 61z" />
    <glyph glyph-name="uni04EB" unicode="&#x4eb;" horiz-adv-x="549" 
d="M116 618c0 36 23 61 63 61c39 0 63 -25 63 -61c0 -38 -24 -61 -63 -61c-40 0 -63 23 -63 61zM307 618c0 36 22 61 62 61c39 0 63 -25 63 -61c0 -38 -24 -61 -63 -61c-40 0 -62 23 -62 61zM35 245c0 145 84 255 239 255s240 -111 240 -255c0 -145 -85 -255 -240 -255
s-239 110 -239 255zM274 86c72 0 116 48 123 118h-245c6 -70 52 -118 122 -118zM274 404c-70 0 -114 -47 -122 -114h244c-7 67 -52 114 -122 114z" />
    <glyph glyph-name="kcommaaccent" unicode="&#x137;" horiz-adv-x="462" 
d="M203 -213c18 17 35 38 35 63c0 16 -13 26 -31 34c-24 11 -32 30 -23 53s33 30 63 23c46 -10 76 -44 76 -93c0 -53 -31 -94 -62 -117c-22 -17 -59 -31 -73 -10c-10 14 -4 28 15 47zM60 58v574c0 31 18 58 55 58c38 0 56 -27 56 -58v-365l170 194c30 34 60 37 84 14
c20 -20 17 -50 -8 -77l-141 -150l158 -150c25 -24 29 -58 9 -79c-27 -29 -59 -21 -87 8l-185 188v-157c0 -32 -18 -58 -56 -58c-37 0 -55 26 -55 58z" />
    <glyph glyph-name="lcommaaccent" unicode="&#x13c;" horiz-adv-x="340" 
d="M153 -213c18 17 35 38 35 63c0 16 -13 26 -31 34c-24 11 -32 30 -23 53s33 30 63 23c46 -10 76 -44 76 -93c0 -53 -31 -94 -62 -117c-22 -17 -59 -31 -73 -10c-10 14 -4 28 15 47zM60 154v478c0 31 19 58 56 58c38 0 57 -27 57 -58v-462c0 -56 16 -80 57 -80
c19 0 41 7 53 12c25 10 52 4 61 -19c12 -30 -3 -55 -32 -71c-28 -16 -66 -22 -101 -22c-93 0 -151 47 -151 164z" />
    <glyph glyph-name="gcommaaccent" unicode="&#x123;" horiz-adv-x="513" 
d="M287 717c-22 -20 -35 -36 -35 -60c0 -16 13 -29 31 -35c22 -12 31 -30 23 -52c-10 -22 -32 -29 -62 -22c-44 9 -74 43 -74 90c0 52 30 93 61 116c21 16 57 28 70 9c10 -14 4 -28 -14 -46zM50 331c0 100 69 169 200 169c29 0 55 -4 78 -10h138c31 0 46 -13 46 -40
c0 -25 -15 -39 -46 -39h-35c12 -24 20 -51 20 -80c0 -97 -69 -167 -201 -167c-37 0 -68 5 -95 15c-17 -11 -27 -27 -27 -41c0 -28 32 -45 153 -50c123 -5 210 -33 210 -127c0 -98 -84 -171 -251 -171c-175 0 -225 72 -225 141c0 45 26 85 72 111c-33 18 -47 51 -47 79
c0 38 22 70 54 96c-29 29 -44 68 -44 114zM249 4c-30 2 -55 5 -78 9c-32 -15 -54 -38 -54 -69c0 -32 31 -67 122 -67c104 0 144 35 144 75c0 34 -36 45 -134 52zM151 331c0 -48 36 -81 99 -81s99 33 99 81c0 49 -36 83 -99 83s-99 -34 -99 -83z" />
    <glyph glyph-name="scedilla" unicode="&#x15f;" horiz-adv-x="433" 
d="M219 500c58 0 110 -14 143 -33c32 -18 38 -43 28 -66c-11 -24 -31 -29 -63 -19c-28 11 -67 27 -104 27c-46 0 -67 -17 -67 -45c0 -92 252 -52 252 -222c0 -89 -55 -144 -172 -151l-6 -34c81 -5 103 -54 103 -97c0 -52 -36 -100 -125 -100c-44 0 -69 6 -90 17
c-19 10 -25 29 -18 45c7 17 24 18 39 14c16 -4 34 -9 53 -9c30 0 43 11 43 32c0 24 -18 34 -59 40c-22 3 -28 19 -24 35l13 59c-40 5 -82 16 -111 35c-27 19 -36 42 -23 69c15 31 47 24 73 12c38 -17 79 -28 116 -28c50 0 74 17 74 51c0 95 -252 51 -252 228
c0 93 72 140 177 140z" />
    <glyph glyph-name="scommaaccent" unicode="&#x219;" horiz-adv-x="433" 
d="M185 -213c18 17 36 38 36 63c0 16 -14 27 -32 34c-22 12 -31 30 -23 53c10 23 33 30 63 23c47 -10 77 -44 77 -93c0 -53 -31 -94 -63 -117c-22 -17 -58 -31 -72 -10c-10 14 -4 28 14 47zM219 500c58 0 110 -14 143 -33c32 -18 38 -43 28 -66c-11 -24 -31 -29 -63 -19
c-28 11 -67 27 -104 27c-46 0 -67 -17 -67 -45c0 -92 252 -52 252 -222c0 -95 -63 -152 -198 -152c-51 0 -116 12 -156 38c-27 19 -36 42 -23 69c15 31 47 24 73 12c38 -17 79 -28 116 -28c50 0 74 17 74 51c0 95 -252 51 -252 228c0 93 72 140 177 140z" />
    <glyph glyph-name="uni021B" unicode="&#x21b;" horiz-adv-x="337" 
d="M157 -213c18 17 35 38 35 63c0 16 -13 27 -31 34c-23 12 -32 30 -23 53s33 30 63 23c46 -10 76 -44 76 -93c0 -53 -31 -94 -62 -117c-22 -17 -59 -31 -73 -10c-10 14 -4 28 15 47zM60 164v393c0 31 19 58 56 58c38 0 57 -27 57 -58v-62h85c36 0 54 -17 54 -48
c0 -30 -18 -48 -54 -48h-85v-223c0 -56 15 -81 57 -81c19 0 41 7 53 12c25 10 50 5 60 -19c12 -30 -4 -54 -31 -70c-28 -16 -65 -23 -100 -23c-96 0 -152 50 -152 169z" />
    <glyph glyph-name="ncommaaccent" unicode="&#x146;" horiz-adv-x="552" 
d="M219 -213c18 17 35 38 35 63c0 16 -13 27 -31 34c-23 12 -32 30 -23 53s33 30 63 23c46 -10 76 -44 76 -93c0 -53 -31 -94 -62 -117c-22 -17 -59 -31 -73 -10c-10 14 -4 28 15 47zM60 58v374c0 31 19 58 56 58c38 0 57 -27 57 -58v-15c30 57 89 83 148 83
c130 0 171 -81 171 -214v-228c0 -32 -19 -58 -57 -58c-37 0 -56 26 -56 58v230c0 66 -21 112 -85 112c-97 0 -119 -101 -121 -213v-129c0 -32 -19 -58 -57 -58c-37 0 -56 26 -56 58z" />
    <glyph glyph-name="rcommaaccent" unicode="&#x157;" horiz-adv-x="367" 
d="M83 -213c18 17 36 38 36 63c0 16 -14 27 -32 34c-22 12 -31 30 -23 53c10 23 33 30 63 23c47 -10 77 -44 77 -93c0 -53 -31 -94 -63 -117c-22 -17 -58 -31 -72 -10c-10 14 -4 28 14 47zM60 58v374c0 31 19 58 56 58c38 0 57 -28 57 -54c21 38 61 64 105 64
c83 0 107 -52 91 -89c-11 -25 -34 -32 -63 -22c-15 5 -30 9 -47 9c-59 0 -86 -54 -86 -171v-169c0 -32 -19 -58 -57 -58c-37 0 -56 26 -56 58z" />
    <glyph glyph-name="tcommaaccent" unicode="&#x163;" horiz-adv-x="337" 
d="M157 -213c18 17 35 38 35 63c0 16 -13 27 -31 34c-23 12 -32 30 -23 53s33 30 63 23c46 -10 76 -44 76 -93c0 -53 -31 -94 -62 -117c-22 -17 -59 -31 -73 -10c-10 14 -4 28 15 47zM60 164v393c0 31 19 58 56 58c38 0 57 -27 57 -58v-62h85c36 0 54 -17 54 -48
c0 -30 -18 -48 -54 -48h-85v-223c0 -56 15 -81 57 -81c19 0 41 7 53 12c25 10 50 5 60 -19c12 -30 -4 -54 -31 -70c-28 -16 -65 -23 -100 -23c-96 0 -152 50 -152 169z" />
    <glyph glyph-name="uni04DB" unicode="&#x4db;" horiz-adv-x="497" 
d="M35 203c0 61 20 88 73 88h242c-4 74 -40 118 -114 118c-34 0 -67 -8 -101 -20c-31 -11 -57 -7 -66 14c-12 28 1 53 33 69c37 19 96 28 139 28c153 0 221 -105 221 -253c0 -150 -74 -257 -222 -257c-130 0 -205 80 -205 213zM244 81c75 0 106 57 107 135h-212
c-3 -96 38 -135 105 -135zM86 618c0 36 23 61 63 61c39 0 63 -25 63 -61c0 -38 -24 -61 -63 -61c-40 0 -63 23 -63 61zM277 618c0 36 22 61 62 61c39 0 63 -25 63 -61c0 -38 -24 -61 -63 -61c-40 0 -62 23 -62 61z" />
    <glyph glyph-name="uni04F3" unicode="&#x4f3;" horiz-adv-x="465" 
d="M191 0l-170 401c-14 32 -10 70 26 84c39 15 65 -5 79 -41l117 -310l103 306c13 41 38 59 74 46c36 -12 33 -48 22 -78l-156 -413c-59 -157 -104 -205 -190 -205c-22 0 -57 5 -81 18c-30 17 -43 43 -31 70s35 27 59 20c16 -5 33 -12 54 -12c47 0 70 50 94 114zM274 643
l-108 -72c-21 -14 -46 -19 -62 1c-14 18 -11 42 19 61l112 75c22 14 48 18 63 -4c13 -20 6 -41 -24 -61zM441 643l-108 -72c-21 -14 -46 -19 -62 1c-14 18 -11 42 19 61l112 75c22 14 48 18 63 -4c13 -20 6 -41 -24 -61z" />
    <glyph glyph-name="uni04F1" unicode="&#x4f1;" horiz-adv-x="465" 
d="M191 0l-170 401c-14 32 -10 70 26 84c39 15 65 -5 79 -41l117 -310l103 306c13 41 38 59 74 46c36 -12 33 -48 22 -78l-156 -413c-59 -157 -104 -205 -190 -205c-22 0 -57 5 -81 18c-30 17 -43 43 -31 70s35 27 59 20c16 -5 33 -12 54 -12c47 0 70 50 94 114zM80 618
c0 36 23 61 63 61c39 0 63 -25 63 -61c0 -38 -24 -61 -63 -61c-40 0 -63 23 -63 61zM271 618c0 36 22 61 62 61c39 0 63 -25 63 -61c0 -38 -24 -61 -63 -61c-40 0 -62 23 -62 61z" />
    <glyph glyph-name="uni04AB" unicode="&#x4ab;" horiz-adv-x="461" 
d="M420 37c-30 -24 -68 -38 -111 -44v-55c0 -30 -14 -54 -48 -54s-49 24 -49 54v57c-111 20 -177 108 -177 246c0 160 90 259 237 259c54 0 98 -10 129 -28c30 -18 36 -43 25 -67s-31 -32 -66 -21c-27 8 -48 15 -85 15c-77 0 -124 -60 -124 -158c0 -95 51 -150 125 -150
c37 0 66 13 96 28c33 16 56 10 68 -10c14 -23 7 -50 -20 -72z" />
    <glyph glyph-name="uni0499" unicode="&#x499;" horiz-adv-x="451" 
d="M211 404c-32 0 -63 -9 -97 -22c-32 -12 -55 -7 -66 15c-11 25 -1 50 25 66c44 27 101 37 152 37c118 0 174 -57 174 -132c0 -50 -31 -97 -80 -112c54 -12 92 -52 92 -112c0 -80 -48 -137 -145 -150v-56c0 -30 -14 -54 -48 -54s-49 24 -49 54v54c-41 4 -82 13 -110 30
c-26 16 -34 40 -24 65c9 23 29 30 61 20c33 -10 73 -21 111 -21c69 0 90 31 90 63c0 44 -35 62 -99 62h-40c-34 0 -48 12 -48 38c0 28 16 39 48 39h36c56 0 91 19 91 61c0 30 -20 55 -74 55z" />
    <glyph glyph-name="hcircumflex" unicode="&#x125;" horiz-adv-x="552" 
d="M60 58v574c0 31 19 58 56 58c38 0 57 -27 57 -58v-215c30 57 89 83 148 83c130 0 171 -81 171 -214v-228c0 -32 -19 -58 -57 -58c-37 0 -56 26 -56 58v230c0 66 -21 112 -85 112c-97 0 -119 -101 -121 -213v-129c0 -32 -19 -58 -57 -58c-37 0 -56 26 -56 58zM-24 811
l109 62c20 11 43 12 65 0l120 -65c29 -15 35 -39 23 -62s-36 -25 -61 -11l-116 64l-108 -61c-26 -15 -51 -10 -61 12s-5 42 29 61z" />
    <glyph glyph-name="Agrave" unicode="&#xc0;" horiz-adv-x="611" 
d="M485 47l-56 148h-257l-52 -141c-12 -35 -38 -67 -82 -49c-31 13 -33 48 -20 82l225 564c13 34 33 49 61 49c31 0 48 -19 58 -43l232 -569c12 -30 8 -70 -27 -83c-38 -14 -68 4 -82 42zM298 541l-94 -252h191zM303 741l-139 64c-36 18 -44 42 -33 65c13 27 41 24 67 12
l143 -67c35 -16 44 -40 31 -64c-13 -25 -43 -22 -69 -10z" />
    <glyph glyph-name="Aacute" unicode="&#xc1;" horiz-adv-x="611" 
d="M485 47l-56 148h-257l-52 -141c-12 -35 -38 -67 -82 -49c-31 13 -33 48 -20 82l225 564c13 34 33 49 61 49c31 0 48 -19 58 -43l232 -569c12 -30 8 -70 -27 -83c-38 -14 -68 4 -82 42zM298 541l-94 -252h191zM464 805l-139 -64c-26 -12 -56 -17 -69 10
c-13 25 -4 48 31 64l143 67c26 12 55 13 67 -12s3 -47 -33 -65z" />
    <glyph glyph-name="Acircumflex" unicode="&#xc2;" horiz-adv-x="611" 
d="M485 47l-56 148h-257l-52 -141c-12 -35 -38 -67 -82 -49c-31 13 -33 48 -20 82l225 564c13 34 33 49 61 49c31 0 48 -19 58 -43l232 -569c12 -30 8 -70 -27 -83c-38 -14 -68 4 -82 42zM298 541l-94 -252h191zM157 811l109 62c20 11 43 12 65 0l120 -65
c29 -15 35 -39 23 -62s-36 -25 -61 -11l-116 64l-108 -61c-26 -15 -51 -10 -61 12s-5 42 29 61z" />
    <glyph glyph-name="Atilde" unicode="&#xc3;" horiz-adv-x="611" 
d="M485 47l-56 148h-257l-52 -141c-12 -35 -38 -67 -82 -49c-31 13 -33 48 -20 82l225 564c13 34 33 49 61 49c31 0 48 -19 58 -43l232 -569c12 -30 8 -70 -27 -83c-38 -14 -68 4 -82 42zM298 541l-94 -252h191zM377 812c17 0 29 9 44 21c17 15 39 23 58 7
c18 -16 12 -42 -6 -63c-25 -29 -63 -46 -96 -46c-58 0 -99 44 -135 44c-18 0 -31 -9 -48 -23c-17 -13 -36 -20 -53 -7c-19 14 -15 44 5 64c26 29 62 46 95 46c57 0 103 -43 136 -43z" />
    <glyph glyph-name="Adieresis" unicode="&#xc4;" horiz-adv-x="611" 
d="M485 47l-56 148h-257l-52 -141c-12 -35 -38 -67 -82 -49c-31 13 -33 48 -20 82l225 564c13 34 33 49 61 49c31 0 48 -19 58 -43l232 -569c12 -30 8 -70 -27 -83c-38 -14 -68 4 -82 42zM298 541l-94 -252h191zM125 796c0 39 32 60 72 60c42 0 74 -21 74 -60
s-32 -58 -74 -58c-40 0 -72 19 -72 58zM333 796c0 39 31 60 73 60c41 0 73 -21 73 -60s-32 -58 -73 -58c-42 0 -73 19 -73 58z" />
    <glyph glyph-name="Aring" unicode="&#xc5;" horiz-adv-x="611" 
d="M353 674c2 -3 6 -10 9 -17l232 -568c12 -30 8 -69 -26 -83c-38 -16 -69 3 -83 40l-56 149h-258l-51 -141c-12 -35 -39 -67 -83 -49c-29 12 -32 48 -19 82l225 564c4 10 7 16 12 23c-46 12 -70 44 -70 88c0 56 42 93 119 93s119 -37 119 -93c0 -44 -26 -77 -70 -88z
M298 541l-94 -252h191zM259 762c0 -24 16 -44 45 -44c28 0 46 19 46 44c0 24 -19 43 -46 43c-28 0 -45 -18 -45 -43z" />
    <glyph glyph-name="Amacron" unicode="&#x100;" horiz-adv-x="611" 
d="M485 47l-56 148h-257l-52 -141c-12 -35 -38 -67 -82 -49c-31 13 -33 48 -20 82l225 564c13 34 33 49 61 49c31 0 48 -19 58 -43l232 -569c12 -30 8 -70 -27 -83c-38 -14 -68 4 -82 42zM298 541l-94 -252h191zM424 748h-245c-32 0 -48 14 -48 39c0 26 16 40 48 40h245
c33 0 48 -14 48 -40c0 -25 -15 -39 -48 -39z" />
    <glyph glyph-name="Aogonek" unicode="&#x104;" horiz-adv-x="611" 
d="M568 -17c-21 -21 -55 -61 -55 -101c0 -31 17 -44 39 -44c13 0 25 4 35 7c16 5 29 1 36 -11c10 -16 2 -41 -19 -55c-19 -12 -41 -19 -75 -19c-72 0 -122 40 -122 109c0 64 34 117 87 155l-65 171h-258l-51 -141c-12 -35 -39 -66 -83 -49c-31 11 -32 48 -19 82l225 564
c13 34 33 49 61 49c31 0 48 -19 58 -43l232 -572c20 -50 7 -69 -26 -102zM298 541l-94 -252h191z" />
    <glyph glyph-name="Abreve" unicode="&#x102;" horiz-adv-x="611" 
d="M485 47l-56 148h-257l-52 -141c-12 -35 -38 -67 -82 -49c-31 13 -33 48 -20 82l225 564c13 34 33 49 61 49c31 0 48 -19 58 -43l232 -569c12 -30 8 -70 -27 -83c-38 -14 -68 4 -82 42zM298 541l-94 -252h191zM305 734c-76 0 -133 30 -158 64c-15 20 -17 45 0 61
c23 22 46 8 65 -10c28 -27 57 -38 93 -38s64 10 92 37c19 19 42 31 65 11c19 -16 14 -41 -1 -61c-25 -34 -80 -64 -156 -64z" />
    <glyph glyph-name="Egrave" unicode="&#xc8;" horiz-adv-x="561" 
d="M75 62v566c0 34 21 62 61 62h338c35 0 57 -21 57 -54c0 -32 -22 -53 -57 -53h-279v-175h223c36 0 58 -20 58 -53c0 -32 -22 -54 -58 -54h-223v-194h289c35 0 57 -21 57 -54c0 -32 -22 -53 -57 -53h-347c-40 0 -62 27 -62 62zM316 741l-139 64c-36 18 -44 42 -33 65
c13 27 41 24 67 12l143 -67c35 -16 44 -40 31 -64c-13 -25 -43 -22 -69 -10z" />
    <glyph glyph-name="Eacute" unicode="&#xc9;" horiz-adv-x="561" 
d="M75 62v566c0 34 21 62 61 62h338c35 0 57 -21 57 -54c0 -32 -22 -53 -57 -53h-279v-175h223c36 0 58 -20 58 -53c0 -32 -22 -54 -58 -54h-223v-194h289c35 0 57 -21 57 -54c0 -32 -22 -53 -57 -53h-347c-40 0 -62 27 -62 62zM447 805l-139 -64c-26 -12 -56 -17 -69 10
c-13 25 -4 48 31 64l143 67c26 12 55 13 67 -12s3 -47 -33 -65z" />
    <glyph glyph-name="Ecircumflex" unicode="&#xca;" horiz-adv-x="561" 
d="M75 62v566c0 34 21 62 61 62h338c35 0 57 -21 57 -54c0 -32 -22 -53 -57 -53h-279v-175h223c36 0 58 -20 58 -53c0 -32 -22 -54 -58 -54h-223v-194h289c35 0 57 -21 57 -54c0 -32 -22 -53 -57 -53h-347c-40 0 -62 27 -62 62zM156 811l109 62c20 11 43 12 65 0l120 -65
c29 -15 35 -39 23 -62s-36 -25 -61 -11l-116 64l-108 -61c-26 -15 -51 -10 -61 12s-5 42 29 61z" />
    <glyph glyph-name="Edieresis" unicode="&#xcb;" horiz-adv-x="561" 
d="M75 62v566c0 34 21 62 61 62h338c35 0 57 -21 57 -54c0 -32 -22 -53 -57 -53h-279v-175h223c36 0 58 -20 58 -53c0 -32 -22 -54 -58 -54h-223v-194h289c35 0 57 -21 57 -54c0 -32 -22 -53 -57 -53h-347c-40 0 -62 27 -62 62zM115 796c0 39 32 60 72 60
c42 0 74 -21 74 -60s-32 -58 -74 -58c-40 0 -72 19 -72 58zM323 796c0 39 31 60 73 60c41 0 73 -21 73 -60s-32 -58 -73 -58c-42 0 -73 19 -73 58z" />
    <glyph glyph-name="Emacron" unicode="&#x112;" horiz-adv-x="561" 
d="M75 62v566c0 34 21 62 61 62h338c35 0 57 -21 57 -54c0 -32 -22 -53 -57 -53h-279v-175h223c36 0 58 -20 58 -53c0 -32 -22 -54 -58 -54h-223v-194h289c35 0 57 -21 57 -54c0 -32 -22 -53 -57 -53h-347c-40 0 -62 27 -62 62zM421 748h-245c-32 0 -48 14 -48 39
c0 26 16 40 48 40h245c33 0 48 -14 48 -40c0 -25 -15 -39 -48 -39z" />
    <glyph glyph-name="Edotaccent" unicode="&#x116;" horiz-adv-x="561" 
d="M75 62v566c0 34 21 62 61 62h338c35 0 57 -21 57 -54c0 -32 -22 -53 -57 -53h-279v-175h223c36 0 58 -20 58 -53c0 -32 -22 -54 -58 -54h-223v-194h289c35 0 57 -21 57 -54c0 -32 -22 -53 -57 -53h-347c-40 0 -62 27 -62 62zM214 804c0 45 37 64 80 64
c42 0 80 -19 80 -64s-38 -63 -80 -63c-43 0 -80 18 -80 63z" />
    <glyph glyph-name="Eogonek" unicode="&#x118;" horiz-adv-x="561" 
d="M75 62v566c0 34 21 62 61 62h338c35 0 57 -21 57 -54c0 -32 -22 -53 -57 -53h-279v-175h223c36 0 58 -20 58 -53c0 -32 -22 -54 -58 -54h-223v-194h289c35 0 57 -21 57 -54c0 -32 -22 -53 -57 -53h-32c-37 -34 -67 -74 -67 -121c0 -28 17 -41 39 -41c13 0 25 4 35 7
c16 5 29 1 36 -11c10 -18 2 -41 -19 -55c-19 -12 -41 -19 -75 -19c-70 0 -122 44 -122 110c0 50 22 96 54 130h-196c-40 0 -62 27 -62 62z" />
    <glyph glyph-name="Ecaron" unicode="&#x11a;" horiz-adv-x="561" 
d="M75 62v566c0 34 21 62 61 62h338c35 0 57 -21 57 -54c0 -32 -22 -53 -57 -53h-279v-175h223c36 0 58 -20 58 -53c0 -32 -22 -54 -58 -54h-223v-194h289c35 0 57 -21 57 -54c0 -32 -22 -53 -57 -53h-347c-40 0 -62 27 -62 62zM451 801l-109 -62c-20 -11 -43 -12 -65 0
l-120 65c-29 15 -37 41 -23 64s37 22 61 9l118 -66l106 63c26 15 50 10 61 -12s5 -42 -29 -61z" />
    <glyph glyph-name="uni04D6" unicode="&#x4d6;" horiz-adv-x="561" 
d="M75 62v566c0 34 21 62 61 62h338c35 0 57 -21 57 -54c0 -32 -22 -53 -57 -53h-279v-175h223c36 0 58 -20 58 -53c0 -32 -22 -54 -58 -54h-223v-194h289c35 0 57 -21 57 -54c0 -32 -22 -53 -57 -53h-347c-40 0 -62 27 -62 62zM301 734c-76 0 -133 30 -158 64
c-15 20 -17 45 0 61c23 22 46 8 65 -10c28 -27 57 -38 93 -38s64 10 92 37c19 19 42 31 65 11c19 -16 14 -41 -1 -61c-25 -34 -80 -64 -156 -64z" />
    <glyph glyph-name="Igrave" unicode="&#xcc;" horiz-adv-x="270" 
d="M75 61v567c0 34 20 62 60 62c39 0 60 -28 60 -62v-567c0 -34 -21 -61 -60 -61c-40 0 -60 27 -60 61zM118 741l-139 64c-36 18 -44 42 -33 65c13 27 41 24 67 12l143 -67c35 -16 44 -40 31 -64c-13 -25 -43 -22 -69 -10z" />
    <glyph glyph-name="Iacute" unicode="&#xcd;" horiz-adv-x="270" 
d="M75 61v567c0 34 20 62 60 62c39 0 60 -28 60 -62v-567c0 -34 -21 -61 -60 -61c-40 0 -60 27 -60 61zM284 805l-139 -64c-26 -12 -56 -17 -69 10c-13 25 -4 48 31 64l143 67c26 12 55 13 67 -12s3 -47 -33 -65z" />
    <glyph glyph-name="Icircumflex" unicode="&#xce;" horiz-adv-x="270" 
d="M75 61v567c0 34 20 62 60 62c39 0 60 -28 60 -62v-567c0 -34 -21 -61 -60 -61c-40 0 -60 27 -60 61zM-11 811l109 62c20 11 43 12 65 0l120 -65c29 -15 35 -39 23 -62s-36 -25 -61 -11l-116 64l-108 -61c-26 -15 -51 -10 -61 12s-5 42 29 61z" />
    <glyph glyph-name="Idieresis" unicode="&#xcf;" horiz-adv-x="270" 
d="M75 61v567c0 34 20 62 60 62c39 0 60 -28 60 -62v-567c0 -34 -21 -61 -60 -61c-40 0 -60 27 -60 61zM-42 796c0 39 32 60 72 60c42 0 74 -21 74 -60s-32 -58 -74 -58c-40 0 -72 19 -72 58zM166 796c0 39 31 60 73 60c41 0 73 -21 73 -60s-32 -58 -73 -58
c-42 0 -73 19 -73 58z" />
    <glyph glyph-name="uni04D2" unicode="&#x4d2;" horiz-adv-x="611" 
d="M485 47l-56 148h-257l-52 -141c-12 -35 -38 -67 -82 -49c-31 13 -33 48 -20 82l225 564c13 34 33 49 61 49c31 0 48 -19 58 -43l232 -569c12 -30 8 -70 -27 -83c-38 -14 -68 4 -82 42zM298 541l-94 -252h191zM125 796c0 39 32 60 72 60c42 0 74 -21 74 -60
s-32 -58 -74 -58c-40 0 -72 19 -72 58zM333 796c0 39 31 60 73 60c41 0 73 -21 73 -60s-32 -58 -73 -58c-42 0 -73 19 -73 58z" />
    <glyph glyph-name="Imacron" unicode="&#x12a;" horiz-adv-x="270" 
d="M75 61v567c0 34 20 62 60 62c39 0 60 -28 60 -62v-567c0 -34 -21 -61 -60 -61c-40 0 -60 27 -60 61zM257 748h-245c-32 0 -48 14 -48 39c0 26 16 40 48 40h245c33 0 48 -14 48 -40c0 -25 -15 -39 -48 -39z" />
    <glyph glyph-name="Iogonek" unicode="&#x12e;" horiz-adv-x="274" 
d="M170 -13c-20 -22 -59 -62 -59 -109c0 -24 13 -40 39 -40c13 0 25 4 35 7c16 5 29 1 36 -11c10 -16 2 -41 -19 -55c-19 -12 -41 -19 -75 -19c-72 0 -122 37 -122 108c0 57 25 109 72 149v611c0 34 20 62 60 62c39 0 60 -28 60 -62v-577c0 -31 -11 -47 -27 -64z" />
    <glyph glyph-name="Idotaccent" unicode="&#x130;" horiz-adv-x="270" 
d="M75 61v567c0 34 20 62 60 62c39 0 60 -28 60 -62v-567c0 -34 -21 -61 -60 -61c-40 0 -60 27 -60 61zM53 804c0 45 37 64 80 64c42 0 80 -19 80 -64s-38 -63 -80 -63c-43 0 -80 18 -80 63z" />
    <glyph glyph-name="Ccedilla" unicode="&#xc7;" horiz-adv-x="634" 
d="M368 593c-124 0 -197 -99 -197 -247c0 -160 88 -249 200 -249c55 0 98 17 142 43c33 19 61 15 76 -7c16 -24 12 -58 -23 -84c-48 -35 -109 -57 -191 -59l-6 -33c81 -5 103 -54 103 -97c0 -52 -36 -100 -125 -100c-44 0 -69 6 -90 17c-19 10 -25 29 -18 45
c7 17 24 18 39 14c16 -4 34 -9 53 -9c30 0 43 11 43 32c0 24 -18 34 -59 40c-22 3 -28 19 -24 35l13 60c-175 23 -259 159 -259 351c0 212 116 355 321 355c84 0 145 -18 185 -46c30 -21 35 -49 24 -73s-36 -31 -76 -16c-39 15 -74 28 -131 28z" />
    <glyph glyph-name="Ydieresis" unicode="&#x178;" horiz-adv-x="566" 
d="M225 62v237l-197 282c-22 34 -30 73 6 99c37 26 72 3 94 -31l161 -242l156 242c19 30 52 56 89 31c32 -21 24 -58 5 -86l-194 -290v-242c0 -34 -21 -61 -60 -61c-40 0 -60 27 -60 61zM110 796c0 39 32 60 72 60c42 0 74 -21 74 -60s-32 -58 -74 -58c-40 0 -72 19 -72 58z
M318 796c0 39 31 60 73 60c41 0 73 -21 73 -60s-32 -58 -73 -58c-42 0 -73 19 -73 58z" />
    <glyph glyph-name="Yacute" unicode="&#xdd;" horiz-adv-x="566" 
d="M225 62v237l-197 282c-22 34 -30 73 6 99c37 26 72 3 94 -31l161 -242l156 242c19 30 52 56 89 31c32 -21 24 -58 5 -86l-194 -290v-242c0 -34 -21 -61 -60 -61c-40 0 -60 27 -60 61zM437 805l-139 -64c-26 -12 -56 -17 -69 10c-13 25 -4 48 31 64l143 67
c26 12 55 13 67 -12s3 -47 -33 -65z" />
    <glyph glyph-name="Scaron" unicode="&#x160;" horiz-adv-x="551" 
d="M269 590c-67 0 -99 -27 -99 -72c0 -137 349 -74 349 -316c0 -123 -74 -212 -245 -212c-70 0 -137 14 -190 41c-45 24 -61 59 -43 94c16 31 47 28 86 12c52 -24 96 -37 150 -37c73 0 121 29 121 87c0 154 -349 75 -349 327c0 111 76 186 229 186c63 0 127 -15 174 -42
c39 -21 52 -51 35 -84c-19 -37 -61 -26 -95 -11c-40 17 -79 27 -123 27zM427 801l-109 -62c-20 -11 -43 -12 -65 0l-120 65c-29 15 -37 41 -23 64s37 22 61 9l118 -66l106 63c26 15 50 10 61 -12s5 -42 -29 -61z" />
    <glyph glyph-name="Sacute" unicode="&#x15a;" horiz-adv-x="551" 
d="M269 590c-67 0 -99 -27 -99 -72c0 -137 349 -74 349 -316c0 -123 -74 -212 -245 -212c-70 0 -137 14 -190 41c-45 24 -61 59 -43 94c16 31 47 28 86 12c52 -24 96 -37 150 -37c73 0 121 29 121 87c0 154 -349 75 -349 327c0 111 76 186 229 186c63 0 127 -15 174 -42
c39 -21 52 -51 35 -84c-19 -37 -61 -26 -95 -11c-40 17 -79 27 -123 27zM407 805l-139 -64c-26 -12 -56 -17 -69 10c-13 25 -4 48 31 64l143 67c26 12 55 13 67 -12s3 -47 -33 -65z" />
    <glyph glyph-name="Scircumflex" unicode="&#x15c;" horiz-adv-x="551" 
d="M269 590c-67 0 -99 -27 -99 -72c0 -137 349 -74 349 -316c0 -123 -74 -212 -245 -212c-70 0 -137 14 -190 41c-45 24 -61 59 -43 94c16 31 47 28 86 12c52 -24 96 -37 150 -37c73 0 121 29 121 87c0 154 -349 75 -349 327c0 111 76 186 229 186c63 0 127 -15 174 -42
c39 -21 52 -51 35 -84c-19 -37 -61 -26 -95 -11c-40 17 -79 27 -123 27zM137 811l109 62c20 11 43 12 65 0l120 -65c29 -15 35 -39 23 -62s-36 -25 -61 -11l-116 64l-108 -61c-26 -15 -51 -10 -61 12s-5 42 29 61z" />
    <glyph glyph-name="Scedilla" unicode="&#x15e;" horiz-adv-x="551" 
d="M192 -164c16 -4 34 -9 53 -9c30 0 43 11 43 32c0 24 -18 34 -59 40c-22 3 -28 19 -24 35l13 59c-49 5 -95 16 -134 36c-45 24 -61 61 -43 96c16 31 47 28 86 12c52 -24 96 -37 150 -37c73 0 121 29 121 87c0 154 -349 75 -349 327c0 111 76 186 229 186
c63 0 127 -14 174 -41c39 -21 52 -52 35 -85c-19 -37 -61 -26 -95 -11c-40 17 -79 27 -123 27c-67 0 -99 -27 -99 -72c0 -137 349 -74 349 -316c0 -119 -70 -206 -230 -212l-6 -33c81 -7 103 -50 103 -94c0 -54 -36 -103 -125 -103c-44 0 -69 6 -90 17c-19 10 -25 29 -18 45
c7 17 24 18 39 14z" />
    <glyph glyph-name="Scommaaccent" unicode="&#x218;" horiz-adv-x="551" 
d="M236 -216c19 19 34 38 34 63c0 18 -13 28 -30 35c-23 12 -33 32 -24 55c10 23 33 30 62 24c49 -10 79 -48 79 -97c0 -52 -30 -96 -62 -120c-21 -16 -59 -31 -74 -11c-13 17 -2 33 15 51zM269 590c-67 0 -99 -27 -99 -72c0 -137 349 -74 349 -316
c0 -123 -74 -212 -245 -212c-70 0 -137 14 -190 41c-45 24 -61 59 -43 94c16 31 47 28 86 12c52 -24 96 -37 150 -37c73 0 121 29 121 87c0 154 -349 75 -349 327c0 111 76 186 229 186c63 0 127 -15 174 -42c39 -21 52 -51 35 -84c-19 -37 -61 -26 -95 -11
c-40 17 -79 27 -123 27z" />
    <glyph glyph-name="Ntilde" unicode="&#xd1;" horiz-adv-x="708" 
d="M522 213v415c0 33 13 62 54 62c42 0 55 -29 55 -62v-567c0 -36 -22 -61 -57 -61c-24 0 -41 14 -54 30l-334 443v-412c0 -33 -14 -61 -55 -61s-54 28 -54 61v566c0 32 14 63 56 63c26 0 46 -15 59 -33zM425 812c17 0 29 9 44 21c17 15 39 23 58 7c18 -16 12 -42 -6 -63
c-25 -29 -63 -46 -96 -46c-58 0 -99 44 -135 44c-18 0 -31 -9 -48 -23c-17 -13 -36 -20 -53 -7c-19 14 -15 44 5 64c26 29 62 46 95 46c57 0 103 -43 136 -43z" />
    <glyph glyph-name="Nacute" unicode="&#x143;" horiz-adv-x="708" 
d="M522 213v415c0 33 13 62 54 62c42 0 55 -29 55 -62v-567c0 -36 -22 -61 -57 -61c-24 0 -41 14 -54 30l-334 443v-412c0 -33 -14 -61 -55 -61s-54 28 -54 61v566c0 32 14 63 56 63c26 0 46 -15 59 -33zM481 805l-139 -64c-26 -12 -56 -17 -69 10c-13 25 -4 48 31 64
l143 67c26 12 55 13 67 -12s3 -47 -33 -65z" />
    <glyph glyph-name="Ncommaaccent" unicode="&#x145;" horiz-adv-x="708" 
d="M301 -216c19 19 34 38 34 63c0 18 -13 27 -30 35c-24 11 -32 32 -24 55c9 25 33 31 62 25c49 -10 79 -49 79 -98c0 -52 -30 -96 -62 -120c-21 -16 -59 -31 -74 -11c-13 17 -2 33 15 51zM522 213v415c0 33 13 62 54 62c42 0 55 -29 55 -62v-567c0 -36 -22 -61 -57 -61
c-24 0 -41 14 -54 30l-334 443v-412c0 -33 -14 -61 -55 -61s-54 28 -54 61v566c0 32 14 63 56 63c26 0 46 -15 59 -33z" />
    <glyph glyph-name="Ncaron" unicode="&#x147;" horiz-adv-x="708" 
d="M522 213v415c0 33 13 62 54 62c42 0 55 -29 55 -62v-567c0 -36 -22 -61 -57 -61c-24 0 -41 14 -54 30l-334 443v-412c0 -33 -14 -61 -55 -61s-54 28 -54 61v566c0 32 14 63 56 63c26 0 46 -15 59 -33zM501 801l-109 -62c-20 -11 -43 -12 -65 0l-120 65
c-29 15 -37 41 -23 64s37 22 61 9l118 -66l106 63c26 15 50 10 61 -12s5 -42 -29 -61z" />
    <glyph glyph-name="uni01CF" unicode="&#x1cf;" horiz-adv-x="274" 
d="M77 61v567c0 34 20 62 60 62c39 0 60 -28 60 -62v-567c0 -34 -21 -61 -60 -61c-40 0 -60 27 -60 61zM281 801l-109 -62c-20 -11 -43 -12 -65 0l-120 65c-29 15 -37 41 -23 64s37 22 61 9l118 -66l106 63c26 15 50 10 61 -12s5 -42 -29 -61z" />
    <glyph glyph-name="Ograve" unicode="&#xd2;" horiz-adv-x="747" 
d="M45 345c0 198 111 355 328 355s329 -157 329 -355c0 -199 -112 -355 -329 -355s-328 156 -328 355zM171 345c0 -139 67 -248 202 -248c136 0 203 109 203 248c0 138 -67 248 -203 248c-135 0 -202 -110 -202 -248zM390 741l-139 64c-36 18 -44 42 -33 65
c13 27 41 24 67 12l143 -67c35 -16 44 -40 31 -64c-13 -25 -43 -22 -69 -10z" />
    <glyph glyph-name="Oacute" unicode="&#xd3;" horiz-adv-x="747" 
d="M45 345c0 198 111 355 328 355s329 -157 329 -355c0 -199 -112 -355 -329 -355s-328 156 -328 355zM171 345c0 -139 67 -248 202 -248c136 0 203 109 203 248c0 138 -67 248 -203 248c-135 0 -202 -110 -202 -248zM516 805l-139 -64c-26 -12 -56 -17 -69 10
c-13 25 -4 48 31 64l143 67c26 12 55 13 67 -12s3 -47 -33 -65z" />
    <glyph glyph-name="Ocircumflex" unicode="&#xd4;" horiz-adv-x="747" 
d="M45 345c0 198 111 355 328 355s329 -157 329 -355c0 -199 -112 -355 -329 -355s-328 156 -328 355zM171 345c0 -139 67 -248 202 -248c136 0 203 109 203 248c0 138 -67 248 -203 248c-135 0 -202 -110 -202 -248zM227 811l109 62c20 11 43 12 65 0l120 -65
c29 -15 35 -39 23 -62s-36 -25 -61 -11l-116 64l-108 -61c-26 -15 -51 -10 -61 12s-5 42 29 61z" />
    <glyph glyph-name="Otilde" unicode="&#xd5;" horiz-adv-x="747" 
d="M45 345c0 198 111 355 328 355s329 -157 329 -355c0 -199 -112 -355 -329 -355s-328 156 -328 355zM171 345c0 -139 67 -248 202 -248c136 0 203 109 203 248c0 138 -67 248 -203 248c-135 0 -202 -110 -202 -248zM445 812c17 0 29 9 44 21c17 15 39 23 58 7
c18 -16 12 -42 -6 -63c-25 -29 -63 -46 -96 -46c-58 0 -99 44 -135 44c-18 0 -31 -9 -48 -23c-17 -13 -36 -20 -53 -7c-19 14 -15 44 5 64c26 29 62 46 95 46c57 0 103 -43 136 -43z" />
    <glyph glyph-name="Odieresis" unicode="&#xd6;" horiz-adv-x="747" 
d="M45 345c0 198 111 355 328 355s329 -157 329 -355c0 -199 -112 -355 -329 -355s-328 156 -328 355zM171 345c0 -139 67 -248 202 -248c136 0 203 109 203 248c0 138 -67 248 -203 248c-135 0 -202 -110 -202 -248zM192 796c0 39 32 60 72 60c42 0 74 -21 74 -60
s-32 -58 -74 -58c-40 0 -72 19 -72 58zM400 796c0 39 31 60 73 60c41 0 73 -21 73 -60s-32 -58 -73 -58c-42 0 -73 19 -73 58z" />
    <glyph glyph-name="Omacron" unicode="&#x14c;" horiz-adv-x="747" 
d="M45 345c0 198 111 355 328 355s329 -157 329 -355c0 -199 -112 -355 -329 -355s-328 156 -328 355zM171 345c0 -139 67 -248 202 -248c136 0 203 109 203 248c0 138 -67 248 -203 248c-135 0 -202 -110 -202 -248zM496 748h-245c-32 0 -48 14 -48 39c0 26 16 40 48 40
h245c33 0 48 -14 48 -40c0 -25 -15 -39 -48 -39z" />
    <glyph glyph-name="Obreve" unicode="&#x14e;" horiz-adv-x="747" 
d="M45 345c0 198 111 355 328 355s329 -157 329 -355c0 -199 -112 -355 -329 -355s-328 156 -328 355zM171 345c0 -139 67 -248 202 -248c136 0 203 109 203 248c0 138 -67 248 -203 248c-135 0 -202 -110 -202 -248zM374 734c-76 0 -133 30 -158 64c-15 20 -17 45 0 61
c23 22 46 8 65 -10c28 -27 57 -38 93 -38s64 10 92 37c19 19 42 31 65 11c19 -16 14 -41 -1 -61c-25 -34 -80 -64 -156 -64z" />
    <glyph glyph-name="Ohungarumlaut" unicode="&#x150;" horiz-adv-x="747" 
d="M45 345c0 198 111 355 328 355s329 -157 329 -355c0 -199 -112 -355 -329 -355s-328 156 -328 355zM171 345c0 -139 67 -248 202 -248c136 0 203 109 203 248c0 138 -67 248 -203 248c-135 0 -202 -110 -202 -248zM410 805l-139 -64c-26 -12 -56 -17 -69 10
c-13 25 -4 48 31 64l143 67c26 12 55 13 67 -12s4 -48 -33 -65zM636 805l-139 -64c-26 -12 -56 -17 -69 10c-13 25 -4 48 31 64l143 67c26 12 55 13 67 -12s4 -48 -33 -65z" />
    <glyph glyph-name="Ugrave" unicode="&#xd9;" horiz-adv-x="679" 
d="M489 276v352c0 34 17 62 57 62c39 0 58 -28 58 -62v-347c0 -157 -61 -291 -263 -291c-201 0 -266 132 -266 289v349c0 34 20 62 59 62c40 0 61 -28 61 -62v-354c0 -97 36 -177 147 -177s147 81 147 179zM375 741l-139 64c-36 18 -44 42 -33 65c13 27 41 24 67 12l143 -67
c35 -16 44 -40 31 -64c-13 -25 -43 -22 -69 -10z" />
    <glyph glyph-name="Uacute" unicode="&#xda;" horiz-adv-x="679" 
d="M489 276v352c0 34 17 62 57 62c39 0 58 -28 58 -62v-347c0 -157 -61 -291 -263 -291c-201 0 -266 132 -266 289v349c0 34 20 62 59 62c40 0 61 -28 61 -62v-354c0 -97 36 -177 147 -177s147 81 147 179zM501 805l-139 -64c-26 -12 -56 -17 -69 10c-13 25 -4 48 31 64
l143 67c26 12 55 13 67 -12s3 -47 -33 -65z" />
    <glyph glyph-name="Ucircumflex" unicode="&#xdb;" horiz-adv-x="679" 
d="M489 276v352c0 34 17 62 57 62c39 0 58 -28 58 -62v-347c0 -157 -61 -291 -263 -291c-201 0 -266 132 -266 289v349c0 34 20 62 59 62c40 0 61 -28 61 -62v-354c0 -97 36 -177 147 -177s147 81 147 179zM199 811l109 62c20 11 43 12 65 0l120 -65c29 -15 35 -39 23 -62
s-36 -25 -61 -11l-116 64l-108 -61c-26 -15 -51 -10 -61 12s-5 42 29 61z" />
    <glyph glyph-name="Udieresis" unicode="&#xdc;" horiz-adv-x="679" 
d="M489 276v352c0 34 17 62 57 62c39 0 58 -28 58 -62v-347c0 -157 -61 -291 -263 -291c-201 0 -266 132 -266 289v349c0 34 20 62 59 62c40 0 61 -28 61 -62v-354c0 -97 36 -177 147 -177s147 81 147 179zM164 796c0 39 32 60 72 60c42 0 74 -21 74 -60s-32 -58 -74 -58
c-40 0 -72 19 -72 58zM372 796c0 39 31 60 73 60c41 0 73 -21 73 -60s-32 -58 -73 -58c-42 0 -73 19 -73 58z" />
    <glyph glyph-name="Umacron" unicode="&#x16a;" horiz-adv-x="679" 
d="M489 276v352c0 34 17 62 57 62c39 0 58 -28 58 -62v-347c0 -157 -61 -291 -263 -291c-201 0 -266 132 -266 289v349c0 34 20 62 59 62c40 0 61 -28 61 -62v-354c0 -97 36 -177 147 -177s147 81 147 179zM468 748h-245c-32 0 -48 14 -48 39c0 26 16 40 48 40h245
c33 0 48 -14 48 -40c0 -25 -15 -39 -48 -39z" />
    <glyph glyph-name="Ubreve" unicode="&#x16c;" horiz-adv-x="679" 
d="M489 276v352c0 34 17 62 57 62c39 0 58 -28 58 -62v-347c0 -157 -61 -291 -263 -291c-201 0 -266 132 -266 289v349c0 34 20 62 59 62c40 0 61 -28 61 -62v-354c0 -97 36 -177 147 -177s147 81 147 179zM346 734c-76 0 -133 30 -158 64c-15 20 -17 45 0 61
c23 22 46 8 65 -10c28 -27 57 -38 93 -38s64 10 92 37c19 19 42 31 65 11c19 -16 14 -41 -1 -61c-25 -34 -80 -64 -156 -64z" />
    <glyph glyph-name="Uring" unicode="&#x16e;" horiz-adv-x="679" 
d="M489 276v352c0 34 17 62 57 62c39 0 58 -28 58 -62v-347c0 -157 -61 -291 -263 -291c-201 0 -266 132 -266 289v349c0 34 20 62 59 62c40 0 61 -28 61 -62v-354c0 -97 36 -177 147 -177s147 81 147 179zM357 875c77 0 119 -37 119 -93c0 -57 -42 -94 -119 -94
s-119 37 -119 94c0 56 42 93 119 93zM312 782c0 -24 16 -44 45 -44c28 0 46 19 46 44c0 24 -19 43 -46 43c-28 0 -45 -18 -45 -43z" />
    <glyph glyph-name="Uhungarumlaut" unicode="&#x170;" horiz-adv-x="679" 
d="M489 276v352c0 34 17 62 57 62c39 0 58 -28 58 -62v-347c0 -157 -61 -291 -263 -291c-201 0 -266 132 -266 289v349c0 34 20 62 59 62c40 0 61 -28 61 -62v-354c0 -97 36 -177 147 -177s147 81 147 179zM390 805l-139 -64c-26 -12 -56 -17 -69 10c-13 25 -4 48 31 64
l143 67c26 12 55 13 67 -12s4 -48 -33 -65zM616 805l-139 -64c-26 -12 -56 -17 -69 10c-13 25 -4 48 31 64l143 67c26 12 55 13 67 -12s4 -48 -33 -65z" />
    <glyph glyph-name="Uogonek" unicode="&#x172;" horiz-adv-x="679" 
d="M489 276v352c0 34 17 62 57 62c39 0 58 -28 58 -62v-348c0 -116 -28 -208 -123 -261c-28 -15 -59 -34 -80 -58c-25 -29 -38 -53 -38 -82c0 -27 15 -41 39 -41c13 0 25 4 35 7c16 5 29 1 36 -11c10 -16 2 -41 -19 -55c-19 -12 -41 -19 -75 -19c-72 0 -122 42 -122 108
c0 47 21 88 61 123c-183 10 -243 140 -243 290v347c0 34 20 62 59 62c40 0 61 -28 61 -62v-352c0 -97 36 -179 147 -179s147 81 147 179z" />
    <glyph glyph-name="Cacute" unicode="&#x106;" horiz-adv-x="629" 
d="M368 593c-124 0 -197 -99 -197 -247c0 -160 88 -249 200 -249c55 0 98 17 142 43c33 19 61 15 76 -7c16 -24 12 -58 -23 -84c-50 -37 -116 -59 -204 -59c-215 0 -317 143 -317 355s116 355 321 355c84 0 145 -18 185 -46c30 -21 35 -49 24 -73s-36 -31 -76 -16
c-39 15 -74 28 -131 28zM506 805l-139 -64c-26 -12 -56 -17 -69 10c-13 25 -4 48 31 64l143 67c26 12 55 13 67 -12s3 -47 -33 -65z" />
    <glyph glyph-name="Ccircumflex" unicode="&#x108;" horiz-adv-x="629" 
d="M368 593c-124 0 -197 -99 -197 -247c0 -160 88 -249 200 -249c55 0 98 17 142 43c33 19 61 15 76 -7c16 -24 12 -58 -23 -84c-50 -37 -116 -59 -204 -59c-215 0 -317 143 -317 355s116 355 321 355c84 0 145 -18 185 -46c30 -21 35 -49 24 -73s-36 -31 -76 -16
c-39 15 -74 28 -131 28zM214 811l109 62c20 11 43 12 65 0l120 -65c29 -15 35 -39 23 -62s-36 -25 -61 -11l-116 64l-108 -61c-26 -15 -51 -10 -61 12s-5 42 29 61z" />
    <glyph glyph-name="Cdotaccent" unicode="&#x10a;" horiz-adv-x="629" 
d="M368 593c-124 0 -197 -99 -197 -247c0 -160 88 -249 200 -249c55 0 98 17 142 43c33 19 61 15 76 -7c16 -24 12 -58 -23 -84c-50 -37 -116 -59 -204 -59c-215 0 -317 143 -317 355s116 355 321 355c84 0 145 -18 185 -46c30 -21 35 -49 24 -73s-36 -31 -76 -16
c-39 15 -74 28 -131 28zM284 804c0 45 37 64 80 64c42 0 80 -19 80 -64s-38 -63 -80 -63c-43 0 -80 18 -80 63z" />
    <glyph glyph-name="Ccaron" unicode="&#x10c;" horiz-adv-x="629" 
d="M368 593c-124 0 -197 -99 -197 -247c0 -160 88 -249 200 -249c55 0 98 17 142 43c33 19 61 15 76 -7c16 -24 12 -58 -23 -84c-50 -37 -116 -59 -204 -59c-215 0 -317 143 -317 355s116 355 321 355c84 0 145 -18 185 -46c30 -21 35 -49 24 -73s-36 -31 -76 -16
c-39 15 -74 28 -131 28zM510 801l-109 -62c-20 -11 -43 -12 -65 0l-120 65c-29 15 -37 41 -23 64s37 22 61 9l118 -66l106 63c26 15 50 10 61 -12s5 -42 -29 -61z" />
    <glyph glyph-name="uni04EA" unicode="&#x4ea;" horiz-adv-x="747" 
d="M196 796c0 39 32 60 72 60c42 0 74 -21 74 -60s-32 -58 -74 -58c-40 0 -72 19 -72 58zM404 796c0 39 31 60 73 60c41 0 73 -21 73 -60s-32 -58 -73 -58c-42 0 -73 19 -73 58zM45 345c0 198 111 355 328 355s329 -157 329 -355c0 -199 -112 -355 -329 -355
s-328 156 -328 355zM373 97c120 0 190 86 200 202h-400c10 -116 80 -202 200 -202zM373 593c-116 0 -186 -82 -198 -192h397c-13 110 -82 192 -199 192z" />
    <glyph glyph-name="Dcaron" unicode="&#x10e;" horiz-adv-x="696" 
d="M75 69v543c0 34 13 61 55 69c38 8 101 14 168 14c235 0 353 -120 353 -347c0 -214 -117 -353 -352 -353c-72 0 -121 2 -168 10c-39 7 -56 29 -56 64zM299 102c158 0 226 90 226 246c0 155 -70 240 -227 240c-40 0 -74 -3 -103 -6v-475c35 -4 62 -5 104 -5zM460 801
l-109 -62c-20 -11 -43 -12 -65 0l-120 65c-29 15 -37 41 -23 64s37 22 61 9l118 -66l106 63c26 15 50 10 61 -12s5 -42 -29 -61z" />
    <glyph glyph-name="Gcircumflex" unicode="&#x11c;" horiz-adv-x="667" 
d="M373 700c79 0 143 -17 183 -44c31 -21 38 -49 25 -73s-37 -31 -77 -16c-39 15 -79 26 -130 26c-132 0 -203 -103 -203 -250c0 -158 74 -246 205 -246c59 0 112 14 148 39v134h-113c-36 0 -53 18 -53 46c0 29 17 46 53 46h151c32 0 60 -10 60 -52v-190
c0 -29 -11 -51 -32 -66c-43 -32 -126 -64 -222 -64c-226 0 -323 142 -323 356c0 212 123 354 328 354zM220 811l109 62c20 11 43 12 65 0l120 -65c29 -15 35 -39 23 -62s-36 -25 -61 -11l-116 64l-108 -61c-26 -15 -51 -10 -61 12s-5 42 29 61z" />
    <glyph glyph-name="Gbreve" unicode="&#x11e;" horiz-adv-x="667" 
d="M373 700c79 0 143 -17 183 -44c31 -21 38 -49 25 -73s-37 -31 -77 -16c-39 15 -79 26 -130 26c-132 0 -203 -103 -203 -250c0 -158 74 -246 205 -246c59 0 112 14 148 39v134h-113c-36 0 -53 18 -53 46c0 29 17 46 53 46h151c32 0 60 -10 60 -52v-190
c0 -29 -11 -51 -32 -66c-43 -32 -126 -64 -222 -64c-226 0 -323 142 -323 356c0 212 123 354 328 354zM364 734c-76 0 -133 30 -158 64c-15 20 -17 45 0 61c23 22 46 8 65 -10c28 -27 57 -38 93 -38s64 10 92 37c19 19 42 31 65 11c19 -16 14 -41 -1 -61
c-25 -34 -80 -64 -156 -64z" />
    <glyph glyph-name="Gdotaccent" unicode="&#x120;" horiz-adv-x="667" 
d="M373 700c79 0 143 -17 183 -44c31 -21 38 -49 25 -73s-37 -31 -77 -16c-39 15 -79 26 -130 26c-132 0 -203 -103 -203 -250c0 -158 74 -246 205 -246c59 0 112 14 148 39v134h-113c-36 0 -53 18 -53 46c0 29 17 46 53 46h151c32 0 60 -10 60 -52v-190
c0 -29 -11 -51 -32 -66c-43 -32 -126 -64 -222 -64c-226 0 -323 142 -323 356c0 212 123 354 328 354zM280 804c0 45 37 64 80 64c42 0 80 -19 80 -64s-38 -63 -80 -63c-43 0 -80 18 -80 63z" />
    <glyph glyph-name="Gcommaaccent" unicode="&#x122;" horiz-adv-x="667" 
d="M333 -216c19 19 34 38 34 63c0 18 -13 28 -30 35c-23 12 -32 32 -23 55s33 30 62 24c49 -10 79 -48 79 -97c0 -52 -31 -96 -62 -120c-22 -16 -59 -31 -75 -11c-13 17 -1 33 15 51zM373 700c79 0 143 -17 183 -44c31 -21 38 -49 25 -73s-37 -31 -77 -16
c-39 15 -79 26 -130 26c-132 0 -203 -103 -203 -250c0 -158 74 -246 205 -246c59 0 112 14 148 39v134h-113c-36 0 -53 18 -53 46c0 29 17 46 53 46h151c32 0 60 -10 60 -52v-190c0 -29 -11 -51 -32 -66c-43 -32 -126 -64 -222 -64c-226 0 -323 142 -323 356
c0 212 123 354 328 354z" />
    <glyph glyph-name="Hcircumflex" unicode="&#x124;" horiz-adv-x="708" 
d="M513 61v238h-318v-238c0 -34 -21 -61 -60 -61c-40 0 -60 27 -60 61v567c0 34 20 62 60 62c39 0 60 -28 60 -62v-222h318v222c0 34 20 62 60 62c39 0 60 -28 60 -62v-567c0 -34 -21 -61 -60 -61c-40 0 -60 27 -60 61zM208 811l109 62c20 11 43 12 65 0l120 -65
c29 -15 35 -39 23 -62s-36 -25 -61 -11l-116 64l-108 -61c-26 -15 -51 -10 -61 12s-5 42 29 61z" />
    <glyph glyph-name="Kcommaaccent" unicode="&#x136;" horiz-adv-x="571" 
d="M256 -216c19 19 34 38 34 63c0 18 -13 28 -30 35c-23 12 -33 32 -24 55c10 23 33 30 62 24c49 -10 79 -48 79 -97c0 -52 -30 -96 -62 -120c-21 -16 -59 -31 -74 -11c-13 17 -2 33 15 51zM75 61v567c0 34 20 62 60 62c39 0 60 -28 60 -62v-252l245 281c27 31 59 45 89 18
c28 -25 18 -63 -7 -89l-213 -230l228 -241c29 -30 39 -70 12 -96c-32 -31 -67 -19 -97 13l-257 283v-254c0 -34 -21 -61 -60 -61c-40 0 -60 27 -60 61z" />
    <glyph glyph-name="Rcommaaccent" unicode="&#x156;" horiz-adv-x="612" 
d="M276 -216c19 19 34 38 34 63c0 18 -13 28 -30 35c-23 12 -33 32 -24 55c10 23 33 30 62 24c49 -10 79 -48 79 -97c0 -52 -30 -96 -62 -120c-21 -16 -59 -31 -74 -11c-13 17 -2 33 15 51zM75 61v552c0 43 22 62 56 69c32 7 87 13 150 13c147 0 259 -52 259 -208
c0 -97 -50 -163 -126 -189l127 -193c23 -36 21 -77 -11 -96c-38 -22 -71 0 -91 33l-142 234c-13 -2 -29 -2 -43 -2c-17 0 -39 1 -59 4v-217c0 -34 -21 -61 -60 -61c-40 0 -60 27 -60 61zM263 364c101 0 151 33 151 116c0 79 -56 108 -143 108c-28 0 -51 -3 -76 -6v-214
c23 -3 49 -4 68 -4z" />
    <glyph glyph-name="Tcommaaccent" unicode="&#x162;" horiz-adv-x="599" 
d="M261 -216c19 19 34 38 34 63c0 18 -13 28 -30 35c-23 12 -32 32 -23 55s33 30 62 24c49 -10 79 -48 79 -97c0 -52 -31 -96 -62 -120c-22 -16 -59 -31 -75 -11c-13 17 -1 33 15 51zM62 690h474c36 0 58 -20 58 -53c0 -32 -22 -54 -58 -54h-177v-522c0 -34 -20 -61 -60 -61
s-60 27 -60 61v522h-177c-35 0 -57 22 -57 54c0 33 22 53 57 53z" />
    <glyph glyph-name="Gcaron" unicode="&#x1e6;" horiz-adv-x="667" 
d="M373 700c79 0 143 -17 183 -44c31 -21 38 -49 25 -73s-37 -31 -77 -16c-39 15 -79 26 -130 26c-132 0 -203 -103 -203 -250c0 -158 74 -246 205 -246c59 0 112 14 148 39v134h-113c-36 0 -53 18 -53 46c0 29 17 46 53 46h151c32 0 60 -10 60 -52v-190
c0 -29 -11 -51 -32 -66c-43 -32 -126 -64 -222 -64c-226 0 -323 142 -323 356c0 212 123 354 328 354zM511 801l-109 -62c-20 -11 -43 -12 -65 0l-120 65c-29 15 -37 41 -23 64s37 22 61 9l118 -66l106 63c26 15 50 10 61 -12s5 -42 -29 -61z" />
    <glyph glyph-name="uni021A" unicode="&#x21a;" horiz-adv-x="599" 
d="M259 -216c19 19 34 38 34 63c0 18 -13 28 -30 35c-23 12 -32 32 -23 55s33 30 62 24c49 -10 79 -48 79 -97c0 -52 -31 -96 -62 -120c-22 -16 -59 -31 -75 -11c-13 17 -1 33 15 51zM62 690h474c36 0 58 -20 58 -53c0 -32 -22 -54 -58 -54h-177v-522c0 -34 -20 -61 -60 -61
s-60 27 -60 61v522h-177c-35 0 -57 22 -57 54c0 33 22 53 57 53z" />
    <glyph glyph-name="Lcommaaccent" unicode="&#x13b;" horiz-adv-x="533" 
d="M244 -216c19 19 34 38 34 63c0 18 -13 28 -30 35c-23 12 -33 32 -24 55c10 23 33 30 62 24c49 -10 79 -48 79 -97c0 -52 -30 -96 -62 -120c-21 -16 -59 -31 -74 -11c-13 17 -2 33 15 51zM471 0h-338c-39 0 -58 29 -58 61v567c0 34 20 62 60 62c39 0 60 -28 60 -62v-521
h276c35 0 57 -22 57 -53c0 -34 -22 -54 -57 -54z" />
    <glyph glyph-name="Tcaron" unicode="&#x164;" horiz-adv-x="599" 
d="M62 690h474c36 0 58 -20 58 -53c0 -32 -22 -54 -58 -54h-177v-522c0 -34 -20 -61 -60 -61s-60 27 -60 61v522h-177c-35 0 -57 22 -57 54c0 33 22 53 57 53zM445 801l-109 -62c-20 -11 -43 -12 -65 0l-120 65c-29 15 -37 41 -23 64s37 22 61 9l118 -66l106 63
c26 15 50 10 61 -12s5 -42 -29 -61z" />
    <glyph glyph-name="uni04DA" unicode="&#x4da;" horiz-adv-x="656" 
d="M312 593c-54 0 -97 -14 -141 -30c-26 -9 -62 -16 -77 14s-2 59 35 80c45 25 119 43 187 43c223 0 295 -150 295 -354c0 -171 -65 -355 -290 -355c-197 0 -276 134 -276 297c0 123 41 127 122 127h322c-6 108 -61 178 -177 178zM324 95c118 0 165 85 166 220h-324
c-2 -19 -3 -42 -1 -60c6 -102 66 -160 159 -160zM138 796c0 39 32 60 72 60c42 0 74 -21 74 -60s-32 -58 -74 -58c-40 0 -72 19 -72 58zM346 796c0 39 31 60 73 60c41 0 73 -21 73 -60s-32 -58 -73 -58c-42 0 -73 19 -73 58z" />
    <glyph glyph-name="uni04D0" unicode="&#x4d0;" horiz-adv-x="611" 
d="M485 47l-56 148h-257l-52 -141c-12 -35 -38 -67 -82 -49c-31 13 -33 48 -20 82l225 564c13 34 33 49 61 49c31 0 48 -19 58 -43l232 -569c12 -30 8 -70 -27 -83c-38 -14 -68 4 -82 42zM298 541l-94 -252h191zM303 734c-76 0 -133 30 -158 64c-15 20 -17 45 0 61
c23 22 46 8 65 -10c28 -27 57 -38 93 -38s64 10 92 37c19 19 42 31 65 11c19 -16 14 -41 -1 -61c-25 -34 -80 -64 -156 -64z" />
    <glyph glyph-name="uni04E6" unicode="&#x4e6;" horiz-adv-x="747" 
d="M45 345c0 198 111 355 328 355s329 -157 329 -355c0 -199 -112 -355 -329 -355s-328 156 -328 355zM171 345c0 -139 67 -248 202 -248c136 0 203 109 203 248c0 138 -67 248 -203 248c-135 0 -202 -110 -202 -248zM192 796c0 39 32 60 72 60c42 0 74 -21 74 -60
s-32 -58 -74 -58c-40 0 -72 19 -72 58zM400 796c0 39 31 60 73 60c41 0 73 -21 73 -60s-32 -58 -73 -58c-42 0 -73 19 -73 58z" />
    <glyph glyph-name="Jcircumflex" unicode="&#x134;" horiz-adv-x="388" 
d="M-19 97c12 28 41 30 70 19c17 -7 49 -19 73 -19c44 0 69 26 69 74v457c0 34 20 62 60 62c39 0 60 -28 60 -62v-459c0 -111 -56 -179 -170 -179c-52 0 -95 8 -125 25c-34 19 -51 48 -37 82zM104 811l109 62c20 11 43 12 65 0l120 -65c29 -15 35 -39 23 -62
s-36 -25 -61 -11l-116 64l-108 -61c-26 -15 -51 -10 -61 12s-5 42 29 61z" />
    <glyph glyph-name="Racute" unicode="&#x154;" horiz-adv-x="612" 
d="M75 61v552c0 43 22 62 56 69c32 7 87 13 150 13c147 0 259 -52 259 -208c0 -97 -50 -163 -126 -189l127 -193c23 -36 21 -77 -11 -96c-38 -22 -71 0 -91 33l-142 234c-13 -2 -29 -2 -43 -2c-17 0 -39 1 -59 4v-217c0 -34 -21 -61 -60 -61c-40 0 -60 27 -60 61zM263 364
c101 0 151 33 151 116c0 79 -56 108 -143 108c-28 0 -51 -3 -76 -6v-214c23 -3 49 -4 68 -4zM417 805l-139 -64c-26 -12 -56 -17 -69 10c-13 25 -4 48 31 64l143 67c26 12 55 13 67 -12s3 -47 -33 -65z" />
    <glyph glyph-name="Rcaron" unicode="&#x158;" horiz-adv-x="612" 
d="M75 61v552c0 43 22 62 56 69c32 7 87 13 150 13c147 0 259 -52 259 -208c0 -97 -50 -163 -126 -189l127 -193c23 -36 21 -77 -11 -96c-38 -22 -71 0 -91 33l-142 234c-13 -2 -29 -2 -43 -2c-17 0 -39 1 -59 4v-217c0 -34 -21 -61 -60 -61c-40 0 -60 27 -60 61zM263 364
c101 0 151 33 151 116c0 79 -56 108 -143 108c-28 0 -51 -3 -76 -6v-214c23 -3 49 -4 68 -4zM425 801l-109 -62c-20 -11 -43 -12 -65 0l-120 65c-29 15 -37 41 -23 64s37 22 61 9l118 -66l106 63c26 15 50 10 61 -12s5 -42 -29 -61z" />
    <glyph glyph-name="Zacute" unicode="&#x179;" horiz-adv-x="574" 
d="M85 0c-66 0 -73 61 -45 100l350 483h-293c-36 0 -58 22 -58 54c0 33 22 53 58 53h384c63 0 76 -54 46 -97l-350 -486h316c36 0 57 -21 57 -54c0 -32 -22 -53 -57 -53h-408zM441 805l-139 -64c-26 -12 -56 -17 -69 10c-13 25 -4 48 31 64l143 67c26 12 55 13 67 -12
s3 -47 -33 -65z" />
    <glyph glyph-name="Zdotaccent" unicode="&#x17b;" horiz-adv-x="574" 
d="M85 0c-66 0 -73 61 -45 100l350 483h-293c-36 0 -58 22 -58 54c0 33 22 53 58 53h384c63 0 76 -54 46 -97l-350 -486h316c36 0 57 -21 57 -54c0 -32 -22 -53 -57 -53h-408zM219 804c0 45 37 64 80 64c42 0 80 -19 80 -64s-38 -63 -80 -63c-43 0 -80 18 -80 63z" />
    <glyph glyph-name="Zcaron" unicode="&#x17d;" horiz-adv-x="574" 
d="M85 0c-66 0 -73 61 -45 100l350 483h-293c-36 0 -58 22 -58 54c0 33 22 53 58 53h384c63 0 76 -54 46 -97l-350 -486h316c36 0 57 -21 57 -54c0 -32 -22 -53 -57 -53h-408zM437 801l-109 -62c-20 -11 -43 -12 -65 0l-120 65c-29 15 -37 41 -23 64s37 22 61 9l118 -66
l106 63c26 15 50 10 61 -12s5 -42 -29 -61z" />
    <glyph glyph-name="afii10062" unicode="&#x40e;" horiz-adv-x="585" 
d="M267 181l-235 402c-22 38 -22 80 12 99c35 20 68 3 90 -39l189 -349l141 342c16 39 39 64 80 49c37 -14 35 -53 22 -84l-172 -402c-56 -131 -103 -209 -198 -209c-32 0 -67 4 -96 20c-31 17 -47 46 -35 77c12 32 40 34 65 26c20 -6 36 -15 60 -15c36 0 57 32 77 83z
M290 734c-76 0 -133 30 -158 64c-15 20 -17 45 0 61c23 22 46 8 65 -10c28 -27 57 -38 93 -38s64 10 92 37c19 19 42 31 65 11c19 -16 14 -41 -1 -61c-25 -34 -80 -64 -156 -64z" />
    <glyph glyph-name="uni04EE" unicode="&#x4ee;" horiz-adv-x="585" 
d="M267 181l-235 402c-22 38 -22 80 12 99c35 20 68 3 90 -39l189 -349l141 342c16 39 39 64 80 49c37 -14 35 -53 22 -84l-172 -402c-56 -131 -103 -209 -198 -209c-32 0 -67 4 -96 20c-31 17 -47 46 -35 77c12 32 40 34 65 26c20 -6 36 -15 60 -15c36 0 57 32 77 83z
M422 748h-245c-32 0 -48 14 -48 39c0 26 16 40 48 40h245c33 0 48 -14 48 -40c0 -25 -15 -39 -48 -39z" />
    <glyph glyph-name="uni04F0" unicode="&#x4f0;" horiz-adv-x="585" 
d="M267 181l-235 402c-22 38 -22 80 12 99c35 20 68 3 90 -39l189 -349l141 342c16 39 39 64 80 49c37 -14 35 -53 22 -84l-172 -402c-56 -131 -103 -209 -198 -209c-32 0 -67 4 -96 20c-31 17 -47 46 -35 77c12 32 40 34 65 26c20 -6 36 -15 60 -15c36 0 57 32 77 83z
M121 796c0 39 32 60 72 60c42 0 74 -21 74 -60s-32 -58 -74 -58c-40 0 -72 19 -72 58zM329 796c0 39 31 60 73 60c41 0 73 -21 73 -60s-32 -58 -73 -58c-42 0 -73 19 -73 58z" />
    <glyph glyph-name="uni04F2" unicode="&#x4f2;" horiz-adv-x="585" 
d="M267 181l-235 402c-22 38 -22 80 12 99c35 20 68 3 90 -39l189 -349l141 342c16 39 39 64 80 49c37 -14 35 -53 22 -84l-172 -402c-56 -131 -103 -209 -198 -209c-32 0 -67 4 -96 20c-31 17 -47 46 -35 77c12 32 40 34 65 26c20 -6 36 -15 60 -15c36 0 57 32 77 83z
M330 805l-139 -64c-26 -12 -56 -17 -69 10c-13 25 -4 48 31 64l143 67c26 12 55 13 67 -12s4 -48 -33 -65zM556 805l-139 -64c-26 -12 -56 -17 -69 10c-13 25 -4 48 31 64l143 67c26 12 55 13 67 -12s4 -48 -33 -65z" />
    <glyph glyph-name="uni04DC" unicode="&#x4dc;" horiz-adv-x="840" 
d="M364 61v262l-246 -289c-28 -32 -64 -47 -96 -15c-26 26 -16 62 6 86l227 245l-201 238c-22 25 -30 63 -5 87c27 26 64 18 94 -21l221 -281v255c0 34 16 62 56 62c39 0 56 -28 56 -62v-258l223 283c30 39 63 47 91 22c26 -24 16 -58 -5 -84l-199 -237l226 -248
c22 -25 31 -64 7 -88c-29 -29 -66 -22 -93 11l-250 295v-263c0 -34 -17 -61 -56 -61c-40 0 -56 27 -56 61zM244 796c0 39 32 60 72 60c42 0 74 -21 74 -60s-32 -58 -74 -58c-40 0 -72 19 -72 58zM452 796c0 39 31 60 73 60c41 0 73 -21 73 -60s-32 -58 -73 -58
c-42 0 -73 19 -73 58z" />
    <glyph glyph-name="uni04DE" unicode="&#x4de;" horiz-adv-x="580" 
d="M265 97c89 0 144 37 144 109c0 69 -53 97 -144 99h-75c-29 0 -49 17 -49 47c0 28 20 47 49 47h62c84 0 135 34 135 102c0 54 -36 92 -118 92c-41 0 -81 -10 -125 -25c-27 -9 -64 -17 -79 14c-14 29 -2 58 33 77c52 28 118 41 183 41c138 0 232 -60 232 -181
c0 -61 -31 -126 -103 -154c81 -21 125 -79 125 -156c0 -159 -125 -219 -269 -219c-70 0 -140 14 -184 37c-34 18 -51 48 -36 82s50 28 85 15c37 -14 84 -27 134 -27zM104 796c0 39 32 60 72 60c42 0 74 -21 74 -60s-32 -58 -74 -58c-40 0 -72 19 -72 58zM312 796
c0 39 31 60 73 60c41 0 73 -21 73 -60s-32 -58 -73 -58c-42 0 -73 19 -73 58z" />
    <glyph glyph-name="uni04E4" unicode="&#x4e4;" horiz-adv-x="708" 
d="M195 628v-419l323 447c14 19 32 34 58 34c41 0 57 -28 57 -62v-567c0 -33 -18 -61 -59 -61c-42 0 -61 28 -61 61v418l-325 -444c-13 -17 -31 -35 -56 -35c-37 0 -57 23 -57 61v567c0 33 18 62 60 62c41 0 60 -29 60 -62zM173 796c0 39 32 60 72 60c42 0 74 -21 74 -60
s-32 -58 -74 -58c-40 0 -72 19 -72 58zM381 796c0 39 31 60 73 60c41 0 73 -21 73 -60s-32 -58 -73 -58c-42 0 -73 19 -73 58z" />
    <glyph glyph-name="uni04E2" unicode="&#x4e2;" horiz-adv-x="708" 
d="M195 628v-419l323 447c14 19 32 34 58 34c41 0 57 -28 57 -62v-567c0 -33 -18 -61 -59 -61c-42 0 -61 28 -61 61v418l-325 -444c-13 -17 -31 -35 -56 -35c-37 0 -57 23 -57 61v567c0 33 18 62 60 62c41 0 60 -29 60 -62zM473 748h-245c-32 0 -48 14 -48 39
c0 26 16 40 48 40h245c33 0 48 -14 48 -40c0 -25 -15 -39 -48 -39z" />
    <glyph glyph-name="uni04F8" unicode="&#x4f8;" horiz-adv-x="822" 
d="M75 76v553c0 34 20 61 60 61c39 0 60 -27 60 -61v-195c24 5 64 7 90 7c158 0 250 -58 250 -223c0 -145 -99 -223 -254 -223c-54 0 -99 1 -150 12c-40 9 -56 34 -56 69zM271 334c-27 0 -54 -3 -76 -6v-220c29 -4 51 -6 83 -6c90 0 131 42 131 118c0 88 -57 114 -138 114z
M627 61v567c0 34 20 62 60 62c39 0 60 -28 60 -62v-567c0 -34 -21 -61 -60 -61c-40 0 -60 27 -60 61zM234 796c0 39 32 60 72 60c42 0 74 -21 74 -60s-32 -58 -74 -58c-40 0 -72 19 -72 58zM442 796c0 39 31 60 73 60c41 0 73 -21 73 -60s-32 -58 -73 -58
c-42 0 -73 19 -73 58z" />
    <glyph glyph-name="uni04F4" unicode="&#x4f4;" horiz-adv-x="606" 
d="M411 389v239c0 34 20 62 60 62s60 -28 60 -62v-567c0 -34 -20 -61 -60 -61s-60 27 -60 61v221c-44 -30 -107 -48 -160 -48c-133 0 -216 51 -216 239v155c0 33 21 62 60 62c40 0 60 -29 60 -62v-149c0 -106 36 -141 113 -141c47 0 98 20 143 51zM106 796c0 39 32 60 72 60
c42 0 74 -21 74 -60s-32 -58 -74 -58c-40 0 -72 19 -72 58zM314 796c0 39 31 60 73 60c41 0 73 -21 73 -60s-32 -58 -73 -58c-42 0 -73 19 -73 58z" />
    <glyph glyph-name="afii10061" unicode="&#x40c;" horiz-adv-x="571" 
d="M75 61v567c0 34 20 62 60 62c39 0 60 -28 60 -62v-252l245 281c27 31 59 45 89 18c28 -25 18 -63 -7 -89l-213 -230l228 -241c29 -30 39 -70 12 -96c-32 -31 -67 -19 -97 13l-257 283v-254c0 -34 -21 -61 -60 -61c-40 0 -60 27 -60 61zM448 805l-139 -64
c-26 -12 -56 -17 -69 10c-13 25 -4 48 31 64l143 67c26 12 55 13 67 -12s3 -47 -33 -65z" />
    <glyph glyph-name="afii10052" unicode="&#x403;" horiz-adv-x="494" 
d="M75 61v567c0 34 20 62 60 62h297c35 0 57 -21 57 -54c0 -32 -22 -53 -57 -53h-237v-522c0 -34 -21 -61 -60 -61c-40 0 -60 27 -60 61zM380 805l-139 -64c-26 -12 -56 -17 -69 10c-13 25 -4 48 31 64l143 67c26 12 55 13 67 -12s3 -47 -33 -65z" />
    <glyph glyph-name="at" unicode="@" horiz-adv-x="951" 
d="M674 435v-344h1h14c91 0 118 98 118 213c0 175 -107 294 -317 294c-213 0 -346 -121 -346 -367c0 -231 141 -351 349 -351c60 0 83 8 105 11c27 4 47 0 54 -25c6 -23 -4 -45 -38 -59c-25 -10 -64 -17 -120 -17c-283 0 -449 173 -449 441c0 277 168 458 447 458
c273 0 414 -155 414 -387c0 -207 -85 -302 -259 -302c-59 0 -76 22 -76 61v15c-34 -61 -78 -86 -149 -86c-110 0 -176 93 -176 241c0 169 72 269 214 269c49 0 96 -11 119 -25c11 9 24 15 47 15c36 0 48 -24 48 -55zM451 81c104 0 120 122 120 223v87c-29 9 -60 18 -97 18
c-91 0 -121 -64 -121 -182c0 -89 30 -146 98 -146z" />
    <glyph glyph-name="asciitilde" unicode="~" horiz-adv-x="495" 
d="M329 335c18 0 31 3 51 19c21 17 47 27 68 6c19 -19 12 -50 -10 -73c-31 -31 -67 -48 -106 -48c-58 0 -119 42 -166 42c-19 0 -35 -5 -55 -20c-21 -16 -44 -25 -64 -6c-18 17 -16 49 9 74c32 31 67 48 106 48c62 0 130 -42 167 -42z" />
    <glyph glyph-name="uni04AA" unicode="&#x4aa;" horiz-adv-x="634" 
d="M368 593c-124 0 -197 -99 -197 -247c0 -160 88 -249 200 -249c55 0 98 17 142 43c33 19 61 15 76 -7c16 -24 12 -58 -23 -84c-41 -30 -93 -50 -158 -57v-77c0 -34 -17 -61 -56 -61s-57 27 -57 61v80c-169 27 -250 161 -250 350c0 212 116 355 321 355
c84 0 145 -18 185 -46c30 -21 35 -49 24 -73s-36 -31 -76 -16c-39 15 -74 28 -131 28z" />
    <glyph glyph-name="uni0498" unicode="&#x498;" horiz-adv-x="580" 
d="M265 97c89 0 144 37 144 109c0 69 -53 97 -144 99h-75c-29 0 -49 17 -49 47c0 28 20 47 49 47h62c84 0 135 34 135 102c0 54 -36 92 -118 92c-41 0 -81 -10 -125 -25c-27 -9 -64 -17 -79 14c-14 29 -2 58 33 77c52 28 118 41 183 41c138 0 232 -60 232 -181
c0 -61 -31 -126 -103 -154c81 -21 125 -79 125 -156c0 -133 -87 -197 -199 -214v-80c0 -34 -17 -61 -56 -61s-57 27 -57 61v77c-55 4 -106 16 -141 35c-34 18 -51 48 -36 82s50 28 85 15c37 -14 84 -27 134 -27z" />
    <glyph glyph-name="asciicircum" unicode="^" horiz-adv-x="565" 
d="M339 664l171 -235c18 -23 22 -58 -6 -78c-32 -23 -61 -7 -83 24l-143 203l-143 -207c-20 -28 -49 -43 -78 -23c-25 17 -19 51 -1 76l169 240c13 19 28 36 57 36s44 -19 57 -36z" />
    <glyph glyph-name="afii10148" unicode="&#x474;" horiz-adv-x="646" 
d="M538 490l-176 -454c-11 -29 -33 -46 -60 -46c-31 0 -48 16 -59 42l-225 550c-17 41 -18 87 26 103c47 17 71 -16 88 -60l178 -455l143 385c43 116 89 145 157 145c36 0 62 -9 82 -25c17 -14 25 -39 17 -61c-8 -21 -25 -31 -46 -28c-16 2 -26 7 -46 7
c-34 0 -51 -28 -79 -103z" />
    <glyph glyph-name="afii10196" unicode="&#x475;" horiz-adv-x="497" 
d="M403 321l-112 -275c-12 -29 -24 -56 -60 -56c-32 0 -48 21 -62 54l-152 345c-11 26 -22 77 18 94c47 20 71 -9 88 -54l113 -276l85 218c26 66 58 123 130 123c27 0 59 -7 79 -29c13 -14 16 -35 10 -50c-9 -23 -28 -28 -45 -24c-11 2 -18 6 -31 6c-25 0 -36 -19 -61 -76z
" />
    <glyph glyph-name="afii10194" unicode="&#x463;" horiz-adv-x="541" 
d="M231 490h93c35 0 53 -17 53 -48c0 -30 -18 -46 -53 -46h-93v-72c19 3 51 6 78 6c131 0 196 -59 196 -164c0 -138 -121 -171 -238 -171c-30 0 -78 3 -102 9c-36 9 -47 30 -47 65v327h-69c-35 0 -53 16 -53 46c0 31 18 48 53 48h69v142c0 31 19 58 56 58
c38 0 57 -27 57 -58v-142zM286 88c63 0 105 21 105 79c0 55 -33 76 -97 76c-25 0 -47 -3 -63 -5v-147c16 -2 34 -3 55 -3z" />
    <glyph glyph-name="afii10146" unicode="&#x462;" horiz-adv-x="679" 
d="M51 492c-34 0 -55 16 -55 48s21 48 55 48h117v41c0 34 20 61 60 61c39 0 60 -27 60 -61v-41h137c34 0 56 -16 56 -48s-22 -48 -56 -48h-137v-59c25 5 66 8 92 8c158 0 263 -53 263 -223c0 -149 -109 -223 -264 -223c-54 0 -104 1 -155 12c-40 9 -56 34 -56 69v416h-117z
M369 334c-27 0 -59 -3 -81 -6v-220c29 -4 56 -6 88 -6c90 0 141 38 141 118c0 92 -67 114 -148 114z" />
    <glyph glyph-name="uni04BA" unicode="&#x4ba;" horiz-adv-x="606" 
d="M189 301v-239c0 -34 -20 -62 -60 -62s-60 28 -60 62v567c0 34 20 61 60 61s60 -27 60 -61v-221c44 30 107 48 160 48c133 0 216 -51 216 -239v-155c0 -33 -21 -62 -60 -62c-40 0 -60 29 -60 62v149c0 106 -36 141 -113 141c-47 0 -98 -20 -143 -51z" />
    <glyph glyph-name="uni04BB" unicode="&#x4bb;" horiz-adv-x="552" 
d="M60 58v574c0 31 19 58 56 58c38 0 57 -27 57 -58v-215c30 57 89 83 148 83c130 0 171 -81 171 -214v-228c0 -32 -19 -58 -57 -58c-37 0 -56 26 -56 58v230c0 66 -21 112 -85 112c-97 0 -119 -101 -121 -213v-129c0 -32 -19 -58 -57 -58c-37 0 -56 26 -56 58z" />
    <glyph glyph-name="hbar" unicode="&#x127;" horiz-adv-x="578" 
d="M86 58v482h-50c-28 0 -41 12 -41 35s13 34 41 34h50v23c0 31 19 58 56 58c38 0 57 -27 57 -58v-23h140c28 0 42 -11 42 -34s-14 -35 -42 -35h-140v-123c30 57 89 83 148 83c130 0 171 -81 171 -214v-228c0 -32 -19 -58 -57 -58c-37 0 -56 26 -56 58v230
c0 66 -21 112 -85 112c-97 0 -119 -101 -121 -213v-129c0 -32 -19 -58 -57 -58c-37 0 -56 26 -56 58z" />
    <glyph glyph-name="afii10108" unicode="&#x45b;" horiz-adv-x="590" 
d="M340 421h-129v-133c30 57 89 83 148 83c130 0 171 -81 171 -214v-99c0 -32 -19 -58 -57 -58c-37 0 -56 26 -56 58v101c0 66 -21 112 -85 112c-97 0 -119 -98 -121 -210v-4c0 -32 -19 -57 -57 -57c-37 0 -56 26 -56 58v363h-61c-28 0 -41 12 -41 34c0 23 13 35 41 35h61
v142c0 31 19 58 56 58c38 0 57 -27 57 -58v-142h129c28 0 42 -12 42 -35c0 -22 -14 -34 -42 -34z" />
    <glyph glyph-name="radical" unicode="&#x221a;" horiz-adv-x="571" 
d="M607 594h-108l-137 -540c-15 -59 -36 -64 -61 -64c-37 0 -50 30 -64 65l-135 339h-58c-32 0 -49 21 -49 48s17 48 49 48h88c30 0 50 -14 64 -51l100 -259l107 454c9 40 34 56 66 56h138c32 0 49 -21 49 -48s-17 -48 -49 -48z" />
    <glyph glyph-name="lozenge" unicode="&#x25ca;" horiz-adv-x="556" 
d="M221 61l-165 242c-18 29 -21 56 -2 85l165 242c10 16 28 36 57 36s46 -20 57 -36l169 -241c17 -26 16 -50 0 -77l-168 -251c-11 -16 -26 -35 -56 -35s-46 19 -57 35zM273 543l-133 -192l139 -203l134 194z" />
    <glyph glyph-name="infinity" unicode="&#x221e;" horiz-adv-x="729" 
d="M204 273c44 0 78 32 101 66c-26 35 -60 71 -100 71c-43 0 -73 -24 -73 -69c0 -53 40 -68 72 -68zM695 339c0 -93 -64 -163 -162 -163c-66 0 -130 42 -170 91c-38 -47 -101 -91 -171 -91c-75 0 -159 40 -159 165c0 108 69 165 167 165c62 0 124 -42 164 -91
c37 47 101 91 175 91c84 0 156 -54 156 -167zM524 410c-43 0 -79 -33 -102 -66c26 -35 62 -71 105 -71s69 26 69 67c0 48 -29 70 -72 70z" />
    <glyph glyph-name="afii10047" unicode="&#x42d;" horiz-adv-x="642" 
d="M279 593c-47 0 -89 -12 -137 -31c-26 -9 -63 -17 -79 14c-16 32 1 64 45 86c42 21 106 38 175 38c220 0 308 -142 308 -345c0 -210 -97 -365 -321 -365c-79 0 -146 15 -186 39c-34 21 -48 50 -36 80s43 31 70 22c44 -15 89 -34 150 -34c138 0 193 88 198 205h-280
c-34 0 -55 15 -55 49c0 31 21 48 55 48h281c-6 119 -73 194 -188 194z" />
    <glyph glyph-name="integral" unicode="&#x222b;" horiz-adv-x="322" 
d="M104 495c0 138 40 205 160 205c41 0 67 -10 86 -21c22 -13 34 -35 26 -58c-9 -27 -30 -33 -58 -25c-17 4 -32 8 -49 8c-40 0 -52 -29 -52 -78v-521c0 -138 -40 -205 -160 -205c-41 0 -67 9 -86 20c-23 13 -33 37 -26 59c9 27 30 33 58 25c17 -4 32 -8 49 -8
c40 0 52 29 52 78v521z" />
    <glyph glyph-name="uni2074" unicode="&#x2074;" horiz-adv-x="332" 
d="M259 416v-43c0 -30 -13 -48 -44 -48c-30 0 -43 18 -43 48v43h-124c-48 0 -59 47 -32 80l147 174c14 17 28 30 52 30c37 0 44 -28 44 -53v-159h15c26 0 38 -13 38 -36c0 -22 -12 -36 -38 -36h-15zM175 576l-78 -88h78v88z" />
    <glyph glyph-name="uni2075" unicode="&#x2075;" horiz-adv-x="334" 
d="M125 690h107c35 0 47 -18 47 -41c0 -27 -17 -38 -47 -38h-99l-5 -45c14 2 24 3 48 3c84 0 122 -58 122 -117c0 -85 -60 -132 -151 -132c-50 0 -87 13 -107 29c-17 14 -22 37 -13 54c10 20 31 21 45 16c25 -8 45 -16 68 -16c41 0 56 21 56 50c0 26 -16 44 -54 44
c-22 0 -55 -5 -72 0c-16 5 -23 22 -21 43l10 91c5 43 16 59 66 59z" />
    <glyph glyph-name="uni2076" unicode="&#x2076;" horiz-adv-x="338" 
d="M239 616c-10 2 -30 9 -52 9c-48 0 -74 -35 -76 -89c16 17 47 35 88 35c68 0 116 -48 116 -122c0 -72 -55 -129 -141 -129c-97 0 -150 62 -150 173c0 130 58 207 164 207c34 0 63 -7 78 -17c18 -12 23 -30 18 -46c-7 -22 -24 -26 -45 -21zM119 457c0 -40 23 -64 52 -64
c28 0 48 21 48 52c0 37 -23 52 -47 52c-25 0 -53 -18 -53 -40z" />
    <glyph glyph-name="Lcaron" unicode="&#x13d;" horiz-adv-x="533" 
d="M328 518c19 19 33 37 33 61c0 18 -14 27 -29 34c-24 11 -32 32 -23 55c9 22 33 29 61 23c48 -11 78 -47 78 -94c0 -52 -30 -94 -61 -118c-21 -16 -58 -31 -74 -11c-12 17 -1 33 15 50zM471 0h-338c-39 0 -58 29 -58 61v567c0 34 20 62 60 62c39 0 60 -28 60 -62v-521h276
c35 0 57 -22 57 -53c0 -34 -22 -54 -57 -54z" />
    <glyph glyph-name="Lacute" unicode="&#x139;" horiz-adv-x="533" 
d="M471 0h-338c-39 0 -58 29 -58 61v567c0 34 20 62 60 62c39 0 60 -28 60 -62v-521h276c35 0 57 -22 57 -53c0 -34 -22 -54 -57 -54zM298 805l-139 -64c-26 -12 -56 -17 -69 10c-13 25 -4 48 31 64l143 67c26 12 55 13 67 -12s3 -47 -33 -65z" />
    <glyph glyph-name="jcircumflex" unicode="&#x135;" horiz-adv-x="237" 
d="M62 -23v455c0 31 20 58 57 58s56 -27 56 -58v-466c0 -112 -47 -176 -155 -176c-34 0 -77 6 -103 19c-29 14 -41 38 -32 66c9 29 32 31 57 26c22 -5 40 -10 61 -10c50 0 59 33 59 86zM217 557l-102 75l-92 -71c-19 -14 -45 -19 -59 1c-11 16 -9 40 16 58l105 77
c24 18 44 17 68 0l110 -79c26 -19 24 -44 12 -59c-15 -19 -39 -16 -58 -2z" />
    <glyph glyph-name="lcaron" unicode="&#x13e;" horiz-adv-x="353" 
d="M238 538c18 18 26 35 26 52c0 12 -8 23 -27 31c-23 12 -31 32 -22 54c10 23 33 29 63 22c48 -11 71 -47 71 -88c0 -47 -22 -83 -53 -108c-22 -17 -58 -30 -72 -10c-10 14 -5 28 14 47zM55 154v478c0 31 19 58 56 58c38 0 57 -27 57 -58v-462c0 -56 16 -80 57 -80
c19 0 41 7 53 12c25 10 52 4 61 -19c12 -30 -3 -55 -32 -71c-28 -16 -66 -22 -101 -22c-93 0 -151 47 -151 164z" />
    <glyph glyph-name="tcaron" unicode="&#x165;" horiz-adv-x="355" 
d="M249 557c16 17 22 31 22 47c0 10 -4 20 -23 28c-23 10 -25 29 -17 47s28 24 56 19c42 -7 66 -43 66 -79c0 -40 -19 -73 -49 -97c-20 -15 -51 -24 -64 -7c-9 12 -7 25 9 42zM55 159v393c0 31 19 58 56 58c38 0 57 -27 57 -58v-62h85c36 0 54 -17 54 -48
c0 -30 -18 -48 -54 -48h-85v-223c0 -56 15 -81 57 -81c19 0 41 7 53 12c25 10 50 5 60 -19c12 -30 -4 -54 -31 -70c-28 -16 -65 -23 -100 -23c-96 0 -152 50 -152 169z" />
    <glyph glyph-name="dcaron" unicode="&#x10f;" horiz-adv-x="656" 
d="M547 538c19 18 27 35 27 52c0 12 -9 22 -28 31c-23 11 -31 32 -21 54c10 23 33 29 63 22c47 -11 71 -47 71 -88c0 -47 -22 -83 -54 -108c-21 -17 -57 -30 -71 -10c-10 14 -5 28 13 47zM484 632v-574c0 -31 -19 -58 -56 -58c-38 0 -57 27 -57 58v8
c-28 -47 -75 -76 -146 -76c-126 0 -190 100 -190 240c0 154 69 270 225 270c47 0 86 -9 111 -19v151c0 32 19 58 57 58c37 0 56 -26 56 -58zM248 86c106 0 123 114 123 217v78c-28 16 -61 23 -99 23c-90 0 -121 -76 -121 -176c0 -85 29 -142 97 -142z" />
    <glyph glyph-name="uni04B2" unicode="&#x4b2;" horiz-adv-x="649" 
d="M150 655l155 -213l154 212c21 30 51 48 84 24c31 -22 23 -55 3 -83l-176 -233l192 -255h42c37 0 56 -24 56 -57v-135c0 -34 -17 -61 -56 -61s-57 27 -57 61v85h-16c-23 0 -44 10 -58 31l-178 242l-168 -236c-20 -29 -51 -51 -86 -27c-30 21 -24 57 -5 83l194 262
l-177 232c-20 27 -25 66 5 90c36 28 72 7 92 -22z" />
    <glyph glyph-name="uni04B3" unicode="&#x4b3;" horiz-adv-x="482" 
d="M135 457l99 -133l106 134c18 26 49 43 77 19c26 -22 15 -53 -5 -78l-115 -142l129 -157h33c33 0 48 -24 48 -52v-110c0 -30 -14 -54 -48 -54s-49 24 -49 54v62h-13c-21 0 -36 10 -53 31l-119 148l-113 -149c-20 -26 -51 -45 -83 -17c-23 21 -14 54 6 78l129 156l-115 143
c-22 27 -29 61 0 86s65 11 86 -19z" />
    <glyph glyph-name="uni049B" unicode="&#x49b;" horiz-adv-x="482" 
d="M432 100h27c33 0 48 -24 48 -52v-110c0 -30 -14 -54 -48 -54s-49 24 -49 54v62h-10c-16 0 -29 12 -44 27l-185 188v-157c0 -32 -18 -58 -56 -58c-37 0 -55 26 -55 58v374c0 31 18 58 55 58c38 0 56 -27 56 -58v-164l170 193c30 34 60 37 84 14c20 -20 17 -50 -8 -77
l-142 -151z" />
    <glyph glyph-name="uni049A" unicode="&#x49a;" horiz-adv-x="624" 
d="M543 107h36c37 0 56 -24 56 -57v-135c0 -34 -17 -61 -56 -61s-57 27 -57 61v85h-16c-22 0 -37 14 -54 32l-257 283v-254c0 -34 -21 -61 -60 -61c-40 0 -60 27 -60 61v567c0 34 20 62 60 62c39 0 60 -28 60 -62v-252l245 281c27 31 59 45 89 18c28 -25 18 -63 -7 -89
l-215 -230z" />
    <glyph glyph-name="uni0496" unicode="&#x496;" horiz-adv-x="896" 
d="M810 107h41c37 0 56 -24 56 -57v-135c0 -34 -17 -61 -56 -61s-57 27 -57 61v85h-16c-19 0 -36 11 -52 29l-250 295v-263c0 -34 -17 -61 -56 -61c-40 0 -56 27 -56 61v262l-246 -289c-28 -32 -64 -47 -96 -15c-26 26 -16 62 6 86l228 245l-202 238c-22 25 -30 63 -5 87
c27 26 63 18 93 -21l222 -281v255c0 34 16 62 56 62c39 0 56 -28 56 -62v-258l224 283c30 39 62 47 90 22c26 -24 16 -58 -5 -84l-200 -237z" />
    <glyph glyph-name="uni0497" unicode="&#x497;" horiz-adv-x="668" 
d="M610 100h35c33 0 48 -24 48 -52v-110c0 -30 -14 -54 -48 -54s-49 24 -49 54v62h-7c-18 0 -31 6 -47 25l-171 193v-160c0 -32 -12 -58 -49 -58s-49 26 -49 58v160l-169 -191c-27 -30 -60 -37 -86 -8c-19 21 -13 53 12 79l145 151l-134 151c-24 28 -24 55 -4 75
c23 23 54 19 81 -15l155 -192v164c0 31 12 58 49 58s49 -27 49 -58v-165l155 192c28 35 59 37 80 15c20 -20 17 -46 -7 -74l-129 -148z" />
    <glyph glyph-name="Ldot" unicode="&#x13f;" horiz-adv-x="533" 
d="M471 0h-338c-39 0 -58 29 -58 61v567c0 34 20 62 60 62c39 0 60 -28 60 -62v-521h276c35 0 57 -22 57 -53c0 -34 -22 -54 -57 -54zM309 392c0 37 24 70 69 70s70 -33 70 -70c0 -38 -25 -69 -70 -69s-69 31 -69 69z" />
    <glyph glyph-name="ldot" unicode="&#x140;" horiz-adv-x="360" 
d="M219 369c0 41 25 66 67 66c41 0 68 -25 68 -66c0 -42 -27 -66 -68 -66c-42 0 -67 24 -67 66zM55 154v478c0 31 19 58 56 58c38 0 57 -27 57 -58v-462c0 -56 16 -80 57 -80c19 0 41 7 53 12c25 10 52 4 61 -19c12 -30 -3 -55 -32 -71c-28 -16 -66 -22 -101 -22
c-93 0 -151 47 -151 164z" />
    <glyph glyph-name="Lslash" unicode="&#x141;" horiz-adv-x="546" 
d="M484 0h-338c-39 0 -58 29 -58 61v205l-13 -9c-22 -16 -55 -22 -71 4c-17 26 -4 54 19 70l65 45v252c0 34 20 62 60 62c39 0 60 -28 60 -62v-170l40 28c26 18 57 21 74 -4c18 -27 2 -56 -22 -71l-92 -63v-241h276c35 0 57 -22 57 -53c0 -34 -22 -54 -57 -54z" />
    <glyph glyph-name="lslash" unicode="&#x142;" horiz-adv-x="348" 
d="M70 154v95l-3 -2c-22 -16 -54 -22 -71 4c-19 26 -4 54 19 70l55 38v273c0 31 19 58 56 58c38 0 57 -27 57 -58v-196l43 30c25 18 54 21 71 -4c19 -27 4 -56 -19 -71l-95 -65v-156c0 -56 16 -80 57 -80c19 0 41 7 53 12c25 10 52 4 61 -19c12 -30 -3 -55 -32 -71
c-28 -16 -66 -22 -101 -22c-93 0 -151 47 -151 164z" />
    <glyph glyph-name="Hbar" unicode="&#x126;" horiz-adv-x="722" 
d="M520 61v238h-318v-238c0 -34 -21 -61 -60 -61c-40 0 -60 27 -60 61v447h-36c-28 0 -41 15 -41 37c0 23 13 38 41 38h36v45c0 34 20 62 60 62c39 0 60 -28 60 -62v-45h318v45c0 34 20 62 60 62c39 0 60 -28 60 -62v-45h36c28 0 41 -15 41 -38c0 -22 -13 -37 -41 -37h-36
v-447c0 -34 -21 -61 -60 -61c-40 0 -60 27 -60 61zM202 406h318v102h-318v-102z" />
    <glyph glyph-name="dcroat" unicode="&#x111;" horiz-adv-x="564" 
d="M484 632v-14h44c28 0 41 -12 41 -34s-13 -35 -41 -35h-44v-491c0 -31 -19 -58 -56 -58c-38 0 -57 27 -57 58v8c-28 -47 -75 -76 -146 -76c-126 0 -190 100 -190 240c0 154 69 270 225 270c47 0 86 -9 111 -19v68h-126c-28 0 -41 13 -41 35s13 34 41 34h126v14
c0 32 19 58 57 58c37 0 56 -26 56 -58zM248 86c106 0 123 114 123 217v78c-28 16 -61 23 -99 23c-90 0 -121 -76 -121 -176c0 -85 29 -142 97 -142z" />
    <glyph glyph-name="afii10099" unicode="&#x452;" horiz-adv-x="590" 
d="M340 421h-129v-133c30 57 89 83 148 83c129 0 171 -81 171 -214v-182c0 -100 -36 -185 -158 -185c-29 0 -64 5 -89 20s-36 36 -29 65c6 25 29 35 54 30c21 -4 34 -9 51 -9c50 0 58 30 58 84v178c0 66 -21 113 -85 113c-97 0 -119 -98 -121 -210v-4c0 -32 -19 -57 -57 -57
c-37 0 -56 26 -56 58v363h-61c-28 0 -41 12 -41 34c0 23 13 35 41 35h61v142c0 31 19 58 56 58c38 0 57 -27 57 -58v-142h129c28 0 42 -12 42 -35c0 -22 -14 -34 -42 -34z" />
    <glyph glyph-name="uni04C8" unicode="&#x4c8;" horiz-adv-x="550" 
d="M377 -31v234h-204v-145c0 -32 -19 -58 -57 -58c-37 0 -56 26 -56 58v374c0 31 19 58 56 58c38 0 57 -27 57 -58v-129h204v129c0 31 19 58 56 58c38 0 57 -27 57 -58v-429c0 -131 -31 -213 -152 -213c-29 0 -59 4 -81 13c-28 13 -45 34 -37 67c6 23 27 34 50 29
c21 -4 36 -8 52 -8c48 0 55 28 55 78z" />
    <glyph glyph-name="uni04C7" unicode="&#x4c7;" horiz-adv-x="708" 
d="M513 -17v316h-318v-238c0 -34 -21 -61 -60 -61c-40 0 -60 27 -60 61v567c0 34 20 62 60 62c39 0 60 -28 60 -62v-222h318v222c0 34 20 62 60 62c39 0 60 -28 60 -62v-613c0 -138 -32 -225 -161 -225c-31 0 -65 5 -88 15c-30 13 -50 37 -41 71c7 26 30 37 55 33
c21 -5 40 -10 58 -10c50 0 57 31 57 84z" />
    <glyph glyph-name="uni0492" unicode="&#x492;" horiz-adv-x="512" 
d="M92 61v264h-50c-28 0 -41 17 -41 39c0 23 13 40 41 40h50v224c0 34 20 62 60 62h297c35 0 57 -21 57 -54c0 -32 -22 -53 -57 -53h-237v-179h198c28 0 41 -17 41 -40c0 -22 -13 -39 -41 -39h-198v-264c0 -34 -21 -61 -60 -61c-40 0 -60 27 -60 61z" />
    <glyph glyph-name="uni0493" unicode="&#x493;" horiz-adv-x="406" 
d="M132 490h224c36 0 54 -20 54 -51c0 -30 -18 -49 -54 -49h-167v-119h143c28 0 42 -14 42 -37c0 -22 -14 -36 -42 -36h-143v-140c0 -32 -19 -58 -57 -58c-37 0 -56 26 -56 58v140h-39c-28 0 -41 14 -41 36c0 23 13 37 41 37h39v161c0 31 20 58 56 58z" />
    <glyph glyph-name="uni04B0" unicode="&#x4b0;" horiz-adv-x="566" 
d="M225 62v153h-77c-37 0 -54 15 -54 44c0 30 17 45 54 45h73l-191 274c-22 34 -30 78 4 102c35 24 71 6 95 -30l160 -246l156 245c19 30 52 56 89 31c31 -21 25 -59 6 -87l-195 -289h76c37 0 56 -15 56 -45c0 -29 -19 -44 -56 -44h-76v-153c0 -34 -21 -61 -60 -61
c-40 0 -60 27 -60 61z" />
    <glyph glyph-name="uni04B1" unicode="&#x4b1;" horiz-adv-x="466" 
d="M442 408l-140 -339h71c28 0 42 -12 42 -35c0 -22 -14 -34 -42 -34h-83v-142c0 -32 -19 -58 -57 -58c-37 0 -56 26 -56 58v142h-85c-28 0 -41 12 -41 34c0 23 13 35 41 35h72l-140 331c-13 31 -12 71 25 85c35 13 64 -4 77 -40l109 -300l111 298c15 42 41 55 74 42
c36 -14 35 -48 22 -77z" />
    <glyph glyph-name="afii10060" unicode="&#x40b;" horiz-adv-x="768" 
d="M359 301v-239c0 -34 -20 -62 -60 -62s-60 28 -60 62v521h-177c-35 0 -57 22 -57 54c0 33 22 53 57 53h472c36 0 58 -20 58 -53c0 -32 -22 -54 -58 -54h-175v-175c44 30 106 48 159 48c134 0 215 -56 215 -239v-155c0 -33 -21 -62 -60 -62c-40 0 -60 29 -60 62v149
c0 106 -35 141 -112 141c-47 0 -97 -20 -142 -51z" />
    <glyph glyph-name="afii10051" unicode="&#x402;" horiz-adv-x="764" 
d="M516 93c63 0 87 45 87 120c0 88 -57 121 -140 121c-40 0 -75 -4 -104 -10v-263c0 -34 -20 -61 -60 -61s-60 27 -60 61v522h-177c-35 0 -57 22 -57 54c0 33 22 53 57 53h474c36 0 58 -20 58 -53c0 -32 -22 -54 -58 -54h-177v-155c33 8 78 13 118 13
c139 0 252 -60 252 -222c0 -143 -70 -229 -212 -229c-32 0 -80 5 -106 22c-19 12 -30 35 -24 61c7 28 31 36 54 32c28 -5 48 -12 75 -12z" />
    <glyph glyph-name="uni0494" unicode="&#x494;" horiz-adv-x="597" 
d="M343 -4c71 0 97 63 97 143c0 87 -55 135 -144 135c-35 0 -74 -4 -101 -10v-200c0 -34 -21 -64 -60 -64c-40 0 -60 27 -60 61v567c0 33 20 62 58 62h299c35 0 57 -21 57 -54c0 -32 -22 -53 -57 -53h-237v-214c32 7 76 12 112 12c156 0 259 -71 259 -235
c0 -146 -64 -253 -216 -253c-40 0 -77 7 -104 22c-20 11 -38 37 -28 66c10 28 31 32 55 27c27 -6 41 -12 70 -12z" />
    <glyph glyph-name="uni04C3" unicode="&#x4c3;" horiz-adv-x="600" 
d="M75 61v567c0 34 20 62 60 62c39 0 60 -28 60 -62v-245h55l204 270c27 37 59 47 89 23c27 -22 20 -59 -4 -88l-180 -219c127 -38 220 -153 220 -303c0 -148 -71 -276 -229 -276c-34 0 -70 2 -101 17c-30 15 -47 45 -34 76c12 28 35 32 60 27c29 -6 44 -11 74 -11
c73 0 114 51 114 163c0 128 -93 227 -224 227h-44v-228c0 -34 -21 -61 -60 -61c-40 0 -60 27 -60 61z" />
    <glyph glyph-name="afii10059" unicode="&#x40a;" horiz-adv-x="1014" 
d="M511 76v223h-316v-238c0 -34 -21 -61 -60 -61c-40 0 -60 27 -60 61v567c0 34 20 62 60 62c39 0 60 -28 60 -62v-222h316v223c0 34 20 61 60 61c39 0 60 -27 60 -61v-196c25 5 64 8 90 8c158 0 263 -53 263 -223c0 -149 -109 -223 -264 -223c-54 0 -102 1 -153 12
c-40 9 -56 34 -56 69zM710 334c-27 0 -57 -3 -79 -6v-220c29 -4 54 -6 86 -6c90 0 141 38 141 118c0 92 -67 114 -148 114z" />
    <glyph glyph-name="afii10107" unicode="&#x45a;" horiz-adv-x="791" 
d="M376 69v134h-203v-145c0 -32 -19 -58 -57 -58c-37 0 -56 26 -56 58v374c0 31 19 58 56 58c38 0 57 -27 57 -58v-129h203v130c0 37 26 57 56 57c32 0 57 -21 57 -58v-108c19 3 49 6 76 6c131 0 195 -59 195 -164c0 -138 -120 -171 -237 -171c-30 0 -76 3 -100 9
c-36 9 -47 30 -47 65zM542 88c63 0 104 21 104 79c0 55 -32 76 -96 76c-25 0 -45 -3 -61 -5v-147c16 -2 32 -3 53 -3z" />
    <glyph glyph-name="oslash" unicode="&#xf8;" horiz-adv-x="549" 
d="M35 245c0 145 84 255 239 255c14 0 27 -2 39 -4l14 37c11 32 32 50 65 39c31 -10 31 -41 22 -69l-13 -36c73 -42 113 -125 113 -222c0 -145 -85 -255 -240 -255c-15 0 -29 2 -43 4l-13 -38c-10 -29 -34 -49 -64 -38c-33 11 -32 41 -22 70l12 36c-71 43 -109 124 -109 221
zM398 245c0 55 -18 104 -45 129l-103 -286c7 -2 16 -2 24 -2c83 0 124 68 124 159zM151 245c0 -57 18 -103 43 -127l100 284c-5 1 -11 2 -20 2c-83 0 -123 -71 -123 -159z" />
    </font>
</defs>
</svg>
